<ttFont>
    <TTGlyph name="A" xMin="-10" yMin="-32" xMax="430" yMax="768">
      <contour>
        <pt x="50" y="102" on="1"/>
        <pt x="50" y="676" on="1"/>
        <pt x="50" y="683" on="0"/>
        <pt x="278" y="768" on="0"/>
        <pt x="312" y="768" on="0"/>
        <pt x="381" y="686" on="0"/>
        <pt x="381" y="653" on="1"/>
        <pt x="381" y="391" on="1"/>
        <pt x="430" y="391" on="1"/>
        <pt x="430" y="367" on="1"/>
        <pt x="381" y="342" on="1"/>
        <pt x="381" y="148" on="1"/>
        <pt x="381" y="93" on="0"/>
        <pt x="429" y="83" on="1"/>
        <pt x="429" y="61" on="1"/>
        <pt x="320" y="0" on="1"/>
        <pt x="298" y="9" on="0"/>
        <pt x="260" y="50" on="0"/>
        <pt x="260" y="68" on="1"/>
        <pt x="260" y="342" on="1"/>
        <pt x="170" y="342" on="1"/>
        <pt x="170" y="154" on="1"/>
        <pt x="170" y="117" on="0"/>
        <pt x="186" y="85" on="0"/>
        <pt x="211" y="85" on="1"/>
        <pt x="211" y="54" on="1"/>
        <pt x="6" y="-32" on="1"/>
        <pt x="-10" y="0" on="1"/>
        <pt x="12" y="0" on="0"/>
        <pt x="32" y="26" on="1"/>
        <pt x="50" y="51" on="0"/>
      </contour>
      <contour>
        <pt x="209" y="675" on="1"/>
        <pt x="189" y="675" on="0"/>
        <pt x="170" y="660" on="1"/>
        <pt x="170" y="365" on="1"/>
        <pt x="229" y="391" on="1"/>
        <pt x="260" y="391" on="1"/>
        <pt x="260" y="601" on="1"/>
        <pt x="260" y="675" on="0"/>
      </contour>
    </TTGlyph>
    <TTGlyph name="AE" xMin="-10" yMin="-32" xMax="605" yMax="770">
      <contour>
        <pt x="50" y="102" on="1"/>
        <pt x="50" y="676" on="1"/>
        <pt x="50" y="683" on="0"/>
        <pt x="278" y="768" on="0"/>
        <pt x="315" y="768" on="0"/>
        <pt x="353" y="719" on="1"/>
        <pt x="489" y="770" on="0"/>
        <pt x="507" y="770" on="1"/>
        <pt x="513" y="770" on="0"/>
        <pt x="529" y="712" on="0"/>
        <pt x="550" y="630" on="0"/>
        <pt x="573" y="591" on="0"/>
        <pt x="605" y="591" on="1"/>
        <pt x="605" y="571" on="1"/>
        <pt x="583" y="561" on="0"/>
        <pt x="478" y="510" on="0"/>
        <pt x="474" y="510" on="1"/>
        <pt x="459" y="510" on="0"/>
        <pt x="413" y="673" on="0"/>
        <pt x="399" y="673" on="1"/>
        <pt x="381" y="673" on="0"/>
        <pt x="381" y="653" on="1"/>
        <pt x="381" y="391" on="1"/>
        <pt x="522" y="391" on="1"/>
        <pt x="522" y="367" on="1"/>
        <pt x="472" y="342" on="1"/>
        <pt x="381" y="342" on="1"/>
        <pt x="381" y="250" on="1"/>
        <pt x="381" y="139" on="0"/>
        <pt x="404" y="120" on="1"/>
        <pt x="436" y="92" on="0"/>
        <pt x="514" y="84" on="0"/>
        <pt x="559" y="84" on="1"/>
        <pt x="559" y="55" on="1"/>
        <pt x="554" y="55" on="0"/>
        <pt x="416" y="0" on="0"/>
        <pt x="401" y="0" on="1"/>
        <pt x="370" y="0" on="0"/>
        <pt x="261" y="96" on="0"/>
        <pt x="261" y="152" on="1"/>
        <pt x="261" y="342" on="1"/>
        <pt x="170" y="342" on="1"/>
        <pt x="170" y="154" on="1"/>
        <pt x="170" y="117" on="0"/>
        <pt x="186" y="85" on="0"/>
        <pt x="211" y="85" on="1"/>
        <pt x="211" y="54" on="1"/>
        <pt x="6" y="-32" on="1"/>
        <pt x="-10" y="0" on="1"/>
        <pt x="12" y="0" on="0"/>
        <pt x="32" y="26" on="1"/>
        <pt x="50" y="51" on="0"/>
      </contour>
      <contour>
        <pt x="209" y="675" on="1"/>
        <pt x="189" y="675" on="0"/>
        <pt x="170" y="660" on="1"/>
        <pt x="170" y="365" on="1"/>
        <pt x="229" y="391" on="1"/>
        <pt x="261" y="391" on="1"/>
        <pt x="261" y="601" on="1"/>
        <pt x="261" y="675" on="0"/>
      </contour>
    </TTGlyph>
    <TTGlyph name="AEacute" xMin="-10" yMin="-32" xMax="605" yMax="984">
      <contour>
        <pt x="50" y="102" on="1"/>
        <pt x="50" y="676" on="1"/>
        <pt x="50" y="683" on="0"/>
        <pt x="278" y="768" on="0"/>
        <pt x="315" y="768" on="0"/>
        <pt x="353" y="719" on="1"/>
        <pt x="489" y="770" on="0"/>
        <pt x="507" y="770" on="1"/>
        <pt x="513" y="770" on="0"/>
        <pt x="529" y="712" on="0"/>
        <pt x="550" y="630" on="0"/>
        <pt x="573" y="591" on="0"/>
        <pt x="605" y="591" on="1"/>
        <pt x="605" y="571" on="1"/>
        <pt x="583" y="561" on="0"/>
        <pt x="478" y="510" on="0"/>
        <pt x="474" y="510" on="1"/>
        <pt x="459" y="510" on="0"/>
        <pt x="413" y="673" on="0"/>
        <pt x="399" y="673" on="1"/>
        <pt x="381" y="673" on="0"/>
        <pt x="381" y="653" on="1"/>
        <pt x="381" y="391" on="1"/>
        <pt x="522" y="391" on="1"/>
        <pt x="522" y="367" on="1"/>
        <pt x="472" y="342" on="1"/>
        <pt x="381" y="342" on="1"/>
        <pt x="381" y="250" on="1"/>
        <pt x="381" y="139" on="0"/>
        <pt x="404" y="120" on="1"/>
        <pt x="436" y="92" on="0"/>
        <pt x="514" y="84" on="0"/>
        <pt x="559" y="84" on="1"/>
        <pt x="559" y="55" on="1"/>
        <pt x="554" y="55" on="0"/>
        <pt x="416" y="0" on="0"/>
        <pt x="401" y="0" on="1"/>
        <pt x="370" y="0" on="0"/>
        <pt x="261" y="96" on="0"/>
        <pt x="261" y="152" on="1"/>
        <pt x="261" y="342" on="1"/>
        <pt x="170" y="342" on="1"/>
        <pt x="170" y="154" on="1"/>
        <pt x="170" y="117" on="0"/>
        <pt x="186" y="85" on="0"/>
        <pt x="211" y="85" on="1"/>
        <pt x="211" y="54" on="1"/>
        <pt x="6" y="-32" on="1"/>
        <pt x="-10" y="0" on="1"/>
        <pt x="12" y="0" on="0"/>
        <pt x="32" y="26" on="1"/>
        <pt x="50" y="51" on="0"/>
      </contour>
      <contour>
        <pt x="209" y="675" on="1"/>
        <pt x="189" y="675" on="0"/>
        <pt x="170" y="660" on="1"/>
        <pt x="170" y="365" on="1"/>
        <pt x="229" y="391" on="1"/>
        <pt x="261" y="391" on="1"/>
        <pt x="261" y="601" on="1"/>
        <pt x="261" y="675" on="0"/>
      </contour>
      <contour>
        <pt x="369" y="974" on="1"/>
        <pt x="375" y="984" on="0"/>
        <pt x="461" y="984" on="0"/>
        <pt x="461" y="965" on="1"/>
        <pt x="461" y="937" on="0"/>
        <pt x="371" y="821" on="1"/>
        <pt x="361" y="809" on="0"/>
        <pt x="336" y="809" on="1"/>
        <pt x="329" y="809" on="0"/>
        <pt x="320" y="841" on="0"/>
        <pt x="320" y="871" on="0"/>
        <pt x="352" y="947" on="0"/>
      </contour>
    </TTGlyph>
    <TTGlyph name="Aacute" xMin="-10" yMin="-32" xMax="430" yMax="985">
      <contour>
        <pt x="50" y="102" on="1"/>
        <pt x="50" y="676" on="1"/>
        <pt x="50" y="683" on="0"/>
        <pt x="278" y="768" on="0"/>
        <pt x="312" y="768" on="0"/>
        <pt x="381" y="686" on="0"/>
        <pt x="381" y="653" on="1"/>
        <pt x="381" y="391" on="1"/>
        <pt x="430" y="391" on="1"/>
        <pt x="430" y="367" on="1"/>
        <pt x="381" y="342" on="1"/>
        <pt x="381" y="148" on="1"/>
        <pt x="381" y="93" on="0"/>
        <pt x="429" y="83" on="1"/>
        <pt x="429" y="61" on="1"/>
        <pt x="320" y="0" on="1"/>
        <pt x="298" y="9" on="0"/>
        <pt x="260" y="50" on="0"/>
        <pt x="260" y="68" on="1"/>
        <pt x="260" y="342" on="1"/>
        <pt x="170" y="342" on="1"/>
        <pt x="170" y="154" on="1"/>
        <pt x="170" y="117" on="0"/>
        <pt x="186" y="85" on="0"/>
        <pt x="211" y="85" on="1"/>
        <pt x="211" y="54" on="1"/>
        <pt x="6" y="-32" on="1"/>
        <pt x="-10" y="0" on="1"/>
        <pt x="12" y="0" on="0"/>
        <pt x="32" y="26" on="1"/>
        <pt x="50" y="51" on="0"/>
      </contour>
      <contour>
        <pt x="209" y="675" on="1"/>
        <pt x="189" y="675" on="0"/>
        <pt x="170" y="660" on="1"/>
        <pt x="170" y="365" on="1"/>
        <pt x="229" y="391" on="1"/>
        <pt x="260" y="391" on="1"/>
        <pt x="260" y="601" on="1"/>
        <pt x="260" y="675" on="0"/>
      </contour>
      <contour>
        <pt x="224" y="975" on="1"/>
        <pt x="230" y="985" on="0"/>
        <pt x="316" y="985" on="0"/>
        <pt x="316" y="966" on="1"/>
        <pt x="316" y="938" on="0"/>
        <pt x="226" y="822" on="1"/>
        <pt x="216" y="810" on="0"/>
        <pt x="191" y="810" on="1"/>
        <pt x="184" y="810" on="0"/>
        <pt x="175" y="842" on="0"/>
        <pt x="175" y="872" on="0"/>
        <pt x="207" y="948" on="0"/>
      </contour>
    </TTGlyph>
    <TTGlyph name="Abreve" xMin="-10" yMin="-32" xMax="430" yMax="969">
      <contour>
        <pt x="50" y="102" on="1"/>
        <pt x="50" y="676" on="1"/>
        <pt x="50" y="683" on="0"/>
        <pt x="278" y="768" on="0"/>
        <pt x="312" y="768" on="0"/>
        <pt x="381" y="686" on="0"/>
        <pt x="381" y="653" on="1"/>
        <pt x="381" y="391" on="1"/>
        <pt x="430" y="391" on="1"/>
        <pt x="430" y="367" on="1"/>
        <pt x="381" y="342" on="1"/>
        <pt x="381" y="148" on="1"/>
        <pt x="381" y="93" on="0"/>
        <pt x="429" y="83" on="1"/>
        <pt x="429" y="61" on="1"/>
        <pt x="320" y="0" on="1"/>
        <pt x="298" y="9" on="0"/>
        <pt x="260" y="50" on="0"/>
        <pt x="260" y="68" on="1"/>
        <pt x="260" y="342" on="1"/>
        <pt x="170" y="342" on="1"/>
        <pt x="170" y="154" on="1"/>
        <pt x="170" y="117" on="0"/>
        <pt x="186" y="85" on="0"/>
        <pt x="211" y="85" on="1"/>
        <pt x="211" y="54" on="1"/>
        <pt x="6" y="-32" on="1"/>
        <pt x="-10" y="0" on="1"/>
        <pt x="12" y="0" on="0"/>
        <pt x="32" y="26" on="1"/>
        <pt x="50" y="51" on="0"/>
      </contour>
      <contour>
        <pt x="209" y="675" on="1"/>
        <pt x="189" y="675" on="0"/>
        <pt x="170" y="660" on="1"/>
        <pt x="170" y="365" on="1"/>
        <pt x="229" y="391" on="1"/>
        <pt x="260" y="391" on="1"/>
        <pt x="260" y="601" on="1"/>
        <pt x="260" y="675" on="0"/>
      </contour>
      <contour>
        <pt x="357" y="925" on="1"/>
        <pt x="357" y="889" on="1"/>
        <pt x="357" y="881" on="0"/>
        <pt x="202" y="809" on="0"/>
        <pt x="156" y="809" on="0"/>
        <pt x="74" y="886" on="0"/>
        <pt x="74" y="940" on="1"/>
        <pt x="74" y="943" on="0"/>
        <pt x="135" y="969" on="0"/>
        <pt x="145" y="969" on="0"/>
        <pt x="163" y="941" on="0"/>
        <pt x="167" y="925" on="1"/>
        <pt x="185" y="855" on="1"/>
        <pt x="207" y="855" on="0"/>
        <pt x="247" y="874" on="0"/>
        <pt x="256" y="883" on="1"/>
        <pt x="264" y="892" on="1"/>
        <pt x="264" y="940" on="1"/>
        <pt x="264" y="943" on="0"/>
        <pt x="325" y="969" on="0"/>
        <pt x="336" y="969" on="0"/>
        <pt x="357" y="941" on="0"/>
      </contour>
    </TTGlyph>
    <TTGlyph name="Acircumflex" xMin="-10" yMin="-32" xMax="430" yMax="986">
      <contour>
        <pt x="50" y="102" on="1"/>
        <pt x="50" y="676" on="1"/>
        <pt x="50" y="683" on="0"/>
        <pt x="278" y="768" on="0"/>
        <pt x="312" y="768" on="0"/>
        <pt x="381" y="686" on="0"/>
        <pt x="381" y="653" on="1"/>
        <pt x="381" y="391" on="1"/>
        <pt x="430" y="391" on="1"/>
        <pt x="430" y="367" on="1"/>
        <pt x="381" y="342" on="1"/>
        <pt x="381" y="148" on="1"/>
        <pt x="381" y="93" on="0"/>
        <pt x="429" y="83" on="1"/>
        <pt x="429" y="61" on="1"/>
        <pt x="320" y="0" on="1"/>
        <pt x="298" y="9" on="0"/>
        <pt x="260" y="50" on="0"/>
        <pt x="260" y="68" on="1"/>
        <pt x="260" y="342" on="1"/>
        <pt x="170" y="342" on="1"/>
        <pt x="170" y="154" on="1"/>
        <pt x="170" y="117" on="0"/>
        <pt x="186" y="85" on="0"/>
        <pt x="211" y="85" on="1"/>
        <pt x="211" y="54" on="1"/>
        <pt x="6" y="-32" on="1"/>
        <pt x="-10" y="0" on="1"/>
        <pt x="12" y="0" on="0"/>
        <pt x="32" y="26" on="1"/>
        <pt x="50" y="51" on="0"/>
      </contour>
      <contour>
        <pt x="209" y="675" on="1"/>
        <pt x="189" y="675" on="0"/>
        <pt x="170" y="660" on="1"/>
        <pt x="170" y="365" on="1"/>
        <pt x="229" y="391" on="1"/>
        <pt x="260" y="391" on="1"/>
        <pt x="260" y="601" on="1"/>
        <pt x="260" y="675" on="0"/>
      </contour>
      <contour>
        <pt x="301" y="945" on="0"/>
        <pt x="383" y="864" on="0"/>
        <pt x="383" y="843" on="0"/>
        <pt x="380" y="832" on="1"/>
        <pt x="374" y="811" on="0"/>
        <pt x="367" y="811" on="1"/>
        <pt x="355" y="811" on="0"/>
        <pt x="262" y="872" on="0"/>
        <pt x="215" y="910" on="1"/>
        <pt x="168" y="872" on="0"/>
        <pt x="75" y="811" on="0"/>
        <pt x="63" y="811" on="1"/>
        <pt x="56" y="811" on="0"/>
        <pt x="47" y="843" on="0"/>
        <pt x="47" y="858" on="0"/>
        <pt x="64" y="878" on="0"/>
        <pt x="92" y="907" on="0"/>
        <pt x="106" y="920" on="1"/>
        <pt x="148" y="959" on="0"/>
        <pt x="175" y="986" on="0"/>
        <pt x="250" y="986" on="0"/>
        <pt x="270" y="971" on="1"/>
      </contour>
    </TTGlyph>
    <TTGlyph name="Adieresis" xMin="-10" yMin="-32" xMax="430" yMax="953">
      <contour>
        <pt x="50" y="102" on="1"/>
        <pt x="50" y="676" on="1"/>
        <pt x="50" y="683" on="0"/>
        <pt x="278" y="768" on="0"/>
        <pt x="312" y="768" on="0"/>
        <pt x="381" y="686" on="0"/>
        <pt x="381" y="653" on="1"/>
        <pt x="381" y="391" on="1"/>
        <pt x="430" y="391" on="1"/>
        <pt x="430" y="367" on="1"/>
        <pt x="381" y="342" on="1"/>
        <pt x="381" y="148" on="1"/>
        <pt x="381" y="93" on="0"/>
        <pt x="429" y="83" on="1"/>
        <pt x="429" y="61" on="1"/>
        <pt x="320" y="0" on="1"/>
        <pt x="298" y="9" on="0"/>
        <pt x="260" y="50" on="0"/>
        <pt x="260" y="68" on="1"/>
        <pt x="260" y="342" on="1"/>
        <pt x="170" y="342" on="1"/>
        <pt x="170" y="154" on="1"/>
        <pt x="170" y="117" on="0"/>
        <pt x="186" y="85" on="0"/>
        <pt x="211" y="85" on="1"/>
        <pt x="211" y="54" on="1"/>
        <pt x="6" y="-32" on="1"/>
        <pt x="-10" y="0" on="1"/>
        <pt x="12" y="0" on="0"/>
        <pt x="32" y="26" on="1"/>
        <pt x="50" y="51" on="0"/>
      </contour>
      <contour>
        <pt x="209" y="675" on="1"/>
        <pt x="189" y="675" on="0"/>
        <pt x="170" y="660" on="1"/>
        <pt x="170" y="365" on="1"/>
        <pt x="229" y="391" on="1"/>
        <pt x="260" y="391" on="1"/>
        <pt x="260" y="601" on="1"/>
        <pt x="260" y="675" on="0"/>
      </contour>
      <contour>
        <pt x="57" y="868" on="1"/>
        <pt x="57" y="922" on="1"/>
        <pt x="57" y="925" on="0"/>
        <pt x="132" y="953" on="0"/>
        <pt x="144" y="953" on="0"/>
        <pt x="166" y="923" on="0"/>
        <pt x="166" y="906" on="1"/>
        <pt x="166" y="841" on="1"/>
        <pt x="166" y="838" on="0"/>
        <pt x="95" y="810" on="0"/>
        <pt x="78" y="810" on="0"/>
        <pt x="57" y="842" on="0"/>
      </contour>
      <contour>
        <pt x="264" y="868" on="1"/>
        <pt x="264" y="922" on="1"/>
        <pt x="264" y="925" on="0"/>
        <pt x="339" y="953" on="0"/>
        <pt x="351" y="953" on="0"/>
        <pt x="373" y="923" on="0"/>
        <pt x="373" y="906" on="1"/>
        <pt x="373" y="841" on="1"/>
        <pt x="373" y="838" on="0"/>
        <pt x="302" y="810" on="0"/>
        <pt x="285" y="810" on="0"/>
        <pt x="264" y="842" on="0"/>
      </contour>
    </TTGlyph>
    <TTGlyph name="Agrave" xMin="-10" yMin="-32" xMax="430" yMax="986">
      <contour>
        <pt x="50" y="102" on="1"/>
        <pt x="50" y="676" on="1"/>
        <pt x="50" y="683" on="0"/>
        <pt x="278" y="768" on="0"/>
        <pt x="312" y="768" on="0"/>
        <pt x="381" y="686" on="0"/>
        <pt x="381" y="653" on="1"/>
        <pt x="381" y="391" on="1"/>
        <pt x="430" y="391" on="1"/>
        <pt x="430" y="367" on="1"/>
        <pt x="381" y="342" on="1"/>
        <pt x="381" y="148" on="1"/>
        <pt x="381" y="93" on="0"/>
        <pt x="429" y="83" on="1"/>
        <pt x="429" y="61" on="1"/>
        <pt x="320" y="0" on="1"/>
        <pt x="298" y="9" on="0"/>
        <pt x="260" y="50" on="0"/>
        <pt x="260" y="68" on="1"/>
        <pt x="260" y="342" on="1"/>
        <pt x="170" y="342" on="1"/>
        <pt x="170" y="154" on="1"/>
        <pt x="170" y="117" on="0"/>
        <pt x="186" y="85" on="0"/>
        <pt x="211" y="85" on="1"/>
        <pt x="211" y="54" on="1"/>
        <pt x="6" y="-32" on="1"/>
        <pt x="-10" y="0" on="1"/>
        <pt x="12" y="0" on="0"/>
        <pt x="32" y="26" on="1"/>
        <pt x="50" y="51" on="0"/>
      </contour>
      <contour>
        <pt x="209" y="675" on="1"/>
        <pt x="189" y="675" on="0"/>
        <pt x="170" y="660" on="1"/>
        <pt x="170" y="365" on="1"/>
        <pt x="229" y="391" on="1"/>
        <pt x="260" y="391" on="1"/>
        <pt x="260" y="601" on="1"/>
        <pt x="260" y="675" on="0"/>
      </contour>
      <contour>
        <pt x="194" y="949" on="0"/>
        <pt x="226" y="873" on="0"/>
        <pt x="226" y="843" on="0"/>
        <pt x="223" y="832" on="1"/>
        <pt x="217" y="811" on="0"/>
        <pt x="210" y="811" on="1"/>
        <pt x="185" y="811" on="0"/>
        <pt x="175" y="823" on="1"/>
        <pt x="85" y="939" on="0"/>
        <pt x="85" y="967" on="1"/>
        <pt x="85" y="986" on="0"/>
        <pt x="171" y="986" on="0"/>
        <pt x="177" y="976" on="1"/>
      </contour>
    </TTGlyph>
    <TTGlyph name="Amacron" xMin="-10" yMin="-32" xMax="430" yMax="880">
      <contour>
        <pt x="50" y="102" on="1"/>
        <pt x="50" y="676" on="1"/>
        <pt x="50" y="683" on="0"/>
        <pt x="278" y="768" on="0"/>
        <pt x="312" y="768" on="0"/>
        <pt x="381" y="686" on="0"/>
        <pt x="381" y="653" on="1"/>
        <pt x="381" y="391" on="1"/>
        <pt x="430" y="391" on="1"/>
        <pt x="430" y="367" on="1"/>
        <pt x="381" y="342" on="1"/>
        <pt x="381" y="148" on="1"/>
        <pt x="381" y="93" on="0"/>
        <pt x="429" y="83" on="1"/>
        <pt x="429" y="61" on="1"/>
        <pt x="320" y="0" on="1"/>
        <pt x="298" y="9" on="0"/>
        <pt x="260" y="50" on="0"/>
        <pt x="260" y="68" on="1"/>
        <pt x="260" y="342" on="1"/>
        <pt x="170" y="342" on="1"/>
        <pt x="170" y="154" on="1"/>
        <pt x="170" y="117" on="0"/>
        <pt x="186" y="85" on="0"/>
        <pt x="211" y="85" on="1"/>
        <pt x="211" y="54" on="1"/>
        <pt x="6" y="-32" on="1"/>
        <pt x="-10" y="0" on="1"/>
        <pt x="12" y="0" on="0"/>
        <pt x="32" y="26" on="1"/>
        <pt x="50" y="51" on="0"/>
      </contour>
      <contour>
        <pt x="209" y="675" on="1"/>
        <pt x="189" y="675" on="0"/>
        <pt x="170" y="660" on="1"/>
        <pt x="170" y="365" on="1"/>
        <pt x="229" y="391" on="1"/>
        <pt x="260" y="391" on="1"/>
        <pt x="260" y="601" on="1"/>
        <pt x="260" y="675" on="0"/>
      </contour>
      <contour>
        <pt x="376" y="880" on="1"/>
        <pt x="376" y="856" on="1"/>
        <pt x="326" y="811" on="1"/>
        <pt x="55" y="811" on="1"/>
        <pt x="55" y="833" on="1"/>
        <pt x="105" y="880" on="1"/>
      </contour>
    </TTGlyph>
    <TTGlyph name="Aogonek" xMin="-10" yMin="-150" xMax="458" yMax="768">
      <contour>
        <pt x="50" y="102" on="1"/>
        <pt x="50" y="676" on="1"/>
        <pt x="50" y="683" on="0"/>
        <pt x="278" y="768" on="0"/>
        <pt x="312" y="768" on="0"/>
        <pt x="381" y="686" on="0"/>
        <pt x="381" y="653" on="1"/>
        <pt x="381" y="391" on="1"/>
        <pt x="430" y="391" on="1"/>
        <pt x="430" y="367" on="1"/>
        <pt x="381" y="342" on="1"/>
        <pt x="381" y="148" on="1"/>
        <pt x="381" y="93" on="0"/>
        <pt x="429" y="83" on="1"/>
        <pt x="429" y="61" on="1"/>
        <pt x="320" y="0" on="1"/>
        <pt x="298" y="9" on="0"/>
        <pt x="260" y="50" on="0"/>
        <pt x="260" y="68" on="1"/>
        <pt x="260" y="342" on="1"/>
        <pt x="170" y="342" on="1"/>
        <pt x="170" y="154" on="1"/>
        <pt x="170" y="117" on="0"/>
        <pt x="186" y="85" on="0"/>
        <pt x="211" y="85" on="1"/>
        <pt x="211" y="54" on="1"/>
        <pt x="6" y="-32" on="1"/>
        <pt x="-10" y="0" on="1"/>
        <pt x="12" y="0" on="0"/>
        <pt x="32" y="26" on="1"/>
        <pt x="50" y="51" on="0"/>
      </contour>
      <contour>
        <pt x="209" y="675" on="1"/>
        <pt x="189" y="675" on="0"/>
        <pt x="170" y="660" on="1"/>
        <pt x="170" y="365" on="1"/>
        <pt x="229" y="391" on="1"/>
        <pt x="260" y="391" on="1"/>
        <pt x="260" y="601" on="1"/>
        <pt x="260" y="675" on="0"/>
      </contour>
      <contour>
        <pt x="358" y="83" on="1"/>
        <pt x="339" y="30" on="0"/>
        <pt x="339" y="-26" on="0"/>
        <pt x="344" y="-48" on="0"/>
        <pt x="354" y="-64" on="1"/>
        <pt x="372" y="-94" on="0"/>
        <pt x="458" y="-94" on="1"/>
        <pt x="458" y="-112" on="1"/>
        <pt x="369" y="-150" on="0"/>
        <pt x="331" y="-150" on="0"/>
        <pt x="258" y="-103" on="0"/>
        <pt x="258" y="-59" on="1"/>
        <pt x="258" y="-16" on="0"/>
        <pt x="270" y="24" on="1"/>
        <pt x="274" y="38" on="1"/>
      </contour>
    </TTGlyph>
    <TTGlyph name="Aring" xMin="-10" yMin="-32" xMax="430" yMax="973">
      <contour>
        <pt x="50" y="102" on="1"/>
        <pt x="50" y="676" on="1"/>
        <pt x="50" y="683" on="0"/>
        <pt x="278" y="768" on="0"/>
        <pt x="312" y="768" on="0"/>
        <pt x="381" y="686" on="0"/>
        <pt x="381" y="653" on="1"/>
        <pt x="381" y="391" on="1"/>
        <pt x="430" y="391" on="1"/>
        <pt x="430" y="367" on="1"/>
        <pt x="381" y="342" on="1"/>
        <pt x="381" y="148" on="1"/>
        <pt x="381" y="93" on="0"/>
        <pt x="429" y="83" on="1"/>
        <pt x="429" y="61" on="1"/>
        <pt x="320" y="0" on="1"/>
        <pt x="298" y="9" on="0"/>
        <pt x="260" y="50" on="0"/>
        <pt x="260" y="68" on="1"/>
        <pt x="260" y="342" on="1"/>
        <pt x="170" y="342" on="1"/>
        <pt x="170" y="154" on="1"/>
        <pt x="170" y="117" on="0"/>
        <pt x="186" y="85" on="0"/>
        <pt x="211" y="85" on="1"/>
        <pt x="211" y="54" on="1"/>
        <pt x="6" y="-32" on="1"/>
        <pt x="-10" y="0" on="1"/>
        <pt x="12" y="0" on="0"/>
        <pt x="32" y="26" on="1"/>
        <pt x="50" y="51" on="0"/>
      </contour>
      <contour>
        <pt x="209" y="675" on="1"/>
        <pt x="189" y="675" on="0"/>
        <pt x="170" y="660" on="1"/>
        <pt x="170" y="365" on="1"/>
        <pt x="229" y="391" on="1"/>
        <pt x="260" y="391" on="1"/>
        <pt x="260" y="601" on="1"/>
        <pt x="260" y="675" on="0"/>
      </contour>
      <contour>
        <pt x="141" y="872" on="1"/>
        <pt x="141" y="934" on="1"/>
        <pt x="141" y="937" on="0"/>
        <pt x="247" y="973" on="0"/>
        <pt x="261" y="973" on="0"/>
        <pt x="290" y="938" on="0"/>
        <pt x="290" y="925" on="1"/>
        <pt x="290" y="850" on="1"/>
        <pt x="290" y="847" on="0"/>
        <pt x="188" y="811" on="0"/>
        <pt x="167" y="811" on="0"/>
        <pt x="141" y="846" on="0"/>
      </contour>
      <contour>
        <pt x="218" y="850" on="1"/>
        <pt x="227" y="850" on="0"/>
        <pt x="229" y="856" on="1"/>
        <pt x="229" y="903" on="1"/>
        <pt x="229" y="934" on="0"/>
        <pt x="213" y="934" on="1"/>
        <pt x="205" y="934" on="0"/>
        <pt x="201" y="928" on="1"/>
        <pt x="201" y="881" on="1"/>
        <pt x="201" y="850" on="0"/>
      </contour>
    </TTGlyph>
    <TTGlyph name="Atilde" xMin="-10" yMin="-32" xMax="430" yMax="925">
      <contour>
        <pt x="50" y="102" on="1"/>
        <pt x="50" y="676" on="1"/>
        <pt x="50" y="683" on="0"/>
        <pt x="278" y="768" on="0"/>
        <pt x="312" y="768" on="0"/>
        <pt x="381" y="686" on="0"/>
        <pt x="381" y="653" on="1"/>
        <pt x="381" y="391" on="1"/>
        <pt x="430" y="391" on="1"/>
        <pt x="430" y="367" on="1"/>
        <pt x="381" y="342" on="1"/>
        <pt x="381" y="148" on="1"/>
        <pt x="381" y="93" on="0"/>
        <pt x="429" y="83" on="1"/>
        <pt x="429" y="61" on="1"/>
        <pt x="320" y="0" on="1"/>
        <pt x="298" y="9" on="0"/>
        <pt x="260" y="50" on="0"/>
        <pt x="260" y="68" on="1"/>
        <pt x="260" y="342" on="1"/>
        <pt x="170" y="342" on="1"/>
        <pt x="170" y="154" on="1"/>
        <pt x="170" y="117" on="0"/>
        <pt x="186" y="85" on="0"/>
        <pt x="211" y="85" on="1"/>
        <pt x="211" y="54" on="1"/>
        <pt x="6" y="-32" on="1"/>
        <pt x="-10" y="0" on="1"/>
        <pt x="12" y="0" on="0"/>
        <pt x="32" y="26" on="1"/>
        <pt x="50" y="51" on="0"/>
      </contour>
      <contour>
        <pt x="209" y="675" on="1"/>
        <pt x="189" y="675" on="0"/>
        <pt x="170" y="660" on="1"/>
        <pt x="170" y="365" on="1"/>
        <pt x="229" y="391" on="1"/>
        <pt x="260" y="391" on="1"/>
        <pt x="260" y="601" on="1"/>
        <pt x="260" y="675" on="0"/>
      </contour>
      <contour>
        <pt x="312" y="810" on="1"/>
        <pt x="287" y="810" on="0"/>
        <pt x="196" y="839" on="0"/>
        <pt x="148" y="839" on="0"/>
        <pt x="114" y="823" on="0"/>
        <pt x="109" y="812" on="1"/>
        <pt x="88" y="812" on="1"/>
        <pt x="50" y="885" on="1"/>
        <pt x="81" y="925" on="0"/>
        <pt x="145" y="925" on="0"/>
        <pt x="245" y="898" on="0"/>
        <pt x="261" y="898" on="1"/>
        <pt x="311" y="898" on="0"/>
        <pt x="321" y="923" on="1"/>
        <pt x="341" y="923" on="1"/>
        <pt x="380" y="850" on="1"/>
        <pt x="349" y="810" on="0"/>
      </contour>
    </TTGlyph>
    <TTGlyph name="B" xMin="9" yMin="0" xMax="381" yMax="768">
      <contour>
        <pt x="170" y="700" on="1"/>
        <pt x="283" y="767" on="0"/>
        <pt x="300" y="767" on="0"/>
        <pt x="340" y="736" on="0"/>
        <pt x="380" y="681" on="0"/>
        <pt x="380" y="655" on="1"/>
        <pt x="380" y="487" on="1"/>
        <pt x="380" y="464" on="0"/>
        <pt x="298" y="429" on="1"/>
        <pt x="319" y="423" on="0"/>
        <pt x="381" y="346" on="0"/>
        <pt x="381" y="315" on="1"/>
        <pt x="381" y="93" on="1"/>
        <pt x="381" y="85" on="0"/>
        <pt x="162" y="0" on="0"/>
        <pt x="113" y="0" on="0"/>
        <pt x="50" y="86" on="0"/>
        <pt x="50" y="146" on="1"/>
        <pt x="50" y="626" on="1"/>
        <pt x="50" y="680" on="0"/>
        <pt x="9" y="689" on="1"/>
        <pt x="9" y="711" on="1"/>
        <pt x="110" y="768" on="1"/>
        <pt x="132" y="759" on="0"/>
        <pt x="170" y="718" on="0"/>
      </contour>
      <contour>
        <pt x="221" y="92" on="1"/>
        <pt x="240" y="92" on="0"/>
        <pt x="260" y="108" on="1"/>
        <pt x="260" y="263" on="1"/>
        <pt x="260" y="337" on="0"/>
        <pt x="209" y="337" on="1"/>
        <pt x="189" y="337" on="0"/>
        <pt x="170" y="322" on="1"/>
        <pt x="170" y="166" on="1"/>
        <pt x="170" y="92" on="0"/>
      </contour>
      <contour>
        <pt x="260" y="627" on="0"/>
        <pt x="237" y="666" on="0"/>
        <pt x="194" y="666" on="0"/>
        <pt x="170" y="636" on="1"/>
        <pt x="170" y="429" on="1"/>
        <pt x="260" y="454" on="0"/>
        <pt x="260" y="537" on="1"/>
        <pt x="260" y="600" on="1"/>
      </contour>
    </TTGlyph>
    <TTGlyph name="C" xMin="50" yMin="0" xMax="394" yMax="770">
      <contour>
        <pt x="188" y="673" on="1"/>
        <pt x="178" y="673" on="0"/>
        <pt x="170" y="663" on="1"/>
        <pt x="170" y="250" on="1"/>
        <pt x="170" y="208" on="0"/>
        <pt x="180" y="157" on="0"/>
        <pt x="197" y="132" on="1"/>
        <pt x="230" y="84" on="0"/>
        <pt x="348" y="84" on="1"/>
        <pt x="348" y="55" on="1"/>
        <pt x="343" y="55" on="0"/>
        <pt x="205" y="0" on="0"/>
        <pt x="190" y="0" on="1"/>
        <pt x="140" y="0" on="0"/>
        <pt x="50" y="115" on="0"/>
        <pt x="50" y="179" on="1"/>
        <pt x="50" y="678" on="1"/>
        <pt x="50" y="685" on="0"/>
        <pt x="279" y="770" on="0"/>
        <pt x="296" y="770" on="1"/>
        <pt x="302" y="770" on="0"/>
        <pt x="318" y="712" on="0"/>
        <pt x="339" y="630" on="0"/>
        <pt x="362" y="591" on="0"/>
        <pt x="394" y="591" on="1"/>
        <pt x="394" y="571" on="1"/>
        <pt x="372" y="561" on="0"/>
        <pt x="267" y="510" on="0"/>
        <pt x="263" y="510" on="1"/>
        <pt x="248" y="510" on="0"/>
        <pt x="202" y="673" on="0"/>
      </contour>
    </TTGlyph>
    <TTGlyph name="Cacute" xMin="50" yMin="0" xMax="394" yMax="985">
      <contour>
        <pt x="188" y="673" on="1"/>
        <pt x="178" y="673" on="0"/>
        <pt x="170" y="663" on="1"/>
        <pt x="170" y="250" on="1"/>
        <pt x="170" y="208" on="0"/>
        <pt x="180" y="157" on="0"/>
        <pt x="197" y="132" on="1"/>
        <pt x="230" y="84" on="0"/>
        <pt x="348" y="84" on="1"/>
        <pt x="348" y="55" on="1"/>
        <pt x="343" y="55" on="0"/>
        <pt x="205" y="0" on="0"/>
        <pt x="190" y="0" on="1"/>
        <pt x="140" y="0" on="0"/>
        <pt x="50" y="115" on="0"/>
        <pt x="50" y="179" on="1"/>
        <pt x="50" y="678" on="1"/>
        <pt x="50" y="685" on="0"/>
        <pt x="279" y="770" on="0"/>
        <pt x="296" y="770" on="1"/>
        <pt x="302" y="770" on="0"/>
        <pt x="318" y="712" on="0"/>
        <pt x="339" y="630" on="0"/>
        <pt x="362" y="591" on="0"/>
        <pt x="394" y="591" on="1"/>
        <pt x="394" y="571" on="1"/>
        <pt x="372" y="561" on="0"/>
        <pt x="267" y="510" on="0"/>
        <pt x="263" y="510" on="1"/>
        <pt x="248" y="510" on="0"/>
        <pt x="202" y="673" on="0"/>
      </contour>
      <contour>
        <pt x="169" y="975" on="1"/>
        <pt x="175" y="985" on="0"/>
        <pt x="261" y="985" on="0"/>
        <pt x="261" y="966" on="1"/>
        <pt x="261" y="938" on="0"/>
        <pt x="171" y="822" on="1"/>
        <pt x="161" y="810" on="0"/>
        <pt x="136" y="810" on="1"/>
        <pt x="129" y="810" on="0"/>
        <pt x="120" y="842" on="0"/>
        <pt x="120" y="872" on="0"/>
        <pt x="152" y="948" on="0"/>
      </contour>
    </TTGlyph>
    <TTGlyph name="Ccaron" xMin="22" yMin="0" xMax="394" yMax="984">
      <contour>
        <pt x="188" y="673" on="1"/>
        <pt x="178" y="673" on="0"/>
        <pt x="170" y="663" on="1"/>
        <pt x="170" y="250" on="1"/>
        <pt x="170" y="208" on="0"/>
        <pt x="180" y="157" on="0"/>
        <pt x="197" y="132" on="1"/>
        <pt x="230" y="84" on="0"/>
        <pt x="348" y="84" on="1"/>
        <pt x="348" y="55" on="1"/>
        <pt x="343" y="55" on="0"/>
        <pt x="205" y="0" on="0"/>
        <pt x="190" y="0" on="1"/>
        <pt x="140" y="0" on="0"/>
        <pt x="50" y="115" on="0"/>
        <pt x="50" y="179" on="1"/>
        <pt x="50" y="678" on="1"/>
        <pt x="50" y="685" on="0"/>
        <pt x="279" y="770" on="0"/>
        <pt x="296" y="770" on="1"/>
        <pt x="302" y="770" on="0"/>
        <pt x="318" y="712" on="0"/>
        <pt x="339" y="630" on="0"/>
        <pt x="362" y="591" on="0"/>
        <pt x="394" y="591" on="1"/>
        <pt x="394" y="571" on="1"/>
        <pt x="372" y="561" on="0"/>
        <pt x="267" y="510" on="0"/>
        <pt x="263" y="510" on="1"/>
        <pt x="248" y="510" on="0"/>
        <pt x="202" y="673" on="0"/>
      </contour>
      <contour>
        <pt x="245" y="824" on="1"/>
        <pt x="225" y="809" on="0"/>
        <pt x="150" y="809" on="0"/>
        <pt x="135" y="824" on="1"/>
        <pt x="123" y="836" on="0"/>
        <pt x="67" y="888" on="0"/>
        <pt x="53" y="902" on="1"/>
        <pt x="22" y="935" on="0"/>
        <pt x="22" y="952" on="0"/>
        <pt x="25" y="962" on="1"/>
        <pt x="31" y="984" on="0"/>
        <pt x="38" y="984" on="1"/>
        <pt x="50" y="984" on="0"/>
        <pt x="143" y="923" on="0"/>
        <pt x="190" y="885" on="1"/>
        <pt x="237" y="923" on="0"/>
        <pt x="330" y="984" on="0"/>
        <pt x="342" y="984" on="1"/>
        <pt x="349" y="984" on="0"/>
        <pt x="358" y="952" on="0"/>
        <pt x="358" y="932" on="0"/>
        <pt x="276" y="850" on="0"/>
      </contour>
    </TTGlyph>
    <TTGlyph name="Ccedilla" xMin="50" yMin="-169" xMax="394" yMax="770">
      <contour>
        <pt x="188" y="673" on="1"/>
        <pt x="202" y="673" on="0"/>
        <pt x="248" y="510" on="0"/>
        <pt x="263" y="510" on="1"/>
        <pt x="267" y="510" on="0"/>
        <pt x="372" y="561" on="0"/>
        <pt x="394" y="571" on="1"/>
        <pt x="394" y="591" on="1"/>
        <pt x="362" y="591" on="0"/>
        <pt x="339" y="630" on="0"/>
        <pt x="318" y="712" on="0"/>
        <pt x="302" y="770" on="0"/>
        <pt x="296" y="770" on="1"/>
        <pt x="279" y="770" on="0"/>
        <pt x="50" y="685" on="0"/>
        <pt x="50" y="678" on="1"/>
        <pt x="50" y="179" on="1"/>
        <pt x="50" y="115" on="0"/>
        <pt x="140" y="0" on="0"/>
        <pt x="190" y="0" on="1"/>
        <pt x="205" y="0" on="0"/>
        <pt x="343" y="55" on="0"/>
        <pt x="348" y="55" on="1"/>
        <pt x="348" y="84" on="1"/>
        <pt x="230" y="84" on="0"/>
        <pt x="197" y="132" on="1"/>
        <pt x="180" y="157" on="0"/>
        <pt x="170" y="208" on="0"/>
        <pt x="170" y="250" on="1"/>
        <pt x="170" y="663" on="1"/>
        <pt x="178" y="673" on="0"/>
      </contour>
      <contour>
        <pt x="228" y="-83" on="1"/>
        <pt x="170" y="-101" on="1"/>
        <pt x="161" y="-101" on="0"/>
        <pt x="146" y="-64" on="0"/>
        <pt x="146" y="-46" on="1"/>
        <pt x="146" y="-10" on="0"/>
        <pt x="162" y="21" on="1"/>
        <pt x="167" y="32" on="1"/>
        <pt x="233" y="32" on="1"/>
        <pt x="219" y="-20" on="0"/>
        <pt x="219" y="-43" on="0"/>
        <pt x="226" y="-43" on="1"/>
        <pt x="280" y="-27" on="1"/>
        <pt x="290" y="-27" on="0"/>
        <pt x="304" y="-61" on="0"/>
        <pt x="304" y="-85" on="1"/>
        <pt x="304" y="-126" on="1"/>
        <pt x="304" y="-133" on="0"/>
        <pt x="187" y="-169" on="0"/>
        <pt x="179" y="-169" on="1"/>
        <pt x="164" y="-169" on="0"/>
        <pt x="164" y="-148" on="1"/>
        <pt x="164" y="-144" on="0"/>
        <pt x="227" y="-123" on="1"/>
        <pt x="238" y="-119" on="0"/>
        <pt x="238" y="-111" on="1"/>
        <pt x="238" y="-100" on="1"/>
        <pt x="238" y="-83" on="0"/>
      </contour>
    </TTGlyph>
    <TTGlyph name="Ccircumflex" xMin="24" yMin="0" xMax="394" yMax="985">
      <contour>
        <pt x="188" y="673" on="1"/>
        <pt x="178" y="673" on="0"/>
        <pt x="170" y="663" on="1"/>
        <pt x="170" y="250" on="1"/>
        <pt x="170" y="208" on="0"/>
        <pt x="180" y="157" on="0"/>
        <pt x="197" y="132" on="1"/>
        <pt x="230" y="84" on="0"/>
        <pt x="348" y="84" on="1"/>
        <pt x="348" y="55" on="1"/>
        <pt x="343" y="55" on="0"/>
        <pt x="205" y="0" on="0"/>
        <pt x="190" y="0" on="1"/>
        <pt x="140" y="0" on="0"/>
        <pt x="50" y="115" on="0"/>
        <pt x="50" y="179" on="1"/>
        <pt x="50" y="678" on="1"/>
        <pt x="50" y="685" on="0"/>
        <pt x="279" y="770" on="0"/>
        <pt x="296" y="770" on="1"/>
        <pt x="302" y="770" on="0"/>
        <pt x="318" y="712" on="0"/>
        <pt x="339" y="630" on="0"/>
        <pt x="362" y="591" on="0"/>
        <pt x="394" y="591" on="1"/>
        <pt x="394" y="571" on="1"/>
        <pt x="372" y="561" on="0"/>
        <pt x="267" y="510" on="0"/>
        <pt x="263" y="510" on="1"/>
        <pt x="248" y="510" on="0"/>
        <pt x="202" y="673" on="0"/>
      </contour>
      <contour>
        <pt x="278" y="944" on="0"/>
        <pt x="360" y="862" on="0"/>
        <pt x="360" y="842" on="0"/>
        <pt x="357" y="832" on="1"/>
        <pt x="351" y="810" on="0"/>
        <pt x="344" y="810" on="1"/>
        <pt x="332" y="810" on="0"/>
        <pt x="239" y="871" on="0"/>
        <pt x="192" y="909" on="1"/>
        <pt x="145" y="871" on="0"/>
        <pt x="52" y="810" on="0"/>
        <pt x="40" y="810" on="1"/>
        <pt x="33" y="810" on="0"/>
        <pt x="24" y="842" on="0"/>
        <pt x="24" y="857" on="0"/>
        <pt x="41" y="877" on="0"/>
        <pt x="69" y="906" on="0"/>
        <pt x="83" y="919" on="1"/>
        <pt x="125" y="958" on="0"/>
        <pt x="152" y="985" on="0"/>
        <pt x="227" y="985" on="0"/>
        <pt x="247" y="970" on="1"/>
      </contour>
    </TTGlyph>
    <TTGlyph name="Cdotaccent" xMin="50" yMin="0" xMax="394" yMax="970">
      <contour>
        <pt x="188" y="673" on="1"/>
        <pt x="178" y="673" on="0"/>
        <pt x="170" y="663" on="1"/>
        <pt x="170" y="250" on="1"/>
        <pt x="170" y="208" on="0"/>
        <pt x="180" y="157" on="0"/>
        <pt x="197" y="132" on="1"/>
        <pt x="230" y="84" on="0"/>
        <pt x="348" y="84" on="1"/>
        <pt x="348" y="55" on="1"/>
        <pt x="343" y="55" on="0"/>
        <pt x="205" y="0" on="0"/>
        <pt x="190" y="0" on="1"/>
        <pt x="140" y="0" on="0"/>
        <pt x="50" y="115" on="0"/>
        <pt x="50" y="179" on="1"/>
        <pt x="50" y="678" on="1"/>
        <pt x="50" y="685" on="0"/>
        <pt x="279" y="770" on="0"/>
        <pt x="296" y="770" on="1"/>
        <pt x="302" y="770" on="0"/>
        <pt x="318" y="712" on="0"/>
        <pt x="339" y="630" on="0"/>
        <pt x="362" y="591" on="0"/>
        <pt x="394" y="591" on="1"/>
        <pt x="394" y="571" on="1"/>
        <pt x="372" y="561" on="0"/>
        <pt x="267" y="510" on="0"/>
        <pt x="263" y="510" on="1"/>
        <pt x="248" y="510" on="0"/>
        <pt x="202" y="673" on="0"/>
      </contour>
      <contour>
        <pt x="131" y="875" on="1"/>
        <pt x="131" y="936" on="1"/>
        <pt x="131" y="939" on="0"/>
        <pt x="214" y="970" on="0"/>
        <pt x="227" y="970" on="0"/>
        <pt x="252" y="936" on="0"/>
        <pt x="252" y="918" on="1"/>
        <pt x="252" y="845" on="1"/>
        <pt x="252" y="842" on="0"/>
        <pt x="172" y="811" on="0"/>
        <pt x="154" y="811" on="0"/>
        <pt x="131" y="846" on="0"/>
      </contour>
    </TTGlyph>
    <TTGlyph name="D" xMin="9" yMin="0" xMax="381" yMax="770">
      <contour>
        <pt x="381" y="655" on="1"/>
        <pt x="381" y="93" on="1"/>
        <pt x="381" y="85" on="0"/>
        <pt x="162" y="0" on="0"/>
        <pt x="113" y="0" on="0"/>
        <pt x="50" y="86" on="0"/>
        <pt x="50" y="146" on="1"/>
        <pt x="50" y="626" on="1"/>
        <pt x="50" y="680" on="0"/>
        <pt x="9" y="689" on="1"/>
        <pt x="9" y="711" on="1"/>
        <pt x="110" y="768" on="1"/>
        <pt x="132" y="759" on="0"/>
        <pt x="170" y="718" on="0"/>
        <pt x="170" y="700" on="1"/>
        <pt x="294" y="770" on="1"/>
        <pt x="312" y="770" on="0"/>
        <pt x="381" y="688" on="0"/>
      </contour>
      <contour>
        <pt x="221" y="92" on="1"/>
        <pt x="240" y="92" on="0"/>
        <pt x="260" y="108" on="1"/>
        <pt x="260" y="580" on="1"/>
        <pt x="260" y="651" on="0"/>
        <pt x="209" y="651" on="1"/>
        <pt x="189" y="651" on="0"/>
        <pt x="170" y="636" on="1"/>
        <pt x="170" y="166" on="1"/>
        <pt x="170" y="92" on="0"/>
      </contour>
    </TTGlyph>
    <TTGlyph name="Dcaron" xMin="9" yMin="0" xMax="383" yMax="984">
      <contour>
        <pt x="381" y="655" on="1"/>
        <pt x="381" y="93" on="1"/>
        <pt x="381" y="85" on="0"/>
        <pt x="162" y="0" on="0"/>
        <pt x="113" y="0" on="0"/>
        <pt x="50" y="86" on="0"/>
        <pt x="50" y="146" on="1"/>
        <pt x="50" y="626" on="1"/>
        <pt x="50" y="680" on="0"/>
        <pt x="9" y="689" on="1"/>
        <pt x="9" y="711" on="1"/>
        <pt x="110" y="768" on="1"/>
        <pt x="132" y="759" on="0"/>
        <pt x="170" y="718" on="0"/>
        <pt x="170" y="700" on="1"/>
        <pt x="294" y="770" on="1"/>
        <pt x="312" y="770" on="0"/>
        <pt x="381" y="688" on="0"/>
      </contour>
      <contour>
        <pt x="221" y="92" on="1"/>
        <pt x="240" y="92" on="0"/>
        <pt x="260" y="108" on="1"/>
        <pt x="260" y="580" on="1"/>
        <pt x="260" y="651" on="0"/>
        <pt x="209" y="651" on="1"/>
        <pt x="189" y="651" on="0"/>
        <pt x="170" y="636" on="1"/>
        <pt x="170" y="166" on="1"/>
        <pt x="170" y="92" on="0"/>
      </contour>
      <contour>
        <pt x="270" y="824" on="1"/>
        <pt x="250" y="809" on="0"/>
        <pt x="175" y="809" on="0"/>
        <pt x="160" y="824" on="1"/>
        <pt x="148" y="836" on="0"/>
        <pt x="92" y="888" on="0"/>
        <pt x="78" y="902" on="1"/>
        <pt x="47" y="935" on="0"/>
        <pt x="47" y="952" on="0"/>
        <pt x="50" y="962" on="1"/>
        <pt x="56" y="984" on="0"/>
        <pt x="63" y="984" on="1"/>
        <pt x="75" y="984" on="0"/>
        <pt x="168" y="923" on="0"/>
        <pt x="215" y="885" on="1"/>
        <pt x="262" y="923" on="0"/>
        <pt x="355" y="984" on="0"/>
        <pt x="367" y="984" on="1"/>
        <pt x="374" y="984" on="0"/>
        <pt x="383" y="952" on="0"/>
        <pt x="383" y="932" on="0"/>
        <pt x="301" y="850" on="0"/>
      </contour>
    </TTGlyph>
    <TTGlyph name="Dcroat" xMin="-61" yMin="0" xMax="381" yMax="770">
      <contour>
        <pt x="50" y="418" on="1"/>
        <pt x="50" y="626" on="1"/>
        <pt x="50" y="680" on="0"/>
        <pt x="9" y="689" on="1"/>
        <pt x="9" y="711" on="1"/>
        <pt x="110" y="768" on="1"/>
        <pt x="132" y="759" on="0"/>
        <pt x="170" y="718" on="0"/>
        <pt x="170" y="700" on="1"/>
        <pt x="294" y="770" on="1"/>
        <pt x="312" y="770" on="0"/>
        <pt x="381" y="688" on="0"/>
        <pt x="381" y="655" on="1"/>
        <pt x="381" y="93" on="1"/>
        <pt x="381" y="85" on="0"/>
        <pt x="162" y="0" on="0"/>
        <pt x="113" y="0" on="0"/>
        <pt x="50" y="86" on="0"/>
        <pt x="50" y="146" on="1"/>
        <pt x="50" y="349" on="1"/>
        <pt x="-61" y="349" on="1"/>
        <pt x="-61" y="371" on="1"/>
        <pt x="-11" y="418" on="1"/>
      </contour>
      <contour>
        <pt x="221" y="92" on="1"/>
        <pt x="240" y="92" on="0"/>
        <pt x="260" y="108" on="1"/>
        <pt x="260" y="394" on="1"/>
        <pt x="210" y="349" on="1"/>
        <pt x="170" y="349" on="1"/>
        <pt x="170" y="166" on="1"/>
        <pt x="170" y="92" on="0"/>
      </contour>
      <contour>
        <pt x="209" y="651" on="1"/>
        <pt x="189" y="651" on="0"/>
        <pt x="170" y="636" on="1"/>
        <pt x="170" y="418" on="1"/>
        <pt x="260" y="418" on="1"/>
        <pt x="260" y="580" on="1"/>
        <pt x="260" y="651" on="0"/>
      </contour>
    </TTGlyph>
    <TTGlyph name="E" xMin="50" yMin="0" xMax="394" yMax="770">
      <contour>
        <pt x="188" y="673" on="1"/>
        <pt x="178" y="673" on="0"/>
        <pt x="170" y="663" on="1"/>
        <pt x="170" y="399" on="1"/>
        <pt x="311" y="399" on="1"/>
        <pt x="311" y="375" on="1"/>
        <pt x="261" y="350" on="1"/>
        <pt x="170" y="350" on="1"/>
        <pt x="170" y="250" on="1"/>
        <pt x="170" y="139" on="0"/>
        <pt x="192" y="120" on="1"/>
        <pt x="225" y="92" on="0"/>
        <pt x="303" y="84" on="0"/>
        <pt x="348" y="84" on="1"/>
        <pt x="348" y="55" on="1"/>
        <pt x="343" y="55" on="0"/>
        <pt x="205" y="0" on="0"/>
        <pt x="190" y="0" on="1"/>
        <pt x="159" y="0" on="0"/>
        <pt x="50" y="96" on="0"/>
        <pt x="50" y="152" on="1"/>
        <pt x="50" y="678" on="1"/>
        <pt x="50" y="685" on="0"/>
        <pt x="279" y="770" on="0"/>
        <pt x="296" y="770" on="1"/>
        <pt x="302" y="770" on="0"/>
        <pt x="318" y="712" on="0"/>
        <pt x="339" y="630" on="0"/>
        <pt x="362" y="591" on="0"/>
        <pt x="394" y="591" on="1"/>
        <pt x="394" y="571" on="1"/>
        <pt x="372" y="561" on="0"/>
        <pt x="267" y="510" on="0"/>
        <pt x="263" y="510" on="1"/>
        <pt x="248" y="510" on="0"/>
        <pt x="202" y="673" on="0"/>
      </contour>
    </TTGlyph>
    <TTGlyph name="Eacute" xMin="50" yMin="0" xMax="394" yMax="985">
      <contour>
        <pt x="188" y="673" on="1"/>
        <pt x="178" y="673" on="0"/>
        <pt x="170" y="663" on="1"/>
        <pt x="170" y="399" on="1"/>
        <pt x="311" y="399" on="1"/>
        <pt x="311" y="375" on="1"/>
        <pt x="261" y="350" on="1"/>
        <pt x="170" y="350" on="1"/>
        <pt x="170" y="250" on="1"/>
        <pt x="170" y="139" on="0"/>
        <pt x="192" y="120" on="1"/>
        <pt x="225" y="92" on="0"/>
        <pt x="303" y="84" on="0"/>
        <pt x="348" y="84" on="1"/>
        <pt x="348" y="55" on="1"/>
        <pt x="343" y="55" on="0"/>
        <pt x="205" y="0" on="0"/>
        <pt x="190" y="0" on="1"/>
        <pt x="159" y="0" on="0"/>
        <pt x="50" y="96" on="0"/>
        <pt x="50" y="152" on="1"/>
        <pt x="50" y="678" on="1"/>
        <pt x="50" y="685" on="0"/>
        <pt x="279" y="770" on="0"/>
        <pt x="296" y="770" on="1"/>
        <pt x="302" y="770" on="0"/>
        <pt x="318" y="712" on="0"/>
        <pt x="339" y="630" on="0"/>
        <pt x="362" y="591" on="0"/>
        <pt x="394" y="591" on="1"/>
        <pt x="394" y="571" on="1"/>
        <pt x="372" y="561" on="0"/>
        <pt x="267" y="510" on="0"/>
        <pt x="263" y="510" on="1"/>
        <pt x="248" y="510" on="0"/>
        <pt x="202" y="673" on="0"/>
      </contour>
      <contour>
        <pt x="161" y="975" on="1"/>
        <pt x="167" y="985" on="0"/>
        <pt x="253" y="985" on="0"/>
        <pt x="253" y="966" on="1"/>
        <pt x="253" y="938" on="0"/>
        <pt x="163" y="822" on="1"/>
        <pt x="153" y="810" on="0"/>
        <pt x="128" y="810" on="1"/>
        <pt x="121" y="810" on="0"/>
        <pt x="112" y="842" on="0"/>
        <pt x="112" y="872" on="0"/>
        <pt x="144" y="948" on="0"/>
      </contour>
    </TTGlyph>
    <TTGlyph name="Ebreve" xMin="39" yMin="0" xMax="394" yMax="969">
      <contour>
        <pt x="188" y="673" on="1"/>
        <pt x="178" y="673" on="0"/>
        <pt x="170" y="663" on="1"/>
        <pt x="170" y="399" on="1"/>
        <pt x="311" y="399" on="1"/>
        <pt x="311" y="375" on="1"/>
        <pt x="261" y="350" on="1"/>
        <pt x="170" y="350" on="1"/>
        <pt x="170" y="250" on="1"/>
        <pt x="170" y="139" on="0"/>
        <pt x="192" y="120" on="1"/>
        <pt x="225" y="92" on="0"/>
        <pt x="303" y="84" on="0"/>
        <pt x="348" y="84" on="1"/>
        <pt x="348" y="55" on="1"/>
        <pt x="343" y="55" on="0"/>
        <pt x="205" y="0" on="0"/>
        <pt x="190" y="0" on="1"/>
        <pt x="159" y="0" on="0"/>
        <pt x="50" y="96" on="0"/>
        <pt x="50" y="152" on="1"/>
        <pt x="50" y="678" on="1"/>
        <pt x="50" y="685" on="0"/>
        <pt x="279" y="770" on="0"/>
        <pt x="296" y="770" on="1"/>
        <pt x="302" y="770" on="0"/>
        <pt x="318" y="712" on="0"/>
        <pt x="339" y="630" on="0"/>
        <pt x="362" y="591" on="0"/>
        <pt x="394" y="591" on="1"/>
        <pt x="394" y="571" on="1"/>
        <pt x="372" y="561" on="0"/>
        <pt x="267" y="510" on="0"/>
        <pt x="263" y="510" on="1"/>
        <pt x="248" y="510" on="0"/>
        <pt x="202" y="673" on="0"/>
      </contour>
      <contour>
        <pt x="322" y="925" on="1"/>
        <pt x="322" y="889" on="1"/>
        <pt x="322" y="881" on="0"/>
        <pt x="167" y="809" on="0"/>
        <pt x="121" y="809" on="0"/>
        <pt x="39" y="886" on="0"/>
        <pt x="39" y="940" on="1"/>
        <pt x="39" y="943" on="0"/>
        <pt x="100" y="969" on="0"/>
        <pt x="110" y="969" on="0"/>
        <pt x="128" y="941" on="0"/>
        <pt x="132" y="925" on="1"/>
        <pt x="150" y="855" on="1"/>
        <pt x="172" y="855" on="0"/>
        <pt x="212" y="874" on="0"/>
        <pt x="220" y="883" on="1"/>
        <pt x="229" y="892" on="1"/>
        <pt x="229" y="940" on="1"/>
        <pt x="229" y="943" on="0"/>
        <pt x="290" y="969" on="0"/>
        <pt x="301" y="969" on="0"/>
        <pt x="322" y="941" on="0"/>
      </contour>
    </TTGlyph>
    <TTGlyph name="Ecaron" xMin="14" yMin="0" xMax="394" yMax="984">
      <contour>
        <pt x="188" y="673" on="1"/>
        <pt x="178" y="673" on="0"/>
        <pt x="170" y="663" on="1"/>
        <pt x="170" y="399" on="1"/>
        <pt x="311" y="399" on="1"/>
        <pt x="311" y="375" on="1"/>
        <pt x="261" y="350" on="1"/>
        <pt x="170" y="350" on="1"/>
        <pt x="170" y="250" on="1"/>
        <pt x="170" y="139" on="0"/>
        <pt x="192" y="120" on="1"/>
        <pt x="225" y="92" on="0"/>
        <pt x="303" y="84" on="0"/>
        <pt x="348" y="84" on="1"/>
        <pt x="348" y="55" on="1"/>
        <pt x="343" y="55" on="0"/>
        <pt x="205" y="0" on="0"/>
        <pt x="190" y="0" on="1"/>
        <pt x="159" y="0" on="0"/>
        <pt x="50" y="96" on="0"/>
        <pt x="50" y="152" on="1"/>
        <pt x="50" y="678" on="1"/>
        <pt x="50" y="685" on="0"/>
        <pt x="279" y="770" on="0"/>
        <pt x="296" y="770" on="1"/>
        <pt x="302" y="770" on="0"/>
        <pt x="318" y="712" on="0"/>
        <pt x="339" y="630" on="0"/>
        <pt x="362" y="591" on="0"/>
        <pt x="394" y="591" on="1"/>
        <pt x="394" y="571" on="1"/>
        <pt x="372" y="561" on="0"/>
        <pt x="267" y="510" on="0"/>
        <pt x="263" y="510" on="1"/>
        <pt x="248" y="510" on="0"/>
        <pt x="202" y="673" on="0"/>
      </contour>
      <contour>
        <pt x="237" y="824" on="1"/>
        <pt x="217" y="809" on="0"/>
        <pt x="142" y="809" on="0"/>
        <pt x="127" y="824" on="1"/>
        <pt x="115" y="836" on="0"/>
        <pt x="59" y="888" on="0"/>
        <pt x="45" y="902" on="1"/>
        <pt x="14" y="935" on="0"/>
        <pt x="14" y="952" on="0"/>
        <pt x="17" y="962" on="1"/>
        <pt x="23" y="984" on="0"/>
        <pt x="30" y="984" on="1"/>
        <pt x="42" y="984" on="0"/>
        <pt x="135" y="923" on="0"/>
        <pt x="182" y="885" on="1"/>
        <pt x="229" y="923" on="0"/>
        <pt x="322" y="984" on="0"/>
        <pt x="334" y="984" on="1"/>
        <pt x="341" y="984" on="0"/>
        <pt x="350" y="952" on="0"/>
        <pt x="350" y="932" on="0"/>
        <pt x="268" y="850" on="0"/>
      </contour>
    </TTGlyph>
    <TTGlyph name="Ecircumflex" xMin="16" yMin="0" xMax="394" yMax="985">
      <contour>
        <pt x="188" y="673" on="1"/>
        <pt x="178" y="673" on="0"/>
        <pt x="170" y="663" on="1"/>
        <pt x="170" y="399" on="1"/>
        <pt x="311" y="399" on="1"/>
        <pt x="311" y="375" on="1"/>
        <pt x="261" y="350" on="1"/>
        <pt x="170" y="350" on="1"/>
        <pt x="170" y="250" on="1"/>
        <pt x="170" y="139" on="0"/>
        <pt x="192" y="120" on="1"/>
        <pt x="225" y="92" on="0"/>
        <pt x="303" y="84" on="0"/>
        <pt x="348" y="84" on="1"/>
        <pt x="348" y="55" on="1"/>
        <pt x="343" y="55" on="0"/>
        <pt x="205" y="0" on="0"/>
        <pt x="190" y="0" on="1"/>
        <pt x="159" y="0" on="0"/>
        <pt x="50" y="96" on="0"/>
        <pt x="50" y="152" on="1"/>
        <pt x="50" y="678" on="1"/>
        <pt x="50" y="685" on="0"/>
        <pt x="279" y="770" on="0"/>
        <pt x="296" y="770" on="1"/>
        <pt x="302" y="770" on="0"/>
        <pt x="318" y="712" on="0"/>
        <pt x="339" y="630" on="0"/>
        <pt x="362" y="591" on="0"/>
        <pt x="394" y="591" on="1"/>
        <pt x="394" y="571" on="1"/>
        <pt x="372" y="561" on="0"/>
        <pt x="267" y="510" on="0"/>
        <pt x="263" y="510" on="1"/>
        <pt x="248" y="510" on="0"/>
        <pt x="202" y="673" on="0"/>
      </contour>
      <contour>
        <pt x="270" y="944" on="0"/>
        <pt x="352" y="862" on="0"/>
        <pt x="352" y="842" on="0"/>
        <pt x="349" y="832" on="1"/>
        <pt x="343" y="810" on="0"/>
        <pt x="336" y="810" on="1"/>
        <pt x="324" y="810" on="0"/>
        <pt x="231" y="871" on="0"/>
        <pt x="184" y="909" on="1"/>
        <pt x="137" y="871" on="0"/>
        <pt x="44" y="810" on="0"/>
        <pt x="32" y="810" on="1"/>
        <pt x="25" y="810" on="0"/>
        <pt x="16" y="842" on="0"/>
        <pt x="16" y="857" on="0"/>
        <pt x="33" y="877" on="0"/>
        <pt x="61" y="906" on="0"/>
        <pt x="75" y="919" on="1"/>
        <pt x="117" y="958" on="0"/>
        <pt x="144" y="985" on="0"/>
        <pt x="219" y="985" on="0"/>
        <pt x="239" y="970" on="1"/>
      </contour>
    </TTGlyph>
    <TTGlyph name="Edieresis" xMin="24" yMin="0" xMax="394" yMax="952">
      <contour>
        <pt x="188" y="673" on="1"/>
        <pt x="178" y="673" on="0"/>
        <pt x="170" y="663" on="1"/>
        <pt x="170" y="399" on="1"/>
        <pt x="311" y="399" on="1"/>
        <pt x="311" y="375" on="1"/>
        <pt x="261" y="350" on="1"/>
        <pt x="170" y="350" on="1"/>
        <pt x="170" y="250" on="1"/>
        <pt x="170" y="139" on="0"/>
        <pt x="192" y="120" on="1"/>
        <pt x="225" y="92" on="0"/>
        <pt x="303" y="84" on="0"/>
        <pt x="348" y="84" on="1"/>
        <pt x="348" y="55" on="1"/>
        <pt x="343" y="55" on="0"/>
        <pt x="205" y="0" on="0"/>
        <pt x="190" y="0" on="1"/>
        <pt x="159" y="0" on="0"/>
        <pt x="50" y="96" on="0"/>
        <pt x="50" y="152" on="1"/>
        <pt x="50" y="678" on="1"/>
        <pt x="50" y="685" on="0"/>
        <pt x="279" y="770" on="0"/>
        <pt x="296" y="770" on="1"/>
        <pt x="302" y="770" on="0"/>
        <pt x="318" y="712" on="0"/>
        <pt x="339" y="630" on="0"/>
        <pt x="362" y="591" on="0"/>
        <pt x="394" y="591" on="1"/>
        <pt x="394" y="571" on="1"/>
        <pt x="372" y="561" on="0"/>
        <pt x="267" y="510" on="0"/>
        <pt x="263" y="510" on="1"/>
        <pt x="248" y="510" on="0"/>
        <pt x="202" y="673" on="0"/>
      </contour>
      <contour>
        <pt x="24" y="867" on="1"/>
        <pt x="24" y="921" on="1"/>
        <pt x="24" y="924" on="0"/>
        <pt x="99" y="952" on="0"/>
        <pt x="111" y="952" on="0"/>
        <pt x="133" y="922" on="0"/>
        <pt x="133" y="905" on="1"/>
        <pt x="133" y="840" on="1"/>
        <pt x="133" y="837" on="0"/>
        <pt x="62" y="809" on="0"/>
        <pt x="45" y="809" on="0"/>
        <pt x="24" y="841" on="0"/>
      </contour>
      <contour>
        <pt x="231" y="867" on="1"/>
        <pt x="231" y="921" on="1"/>
        <pt x="231" y="924" on="0"/>
        <pt x="306" y="952" on="0"/>
        <pt x="318" y="952" on="0"/>
        <pt x="340" y="922" on="0"/>
        <pt x="340" y="905" on="1"/>
        <pt x="340" y="840" on="1"/>
        <pt x="340" y="837" on="0"/>
        <pt x="269" y="809" on="0"/>
        <pt x="252" y="809" on="0"/>
        <pt x="231" y="841" on="0"/>
      </contour>
    </TTGlyph>
    <TTGlyph name="Edotaccent" xMin="50" yMin="0" xMax="394" yMax="969">
      <contour>
        <pt x="188" y="673" on="1"/>
        <pt x="178" y="673" on="0"/>
        <pt x="170" y="663" on="1"/>
        <pt x="170" y="399" on="1"/>
        <pt x="311" y="399" on="1"/>
        <pt x="311" y="375" on="1"/>
        <pt x="261" y="350" on="1"/>
        <pt x="170" y="350" on="1"/>
        <pt x="170" y="250" on="1"/>
        <pt x="170" y="139" on="0"/>
        <pt x="192" y="120" on="1"/>
        <pt x="225" y="92" on="0"/>
        <pt x="303" y="84" on="0"/>
        <pt x="348" y="84" on="1"/>
        <pt x="348" y="55" on="1"/>
        <pt x="343" y="55" on="0"/>
        <pt x="205" y="0" on="0"/>
        <pt x="190" y="0" on="1"/>
        <pt x="159" y="0" on="0"/>
        <pt x="50" y="96" on="0"/>
        <pt x="50" y="152" on="1"/>
        <pt x="50" y="678" on="1"/>
        <pt x="50" y="685" on="0"/>
        <pt x="279" y="770" on="0"/>
        <pt x="296" y="770" on="1"/>
        <pt x="302" y="770" on="0"/>
        <pt x="318" y="712" on="0"/>
        <pt x="339" y="630" on="0"/>
        <pt x="362" y="591" on="0"/>
        <pt x="394" y="591" on="1"/>
        <pt x="394" y="571" on="1"/>
        <pt x="372" y="561" on="0"/>
        <pt x="267" y="510" on="0"/>
        <pt x="263" y="510" on="1"/>
        <pt x="248" y="510" on="0"/>
        <pt x="202" y="673" on="0"/>
      </contour>
      <contour>
        <pt x="141" y="874" on="1"/>
        <pt x="141" y="935" on="1"/>
        <pt x="141" y="938" on="0"/>
        <pt x="224" y="969" on="0"/>
        <pt x="237" y="969" on="0"/>
        <pt x="262" y="935" on="0"/>
        <pt x="262" y="917" on="1"/>
        <pt x="262" y="844" on="1"/>
        <pt x="262" y="841" on="0"/>
        <pt x="182" y="810" on="0"/>
        <pt x="164" y="810" on="0"/>
        <pt x="141" y="845" on="0"/>
      </contour>
    </TTGlyph>
    <TTGlyph name="Egrave" xMin="50" yMin="0" xMax="394" yMax="985">
      <contour>
        <pt x="188" y="673" on="1"/>
        <pt x="178" y="673" on="0"/>
        <pt x="170" y="663" on="1"/>
        <pt x="170" y="399" on="1"/>
        <pt x="311" y="399" on="1"/>
        <pt x="311" y="375" on="1"/>
        <pt x="261" y="350" on="1"/>
        <pt x="170" y="350" on="1"/>
        <pt x="170" y="250" on="1"/>
        <pt x="170" y="139" on="0"/>
        <pt x="192" y="120" on="1"/>
        <pt x="225" y="92" on="0"/>
        <pt x="303" y="84" on="0"/>
        <pt x="348" y="84" on="1"/>
        <pt x="348" y="55" on="1"/>
        <pt x="343" y="55" on="0"/>
        <pt x="205" y="0" on="0"/>
        <pt x="190" y="0" on="1"/>
        <pt x="159" y="0" on="0"/>
        <pt x="50" y="96" on="0"/>
        <pt x="50" y="152" on="1"/>
        <pt x="50" y="678" on="1"/>
        <pt x="50" y="685" on="0"/>
        <pt x="279" y="770" on="0"/>
        <pt x="296" y="770" on="1"/>
        <pt x="302" y="770" on="0"/>
        <pt x="318" y="712" on="0"/>
        <pt x="339" y="630" on="0"/>
        <pt x="362" y="591" on="0"/>
        <pt x="394" y="591" on="1"/>
        <pt x="394" y="571" on="1"/>
        <pt x="372" y="561" on="0"/>
        <pt x="267" y="510" on="0"/>
        <pt x="263" y="510" on="1"/>
        <pt x="248" y="510" on="0"/>
        <pt x="202" y="673" on="0"/>
      </contour>
      <contour>
        <pt x="218" y="948" on="0"/>
        <pt x="250" y="872" on="0"/>
        <pt x="250" y="842" on="0"/>
        <pt x="247" y="832" on="1"/>
        <pt x="241" y="810" on="0"/>
        <pt x="234" y="810" on="1"/>
        <pt x="209" y="810" on="0"/>
        <pt x="199" y="822" on="1"/>
        <pt x="109" y="938" on="0"/>
        <pt x="109" y="966" on="1"/>
        <pt x="109" y="985" on="0"/>
        <pt x="195" y="985" on="0"/>
        <pt x="201" y="975" on="1"/>
      </contour>
    </TTGlyph>
    <TTGlyph name="Emacron" xMin="27" yMin="0" xMax="394" yMax="878">
      <contour>
        <pt x="188" y="673" on="1"/>
        <pt x="178" y="673" on="0"/>
        <pt x="170" y="663" on="1"/>
        <pt x="170" y="399" on="1"/>
        <pt x="311" y="399" on="1"/>
        <pt x="311" y="375" on="1"/>
        <pt x="261" y="350" on="1"/>
        <pt x="170" y="350" on="1"/>
        <pt x="170" y="250" on="1"/>
        <pt x="170" y="139" on="0"/>
        <pt x="192" y="120" on="1"/>
        <pt x="225" y="92" on="0"/>
        <pt x="303" y="84" on="0"/>
        <pt x="348" y="84" on="1"/>
        <pt x="348" y="55" on="1"/>
        <pt x="343" y="55" on="0"/>
        <pt x="205" y="0" on="0"/>
        <pt x="190" y="0" on="1"/>
        <pt x="159" y="0" on="0"/>
        <pt x="50" y="96" on="0"/>
        <pt x="50" y="152" on="1"/>
        <pt x="50" y="678" on="1"/>
        <pt x="50" y="685" on="0"/>
        <pt x="279" y="770" on="0"/>
        <pt x="296" y="770" on="1"/>
        <pt x="302" y="770" on="0"/>
        <pt x="318" y="712" on="0"/>
        <pt x="339" y="630" on="0"/>
        <pt x="362" y="591" on="0"/>
        <pt x="394" y="591" on="1"/>
        <pt x="394" y="571" on="1"/>
        <pt x="372" y="561" on="0"/>
        <pt x="267" y="510" on="0"/>
        <pt x="263" y="510" on="1"/>
        <pt x="248" y="510" on="0"/>
        <pt x="202" y="673" on="0"/>
      </contour>
      <contour>
        <pt x="348" y="878" on="1"/>
        <pt x="348" y="854" on="1"/>
        <pt x="298" y="809" on="1"/>
        <pt x="27" y="809" on="1"/>
        <pt x="27" y="831" on="1"/>
        <pt x="77" y="878" on="1"/>
      </contour>
    </TTGlyph>
    <TTGlyph name="Eng" xMin="-10" yMin="-180" xMax="380" yMax="771">
      <contour>
        <pt x="380" y="651" on="1"/>
        <pt x="380" y="106" on="1"/>
        <pt x="380" y="28" on="0"/>
        <pt x="362" y="-107" on="0"/>
        <pt x="336" y="-180" on="0"/>
        <pt x="322" y="-180" on="1"/>
        <pt x="297" y="-180" on="0"/>
        <pt x="218" y="-150" on="0"/>
        <pt x="191" y="-135" on="1"/>
        <pt x="164" y="-120" on="1"/>
        <pt x="164" y="-90" on="1"/>
        <pt x="198" y="-90" on="1"/>
        <pt x="233" y="-90" on="0"/>
        <pt x="260" y="2" on="0"/>
        <pt x="260" y="113" on="1"/>
        <pt x="260" y="570" on="1"/>
        <pt x="260" y="624" on="0"/>
        <pt x="221" y="667" on="0"/>
        <pt x="170" y="667" on="1"/>
        <pt x="170" y="154" on="1"/>
        <pt x="170" y="114" on="0"/>
        <pt x="190" y="85" on="0"/>
        <pt x="211" y="85" on="1"/>
        <pt x="211" y="54" on="1"/>
        <pt x="6" y="-32" on="1"/>
        <pt x="-10" y="0" on="1"/>
        <pt x="10" y="0" on="0"/>
        <pt x="29" y="24" on="1"/>
        <pt x="50" y="52" on="0"/>
        <pt x="50" y="114" on="1"/>
        <pt x="50" y="607" on="1"/>
        <pt x="50" y="640" on="0"/>
        <pt x="22" y="688" on="0"/>
        <pt x="1" y="688" on="1"/>
        <pt x="1" y="710" on="1"/>
        <pt x="8" y="711" on="0"/>
        <pt x="110" y="771" on="1"/>
        <pt x="117" y="769" on="0"/>
        <pt x="137" y="762" on="0"/>
        <pt x="170" y="730" on="0"/>
        <pt x="170" y="709" on="1"/>
        <pt x="176" y="712" on="0"/>
        <pt x="204" y="728" on="1"/>
        <pt x="278" y="770" on="0"/>
        <pt x="292" y="770" on="1"/>
        <pt x="324" y="770" on="0"/>
        <pt x="380" y="686" on="0"/>
      </contour>
    </TTGlyph>
    <TTGlyph name="Eogonek" xMin="50" yMin="-150" xMax="394" yMax="770">
      <contour>
        <pt x="188" y="673" on="1"/>
        <pt x="202" y="673" on="0"/>
        <pt x="248" y="510" on="0"/>
        <pt x="263" y="510" on="1"/>
        <pt x="267" y="510" on="0"/>
        <pt x="372" y="561" on="0"/>
        <pt x="394" y="571" on="1"/>
        <pt x="394" y="591" on="1"/>
        <pt x="362" y="591" on="0"/>
        <pt x="339" y="630" on="0"/>
        <pt x="318" y="712" on="0"/>
        <pt x="302" y="770" on="0"/>
        <pt x="296" y="770" on="1"/>
        <pt x="279" y="770" on="0"/>
        <pt x="50" y="685" on="0"/>
        <pt x="50" y="678" on="1"/>
        <pt x="50" y="152" on="1"/>
        <pt x="50" y="96" on="0"/>
        <pt x="159" y="0" on="0"/>
        <pt x="190" y="0" on="1"/>
        <pt x="205" y="0" on="0"/>
        <pt x="343" y="55" on="0"/>
        <pt x="348" y="55" on="1"/>
        <pt x="348" y="84" on="1"/>
        <pt x="303" y="84" on="0"/>
        <pt x="225" y="92" on="0"/>
        <pt x="192" y="120" on="1"/>
        <pt x="170" y="139" on="0"/>
        <pt x="170" y="250" on="1"/>
        <pt x="170" y="250" on="0"/>
        <pt x="170" y="350" on="1"/>
        <pt x="261" y="350" on="1"/>
        <pt x="311" y="375" on="1"/>
        <pt x="311" y="399" on="1"/>
        <pt x="170" y="399" on="1"/>
        <pt x="170" y="663" on="1"/>
        <pt x="178" y="673" on="0"/>
      </contour>
      <contour>
        <pt x="203" y="83" on="1"/>
        <pt x="184" y="30" on="0"/>
        <pt x="184" y="-26" on="0"/>
        <pt x="189" y="-48" on="0"/>
        <pt x="198" y="-64" on="1"/>
        <pt x="217" y="-94" on="0"/>
        <pt x="303" y="-94" on="1"/>
        <pt x="303" y="-112" on="1"/>
        <pt x="214" y="-150" on="0"/>
        <pt x="176" y="-150" on="0"/>
        <pt x="103" y="-103" on="0"/>
        <pt x="103" y="-59" on="1"/>
        <pt x="103" y="-16" on="0"/>
        <pt x="115" y="24" on="1"/>
        <pt x="119" y="38" on="1"/>
      </contour>
    </TTGlyph>
    <TTGlyph name="Eth" xMin="-61" yMin="0" xMax="381" yMax="770">
      <contour>
        <pt x="50" y="418" on="1"/>
        <pt x="50" y="626" on="1"/>
        <pt x="50" y="680" on="0"/>
        <pt x="9" y="689" on="1"/>
        <pt x="9" y="711" on="1"/>
        <pt x="110" y="768" on="1"/>
        <pt x="132" y="759" on="0"/>
        <pt x="170" y="718" on="0"/>
        <pt x="170" y="700" on="1"/>
        <pt x="294" y="770" on="1"/>
        <pt x="312" y="770" on="0"/>
        <pt x="381" y="688" on="0"/>
        <pt x="381" y="655" on="1"/>
        <pt x="381" y="93" on="1"/>
        <pt x="381" y="85" on="0"/>
        <pt x="162" y="0" on="0"/>
        <pt x="113" y="0" on="0"/>
        <pt x="50" y="86" on="0"/>
        <pt x="50" y="146" on="1"/>
        <pt x="50" y="349" on="1"/>
        <pt x="-61" y="349" on="1"/>
        <pt x="-61" y="371" on="1"/>
        <pt x="-11" y="418" on="1"/>
      </contour>
      <contour>
        <pt x="221" y="92" on="1"/>
        <pt x="240" y="92" on="0"/>
        <pt x="260" y="108" on="1"/>
        <pt x="260" y="394" on="1"/>
        <pt x="210" y="349" on="1"/>
        <pt x="170" y="349" on="1"/>
        <pt x="170" y="166" on="1"/>
        <pt x="170" y="92" on="0"/>
      </contour>
      <contour>
        <pt x="209" y="651" on="1"/>
        <pt x="189" y="651" on="0"/>
        <pt x="170" y="636" on="1"/>
        <pt x="170" y="418" on="1"/>
        <pt x="260" y="418" on="1"/>
        <pt x="260" y="580" on="1"/>
        <pt x="260" y="651" on="0"/>
      </contour>
    </TTGlyph>
    <TTGlyph name="Etilde" xMin="16" yMin="0" xMax="394" yMax="924">
      <contour>
        <pt x="188" y="673" on="1"/>
        <pt x="178" y="673" on="0"/>
        <pt x="170" y="663" on="1"/>
        <pt x="170" y="399" on="1"/>
        <pt x="311" y="399" on="1"/>
        <pt x="311" y="375" on="1"/>
        <pt x="261" y="350" on="1"/>
        <pt x="170" y="350" on="1"/>
        <pt x="170" y="250" on="1"/>
        <pt x="170" y="139" on="0"/>
        <pt x="192" y="120" on="1"/>
        <pt x="225" y="92" on="0"/>
        <pt x="303" y="84" on="0"/>
        <pt x="348" y="84" on="1"/>
        <pt x="348" y="55" on="1"/>
        <pt x="343" y="55" on="0"/>
        <pt x="205" y="0" on="0"/>
        <pt x="190" y="0" on="1"/>
        <pt x="159" y="0" on="0"/>
        <pt x="50" y="96" on="0"/>
        <pt x="50" y="152" on="1"/>
        <pt x="50" y="678" on="1"/>
        <pt x="50" y="685" on="0"/>
        <pt x="279" y="770" on="0"/>
        <pt x="296" y="770" on="1"/>
        <pt x="302" y="770" on="0"/>
        <pt x="318" y="712" on="0"/>
        <pt x="339" y="630" on="0"/>
        <pt x="362" y="591" on="0"/>
        <pt x="394" y="591" on="1"/>
        <pt x="394" y="571" on="1"/>
        <pt x="372" y="561" on="0"/>
        <pt x="267" y="510" on="0"/>
        <pt x="263" y="510" on="1"/>
        <pt x="248" y="510" on="0"/>
        <pt x="202" y="673" on="0"/>
      </contour>
      <contour>
        <pt x="278" y="809" on="1"/>
        <pt x="253" y="809" on="0"/>
        <pt x="162" y="838" on="0"/>
        <pt x="114" y="838" on="0"/>
        <pt x="80" y="822" on="0"/>
        <pt x="75" y="811" on="1"/>
        <pt x="54" y="811" on="1"/>
        <pt x="16" y="884" on="1"/>
        <pt x="47" y="924" on="0"/>
        <pt x="111" y="924" on="0"/>
        <pt x="211" y="897" on="0"/>
        <pt x="227" y="897" on="1"/>
        <pt x="277" y="897" on="0"/>
        <pt x="287" y="922" on="1"/>
        <pt x="307" y="922" on="1"/>
        <pt x="346" y="849" on="1"/>
        <pt x="315" y="809" on="0"/>
      </contour>
    </TTGlyph>
    <TTGlyph name="Euro" xMin="-10" yMin="0" xMax="394" yMax="770">
      <contour>
        <pt x="188" y="673" on="1"/>
        <pt x="178" y="673" on="0"/>
        <pt x="170" y="663" on="1"/>
        <pt x="170" y="468" on="1"/>
        <pt x="331" y="468" on="1"/>
        <pt x="331" y="444" on="1"/>
        <pt x="271" y="389" on="1"/>
        <pt x="170" y="389" on="1"/>
        <pt x="170" y="302" on="1"/>
        <pt x="331" y="302" on="1"/>
        <pt x="331" y="278" on="1"/>
        <pt x="271" y="223" on="1"/>
        <pt x="170" y="223" on="1"/>
        <pt x="170" y="180" on="0"/>
        <pt x="180" y="135" on="0"/>
        <pt x="216" y="97" on="0"/>
        <pt x="287" y="84" on="0"/>
        <pt x="348" y="84" on="1"/>
        <pt x="348" y="55" on="1"/>
        <pt x="343" y="55" on="0"/>
        <pt x="205" y="0" on="0"/>
        <pt x="190" y="0" on="1"/>
        <pt x="159" y="0" on="0"/>
        <pt x="50" y="96" on="0"/>
        <pt x="50" y="152" on="1"/>
        <pt x="50" y="223" on="1"/>
        <pt x="-10" y="223" on="1"/>
        <pt x="-10" y="245" on="1"/>
        <pt x="50" y="302" on="1"/>
        <pt x="50" y="389" on="1"/>
        <pt x="-10" y="389" on="1"/>
        <pt x="-10" y="411" on="1"/>
        <pt x="50" y="468" on="1"/>
        <pt x="50" y="678" on="1"/>
        <pt x="50" y="685" on="0"/>
        <pt x="279" y="770" on="0"/>
        <pt x="296" y="770" on="1"/>
        <pt x="302" y="770" on="0"/>
        <pt x="317" y="727" on="0"/>
        <pt x="340" y="660" on="0"/>
        <pt x="362" y="621" on="0"/>
        <pt x="394" y="621" on="1"/>
        <pt x="394" y="601" on="1"/>
        <pt x="372" y="591" on="0"/>
        <pt x="267" y="540" on="0"/>
        <pt x="263" y="540" on="1"/>
        <pt x="248" y="540" on="0"/>
        <pt x="202" y="673" on="0"/>
      </contour>
    </TTGlyph>
    <TTGlyph name="F" xMin="-10" yMin="-32" xMax="394" yMax="770">
      <contour>
        <pt x="188" y="673" on="1"/>
        <pt x="178" y="673" on="0"/>
        <pt x="170" y="663" on="1"/>
        <pt x="170" y="391" on="1"/>
        <pt x="301" y="391" on="1"/>
        <pt x="301" y="367" on="1"/>
        <pt x="251" y="342" on="1"/>
        <pt x="170" y="342" on="1"/>
        <pt x="170" y="154" on="1"/>
        <pt x="170" y="117" on="0"/>
        <pt x="186" y="85" on="0"/>
        <pt x="211" y="85" on="1"/>
        <pt x="211" y="54" on="1"/>
        <pt x="6" y="-32" on="1"/>
        <pt x="-10" y="0" on="1"/>
        <pt x="12" y="0" on="0"/>
        <pt x="32" y="26" on="1"/>
        <pt x="50" y="51" on="0"/>
        <pt x="50" y="102" on="1"/>
        <pt x="50" y="678" on="1"/>
        <pt x="50" y="685" on="0"/>
        <pt x="279" y="770" on="0"/>
        <pt x="296" y="770" on="1"/>
        <pt x="302" y="770" on="0"/>
        <pt x="318" y="712" on="0"/>
        <pt x="339" y="630" on="0"/>
        <pt x="362" y="591" on="0"/>
        <pt x="394" y="591" on="1"/>
        <pt x="394" y="571" on="1"/>
        <pt x="372" y="561" on="0"/>
        <pt x="267" y="510" on="0"/>
        <pt x="263" y="510" on="1"/>
        <pt x="248" y="510" on="0"/>
        <pt x="202" y="673" on="0"/>
      </contour>
    </TTGlyph>
    <TTGlyph name="G" xMin="50" yMin="0" xMax="394" yMax="770">
      <contour>
        <pt x="221" y="92" on="1"/>
        <pt x="240" y="92" on="0"/>
        <pt x="260" y="108" on="1"/>
        <pt x="260" y="237" on="1"/>
        <pt x="260" y="298" on="0"/>
        <pt x="219" y="306" on="1"/>
        <pt x="219" y="328" on="1"/>
        <pt x="320" y="385" on="1"/>
        <pt x="341" y="376" on="0"/>
        <pt x="381" y="335" on="0"/>
        <pt x="381" y="317" on="1"/>
        <pt x="381" y="93" on="1"/>
        <pt x="381" y="85" on="0"/>
        <pt x="162" y="0" on="0"/>
        <pt x="113" y="0" on="0"/>
        <pt x="50" y="86" on="0"/>
        <pt x="50" y="146" on="1"/>
        <pt x="50" y="678" on="1"/>
        <pt x="50" y="685" on="0"/>
        <pt x="279" y="770" on="0"/>
        <pt x="296" y="770" on="1"/>
        <pt x="302" y="770" on="0"/>
        <pt x="318" y="712" on="0"/>
        <pt x="339" y="630" on="0"/>
        <pt x="362" y="591" on="0"/>
        <pt x="394" y="591" on="1"/>
        <pt x="394" y="571" on="1"/>
        <pt x="372" y="561" on="0"/>
        <pt x="267" y="510" on="0"/>
        <pt x="263" y="510" on="1"/>
        <pt x="248" y="510" on="0"/>
        <pt x="202" y="673" on="0"/>
        <pt x="188" y="673" on="1"/>
        <pt x="178" y="673" on="0"/>
        <pt x="170" y="663" on="1"/>
        <pt x="170" y="166" on="1"/>
        <pt x="170" y="92" on="0"/>
      </contour>
    </TTGlyph>
    <TTGlyph name="Gbreve" xMin="45" yMin="0" xMax="394" yMax="969">
      <contour>
        <pt x="221" y="92" on="1"/>
        <pt x="240" y="92" on="0"/>
        <pt x="260" y="108" on="1"/>
        <pt x="260" y="237" on="1"/>
        <pt x="260" y="298" on="0"/>
        <pt x="219" y="306" on="1"/>
        <pt x="219" y="328" on="1"/>
        <pt x="320" y="385" on="1"/>
        <pt x="341" y="376" on="0"/>
        <pt x="381" y="335" on="0"/>
        <pt x="381" y="317" on="1"/>
        <pt x="381" y="93" on="1"/>
        <pt x="381" y="85" on="0"/>
        <pt x="162" y="0" on="0"/>
        <pt x="113" y="0" on="0"/>
        <pt x="50" y="86" on="0"/>
        <pt x="50" y="146" on="1"/>
        <pt x="50" y="678" on="1"/>
        <pt x="50" y="685" on="0"/>
        <pt x="279" y="770" on="0"/>
        <pt x="296" y="770" on="1"/>
        <pt x="302" y="770" on="0"/>
        <pt x="318" y="712" on="0"/>
        <pt x="339" y="630" on="0"/>
        <pt x="362" y="591" on="0"/>
        <pt x="394" y="591" on="1"/>
        <pt x="394" y="571" on="1"/>
        <pt x="372" y="561" on="0"/>
        <pt x="267" y="510" on="0"/>
        <pt x="263" y="510" on="1"/>
        <pt x="248" y="510" on="0"/>
        <pt x="202" y="673" on="0"/>
        <pt x="188" y="673" on="1"/>
        <pt x="178" y="673" on="0"/>
        <pt x="170" y="663" on="1"/>
        <pt x="170" y="166" on="1"/>
        <pt x="170" y="92" on="0"/>
      </contour>
      <contour>
        <pt x="328" y="925" on="1"/>
        <pt x="328" y="889" on="1"/>
        <pt x="328" y="881" on="0"/>
        <pt x="173" y="809" on="0"/>
        <pt x="127" y="809" on="0"/>
        <pt x="45" y="886" on="0"/>
        <pt x="45" y="940" on="1"/>
        <pt x="45" y="943" on="0"/>
        <pt x="106" y="969" on="0"/>
        <pt x="116" y="969" on="0"/>
        <pt x="134" y="941" on="0"/>
        <pt x="138" y="925" on="1"/>
        <pt x="156" y="855" on="1"/>
        <pt x="178" y="855" on="0"/>
        <pt x="218" y="874" on="0"/>
        <pt x="226" y="883" on="1"/>
        <pt x="235" y="892" on="1"/>
        <pt x="235" y="940" on="1"/>
        <pt x="235" y="943" on="0"/>
        <pt x="296" y="969" on="0"/>
        <pt x="307" y="969" on="0"/>
        <pt x="328" y="941" on="0"/>
      </contour>
    </TTGlyph>
    <TTGlyph name="Gcircumflex" xMin="22" yMin="0" xMax="394" yMax="985">
      <contour>
        <pt x="221" y="92" on="1"/>
        <pt x="240" y="92" on="0"/>
        <pt x="260" y="108" on="1"/>
        <pt x="260" y="237" on="1"/>
        <pt x="260" y="298" on="0"/>
        <pt x="219" y="306" on="1"/>
        <pt x="219" y="328" on="1"/>
        <pt x="320" y="385" on="1"/>
        <pt x="341" y="376" on="0"/>
        <pt x="381" y="335" on="0"/>
        <pt x="381" y="317" on="1"/>
        <pt x="381" y="93" on="1"/>
        <pt x="381" y="85" on="0"/>
        <pt x="162" y="0" on="0"/>
        <pt x="113" y="0" on="0"/>
        <pt x="50" y="86" on="0"/>
        <pt x="50" y="146" on="1"/>
        <pt x="50" y="678" on="1"/>
        <pt x="50" y="685" on="0"/>
        <pt x="279" y="770" on="0"/>
        <pt x="296" y="770" on="1"/>
        <pt x="302" y="770" on="0"/>
        <pt x="318" y="712" on="0"/>
        <pt x="339" y="630" on="0"/>
        <pt x="362" y="591" on="0"/>
        <pt x="394" y="591" on="1"/>
        <pt x="394" y="571" on="1"/>
        <pt x="372" y="561" on="0"/>
        <pt x="267" y="510" on="0"/>
        <pt x="263" y="510" on="1"/>
        <pt x="248" y="510" on="0"/>
        <pt x="202" y="673" on="0"/>
        <pt x="188" y="673" on="1"/>
        <pt x="178" y="673" on="0"/>
        <pt x="170" y="663" on="1"/>
        <pt x="170" y="166" on="1"/>
        <pt x="170" y="92" on="0"/>
      </contour>
      <contour>
        <pt x="276" y="944" on="0"/>
        <pt x="358" y="862" on="0"/>
        <pt x="358" y="842" on="0"/>
        <pt x="355" y="832" on="1"/>
        <pt x="349" y="810" on="0"/>
        <pt x="342" y="810" on="1"/>
        <pt x="330" y="810" on="0"/>
        <pt x="237" y="871" on="0"/>
        <pt x="190" y="909" on="1"/>
        <pt x="143" y="871" on="0"/>
        <pt x="50" y="810" on="0"/>
        <pt x="38" y="810" on="1"/>
        <pt x="31" y="810" on="0"/>
        <pt x="22" y="842" on="0"/>
        <pt x="22" y="857" on="0"/>
        <pt x="39" y="877" on="0"/>
        <pt x="67" y="906" on="0"/>
        <pt x="81" y="919" on="1"/>
        <pt x="123" y="958" on="0"/>
        <pt x="150" y="985" on="0"/>
        <pt x="225" y="985" on="0"/>
        <pt x="245" y="970" on="1"/>
      </contour>
    </TTGlyph>
    <TTGlyph name="Gcommaaccent" xMin="50" yMin="-259" xMax="394" yMax="770">
      <contour>
        <pt x="165" y="-85" on="1"/>
        <pt x="165" y="-44" on="1"/>
        <pt x="165" y="-41" on="0"/>
        <pt x="248" y="-10" on="0"/>
        <pt x="261" y="-10" on="0"/>
        <pt x="286" y="-44" on="0"/>
        <pt x="286" y="-62" on="1"/>
        <pt x="286" y="-115" on="1"/>
        <pt x="286" y="-140" on="0"/>
        <pt x="239" y="-235" on="0"/>
        <pt x="198" y="-259" on="1"/>
        <pt x="153" y="-217" on="1"/>
        <pt x="187" y="-203" on="0"/>
        <pt x="187" y="-153" on="1"/>
        <pt x="187" y="-149" on="0"/>
        <pt x="165" y="-111" on="0"/>
      </contour>
      <contour>
        <pt x="221" y="92" on="1"/>
        <pt x="240" y="92" on="0"/>
        <pt x="260" y="108" on="1"/>
        <pt x="260" y="237" on="1"/>
        <pt x="260" y="298" on="0"/>
        <pt x="219" y="306" on="1"/>
        <pt x="219" y="328" on="1"/>
        <pt x="320" y="385" on="1"/>
        <pt x="341" y="376" on="0"/>
        <pt x="381" y="335" on="0"/>
        <pt x="381" y="317" on="1"/>
        <pt x="381" y="93" on="1"/>
        <pt x="381" y="85" on="0"/>
        <pt x="162" y="0" on="0"/>
        <pt x="113" y="0" on="0"/>
        <pt x="50" y="86" on="0"/>
        <pt x="50" y="146" on="1"/>
        <pt x="50" y="678" on="1"/>
        <pt x="50" y="685" on="0"/>
        <pt x="279" y="770" on="0"/>
        <pt x="296" y="770" on="1"/>
        <pt x="302" y="770" on="0"/>
        <pt x="318" y="712" on="0"/>
        <pt x="339" y="630" on="0"/>
        <pt x="362" y="591" on="0"/>
        <pt x="394" y="591" on="1"/>
        <pt x="394" y="571" on="1"/>
        <pt x="372" y="561" on="0"/>
        <pt x="267" y="510" on="0"/>
        <pt x="263" y="510" on="1"/>
        <pt x="248" y="510" on="0"/>
        <pt x="202" y="673" on="0"/>
        <pt x="188" y="673" on="1"/>
        <pt x="178" y="673" on="0"/>
        <pt x="170" y="663" on="1"/>
        <pt x="170" y="166" on="1"/>
        <pt x="170" y="92" on="0"/>
      </contour>
    </TTGlyph>
    <TTGlyph name="Gdotaccent" xMin="50" yMin="0" xMax="394" yMax="970">
      <contour>
        <pt x="221" y="92" on="1"/>
        <pt x="240" y="92" on="0"/>
        <pt x="260" y="108" on="1"/>
        <pt x="260" y="237" on="1"/>
        <pt x="260" y="298" on="0"/>
        <pt x="219" y="306" on="1"/>
        <pt x="219" y="328" on="1"/>
        <pt x="320" y="385" on="1"/>
        <pt x="341" y="376" on="0"/>
        <pt x="381" y="335" on="0"/>
        <pt x="381" y="317" on="1"/>
        <pt x="381" y="93" on="1"/>
        <pt x="381" y="85" on="0"/>
        <pt x="162" y="0" on="0"/>
        <pt x="113" y="0" on="0"/>
        <pt x="50" y="86" on="0"/>
        <pt x="50" y="146" on="1"/>
        <pt x="50" y="678" on="1"/>
        <pt x="50" y="685" on="0"/>
        <pt x="279" y="770" on="0"/>
        <pt x="296" y="770" on="1"/>
        <pt x="302" y="770" on="0"/>
        <pt x="318" y="712" on="0"/>
        <pt x="339" y="630" on="0"/>
        <pt x="362" y="591" on="0"/>
        <pt x="394" y="591" on="1"/>
        <pt x="394" y="571" on="1"/>
        <pt x="372" y="561" on="0"/>
        <pt x="267" y="510" on="0"/>
        <pt x="263" y="510" on="1"/>
        <pt x="248" y="510" on="0"/>
        <pt x="202" y="673" on="0"/>
        <pt x="188" y="673" on="1"/>
        <pt x="178" y="673" on="0"/>
        <pt x="170" y="663" on="1"/>
        <pt x="170" y="166" on="1"/>
        <pt x="170" y="92" on="0"/>
      </contour>
      <contour>
        <pt x="130" y="875" on="1"/>
        <pt x="130" y="936" on="1"/>
        <pt x="130" y="939" on="0"/>
        <pt x="213" y="970" on="0"/>
        <pt x="226" y="970" on="0"/>
        <pt x="251" y="936" on="0"/>
        <pt x="251" y="918" on="1"/>
        <pt x="251" y="845" on="1"/>
        <pt x="251" y="842" on="0"/>
        <pt x="171" y="811" on="0"/>
        <pt x="153" y="811" on="0"/>
        <pt x="130" y="846" on="0"/>
      </contour>
    </TTGlyph>
    <TTGlyph name="H" xMin="-10" yMin="-32" xMax="440" yMax="771">
      <contour>
        <pt x="260" y="409" on="1"/>
        <pt x="260" y="585" on="1"/>
        <pt x="260" y="622" on="0"/>
        <pt x="244" y="654" on="0"/>
        <pt x="219" y="654" on="1"/>
        <pt x="219" y="685" on="1"/>
        <pt x="424" y="771" on="1"/>
        <pt x="440" y="739" on="1"/>
        <pt x="418" y="739" on="0"/>
        <pt x="398" y="713" on="1"/>
        <pt x="380" y="688" on="0"/>
        <pt x="380" y="637" on="1"/>
        <pt x="380" y="409" on="1"/>
        <pt x="430" y="409" on="1"/>
        <pt x="430" y="385" on="1"/>
        <pt x="380" y="360" on="1"/>
        <pt x="380" y="148" on="1"/>
        <pt x="380" y="87" on="0"/>
        <pt x="421" y="79" on="1"/>
        <pt x="421" y="57" on="1"/>
        <pt x="320" y="0" on="1"/>
        <pt x="298" y="9" on="0"/>
        <pt x="260" y="50" on="0"/>
        <pt x="260" y="68" on="1"/>
        <pt x="260" y="360" on="1"/>
        <pt x="170" y="360" on="1"/>
        <pt x="170" y="154" on="1"/>
        <pt x="170" y="117" on="0"/>
        <pt x="186" y="85" on="0"/>
        <pt x="211" y="85" on="1"/>
        <pt x="211" y="54" on="1"/>
        <pt x="6" y="-32" on="1"/>
        <pt x="-10" y="0" on="1"/>
        <pt x="12" y="0" on="0"/>
        <pt x="32" y="26" on="1"/>
        <pt x="50" y="51" on="0"/>
        <pt x="50" y="102" on="1"/>
        <pt x="50" y="622" on="1"/>
        <pt x="50" y="683" on="0"/>
        <pt x="9" y="691" on="1"/>
        <pt x="9" y="713" on="1"/>
        <pt x="110" y="770" on="1"/>
        <pt x="132" y="761" on="0"/>
        <pt x="170" y="720" on="0"/>
        <pt x="170" y="702" on="1"/>
        <pt x="170" y="382" on="1"/>
        <pt x="220" y="409" on="1"/>
      </contour>
    </TTGlyph>
    <TTGlyph name="Hbar" xMin="-10" yMin="-32" xMax="440" yMax="771">
      <contour>
        <pt x="430" y="571" on="1"/>
        <pt x="430" y="547" on="1"/>
        <pt x="380" y="502" on="1"/>
        <pt x="0" y="502" on="1"/>
        <pt x="0" y="524" on="1"/>
        <pt x="50" y="571" on="1"/>
      </contour>
      <contour>
        <pt x="260" y="409" on="1"/>
        <pt x="260" y="585" on="1"/>
        <pt x="260" y="622" on="0"/>
        <pt x="244" y="654" on="0"/>
        <pt x="219" y="654" on="1"/>
        <pt x="219" y="685" on="1"/>
        <pt x="424" y="771" on="1"/>
        <pt x="440" y="739" on="1"/>
        <pt x="418" y="739" on="0"/>
        <pt x="398" y="713" on="1"/>
        <pt x="380" y="688" on="0"/>
        <pt x="380" y="637" on="1"/>
        <pt x="380" y="409" on="1"/>
        <pt x="430" y="409" on="1"/>
        <pt x="430" y="385" on="1"/>
        <pt x="380" y="360" on="1"/>
        <pt x="380" y="148" on="1"/>
        <pt x="380" y="87" on="0"/>
        <pt x="421" y="79" on="1"/>
        <pt x="421" y="57" on="1"/>
        <pt x="320" y="0" on="1"/>
        <pt x="298" y="9" on="0"/>
        <pt x="260" y="50" on="0"/>
        <pt x="260" y="68" on="1"/>
        <pt x="260" y="360" on="1"/>
        <pt x="170" y="360" on="1"/>
        <pt x="170" y="154" on="1"/>
        <pt x="170" y="117" on="0"/>
        <pt x="186" y="85" on="0"/>
        <pt x="211" y="85" on="1"/>
        <pt x="211" y="54" on="1"/>
        <pt x="6" y="-32" on="1"/>
        <pt x="-10" y="0" on="1"/>
        <pt x="12" y="0" on="0"/>
        <pt x="32" y="26" on="1"/>
        <pt x="50" y="51" on="0"/>
        <pt x="50" y="102" on="1"/>
        <pt x="50" y="622" on="1"/>
        <pt x="50" y="683" on="0"/>
        <pt x="9" y="691" on="1"/>
        <pt x="9" y="713" on="1"/>
        <pt x="110" y="770" on="1"/>
        <pt x="132" y="761" on="0"/>
        <pt x="170" y="720" on="0"/>
        <pt x="170" y="702" on="1"/>
        <pt x="170" y="382" on="1"/>
        <pt x="220" y="409" on="1"/>
      </contour>
    </TTGlyph>
    <TTGlyph name="Hcircumflex" xMin="-10" yMin="-32" xMax="440" yMax="985">
      <contour>
        <pt x="260" y="409" on="1"/>
        <pt x="260" y="585" on="1"/>
        <pt x="260" y="622" on="0"/>
        <pt x="244" y="654" on="0"/>
        <pt x="219" y="654" on="1"/>
        <pt x="219" y="685" on="1"/>
        <pt x="424" y="771" on="1"/>
        <pt x="440" y="739" on="1"/>
        <pt x="418" y="739" on="0"/>
        <pt x="398" y="713" on="1"/>
        <pt x="380" y="688" on="0"/>
        <pt x="380" y="637" on="1"/>
        <pt x="380" y="409" on="1"/>
        <pt x="430" y="409" on="1"/>
        <pt x="430" y="385" on="1"/>
        <pt x="380" y="360" on="1"/>
        <pt x="380" y="148" on="1"/>
        <pt x="380" y="87" on="0"/>
        <pt x="421" y="79" on="1"/>
        <pt x="421" y="57" on="1"/>
        <pt x="320" y="0" on="1"/>
        <pt x="298" y="9" on="0"/>
        <pt x="260" y="50" on="0"/>
        <pt x="260" y="68" on="1"/>
        <pt x="260" y="360" on="1"/>
        <pt x="170" y="360" on="1"/>
        <pt x="170" y="154" on="1"/>
        <pt x="170" y="117" on="0"/>
        <pt x="186" y="85" on="0"/>
        <pt x="211" y="85" on="1"/>
        <pt x="211" y="54" on="1"/>
        <pt x="6" y="-32" on="1"/>
        <pt x="-10" y="0" on="1"/>
        <pt x="12" y="0" on="0"/>
        <pt x="32" y="26" on="1"/>
        <pt x="50" y="51" on="0"/>
        <pt x="50" y="102" on="1"/>
        <pt x="50" y="622" on="1"/>
        <pt x="50" y="683" on="0"/>
        <pt x="9" y="691" on="1"/>
        <pt x="9" y="713" on="1"/>
        <pt x="110" y="770" on="1"/>
        <pt x="132" y="761" on="0"/>
        <pt x="170" y="720" on="0"/>
        <pt x="170" y="702" on="1"/>
        <pt x="170" y="382" on="1"/>
        <pt x="220" y="409" on="1"/>
      </contour>
      <contour>
        <pt x="302" y="944" on="0"/>
        <pt x="384" y="862" on="0"/>
        <pt x="384" y="842" on="0"/>
        <pt x="381" y="832" on="1"/>
        <pt x="375" y="810" on="0"/>
        <pt x="368" y="810" on="1"/>
        <pt x="356" y="810" on="0"/>
        <pt x="263" y="871" on="0"/>
        <pt x="216" y="909" on="1"/>
        <pt x="169" y="871" on="0"/>
        <pt x="76" y="810" on="0"/>
        <pt x="64" y="810" on="1"/>
        <pt x="57" y="810" on="0"/>
        <pt x="48" y="842" on="0"/>
        <pt x="48" y="857" on="0"/>
        <pt x="65" y="877" on="0"/>
        <pt x="93" y="906" on="0"/>
        <pt x="107" y="919" on="1"/>
        <pt x="149" y="958" on="0"/>
        <pt x="176" y="985" on="0"/>
        <pt x="251" y="985" on="0"/>
        <pt x="271" y="970" on="1"/>
      </contour>
    </TTGlyph>
    <TTGlyph name="I" xMin="-10" yMin="0" xMax="230" yMax="771">
      <contour>
        <pt x="50" y="128" on="1"/>
        <pt x="50" y="585" on="1"/>
        <pt x="50" y="622" on="0"/>
        <pt x="34" y="654" on="0"/>
        <pt x="9" y="654" on="1"/>
        <pt x="9" y="685" on="1"/>
        <pt x="214" y="771" on="1"/>
        <pt x="230" y="739" on="1"/>
        <pt x="208" y="739" on="0"/>
        <pt x="188" y="713" on="1"/>
        <pt x="170" y="688" on="0"/>
        <pt x="170" y="637" on="1"/>
        <pt x="170" y="167" on="1"/>
        <pt x="170" y="140" on="0"/>
        <pt x="188" y="117" on="0"/>
        <pt x="210" y="117" on="1"/>
        <pt x="210" y="89" on="1"/>
        <pt x="7" y="0" on="0"/>
        <pt x="6" y="0" on="1"/>
        <pt x="-10" y="32" on="1"/>
        <pt x="-2" y="32" on="0"/>
        <pt x="21" y="46" on="0"/>
        <pt x="29" y="55" on="1"/>
        <pt x="50" y="79" on="0"/>
      </contour>
    </TTGlyph>
    <TTGlyph name="IJ" xMin="-10" yMin="-180" xMax="418" yMax="771">
      <contour>
        <pt x="50" y="128" on="1"/>
        <pt x="50" y="585" on="1"/>
        <pt x="50" y="622" on="0"/>
        <pt x="34" y="654" on="0"/>
        <pt x="9" y="654" on="1"/>
        <pt x="9" y="685" on="1"/>
        <pt x="214" y="771" on="1"/>
        <pt x="230" y="739" on="1"/>
        <pt x="208" y="739" on="0"/>
        <pt x="188" y="713" on="1"/>
        <pt x="170" y="688" on="0"/>
        <pt x="170" y="637" on="1"/>
        <pt x="170" y="167" on="1"/>
        <pt x="170" y="140" on="0"/>
        <pt x="188" y="117" on="0"/>
        <pt x="210" y="117" on="1"/>
        <pt x="210" y="89" on="1"/>
        <pt x="7" y="0" on="0"/>
        <pt x="6" y="0" on="1"/>
        <pt x="-10" y="32" on="1"/>
        <pt x="-2" y="32" on="0"/>
        <pt x="21" y="46" on="0"/>
        <pt x="29" y="55" on="1"/>
        <pt x="50" y="79" on="0"/>
      </contour>
      <contour>
        <pt x="258" y="113" on="1"/>
        <pt x="258" y="574" on="1"/>
        <pt x="258" y="614" on="0"/>
        <pt x="170" y="614" on="1"/>
        <pt x="170" y="642" on="1"/>
        <pt x="300" y="710" on="0"/>
        <pt x="402" y="770" on="1"/>
        <pt x="418" y="738" on="1"/>
        <pt x="414" y="736" on="0"/>
        <pt x="400" y="725" on="0"/>
        <pt x="378" y="670" on="0"/>
        <pt x="378" y="630" on="1"/>
        <pt x="378" y="106" on="1"/>
        <pt x="378" y="28" on="0"/>
        <pt x="360" y="-107" on="0"/>
        <pt x="334" y="-180" on="0"/>
        <pt x="320" y="-180" on="1"/>
        <pt x="295" y="-180" on="0"/>
        <pt x="216" y="-150" on="0"/>
        <pt x="189" y="-135" on="1"/>
        <pt x="162" y="-120" on="1"/>
        <pt x="162" y="-90" on="1"/>
        <pt x="196" y="-90" on="1"/>
        <pt x="231" y="-90" on="0"/>
        <pt x="258" y="2" on="0"/>
      </contour>
    </TTGlyph>
    <TTGlyph name="Iacute" xMin="-10" yMin="0" xMax="230" yMax="985">
      <contour>
        <pt x="50" y="128" on="1"/>
        <pt x="50" y="585" on="1"/>
        <pt x="50" y="622" on="0"/>
        <pt x="34" y="654" on="0"/>
        <pt x="9" y="654" on="1"/>
        <pt x="9" y="685" on="1"/>
        <pt x="214" y="771" on="1"/>
        <pt x="230" y="739" on="1"/>
        <pt x="208" y="739" on="0"/>
        <pt x="188" y="713" on="1"/>
        <pt x="170" y="688" on="0"/>
        <pt x="170" y="637" on="1"/>
        <pt x="170" y="167" on="1"/>
        <pt x="170" y="140" on="0"/>
        <pt x="188" y="117" on="0"/>
        <pt x="210" y="117" on="1"/>
        <pt x="210" y="89" on="1"/>
        <pt x="7" y="0" on="0"/>
        <pt x="6" y="0" on="1"/>
        <pt x="-10" y="32" on="1"/>
        <pt x="-2" y="32" on="0"/>
        <pt x="21" y="46" on="0"/>
        <pt x="29" y="55" on="1"/>
        <pt x="50" y="79" on="0"/>
      </contour>
      <contour>
        <pt x="89" y="975" on="1"/>
        <pt x="95" y="985" on="0"/>
        <pt x="181" y="985" on="0"/>
        <pt x="181" y="966" on="1"/>
        <pt x="181" y="938" on="0"/>
        <pt x="91" y="822" on="1"/>
        <pt x="81" y="810" on="0"/>
        <pt x="56" y="810" on="1"/>
        <pt x="49" y="810" on="0"/>
        <pt x="40" y="842" on="0"/>
        <pt x="40" y="872" on="0"/>
        <pt x="72" y="948" on="0"/>
      </contour>
    </TTGlyph>
    <TTGlyph name="Ibreve" xMin="-33" yMin="0" xMax="250" yMax="969">
      <contour>
        <pt x="50" y="128" on="1"/>
        <pt x="50" y="585" on="1"/>
        <pt x="50" y="622" on="0"/>
        <pt x="34" y="654" on="0"/>
        <pt x="9" y="654" on="1"/>
        <pt x="9" y="685" on="1"/>
        <pt x="214" y="771" on="1"/>
        <pt x="230" y="739" on="1"/>
        <pt x="208" y="739" on="0"/>
        <pt x="188" y="713" on="1"/>
        <pt x="170" y="688" on="0"/>
        <pt x="170" y="637" on="1"/>
        <pt x="170" y="167" on="1"/>
        <pt x="170" y="140" on="0"/>
        <pt x="188" y="117" on="0"/>
        <pt x="210" y="117" on="1"/>
        <pt x="210" y="89" on="1"/>
        <pt x="7" y="0" on="0"/>
        <pt x="6" y="0" on="1"/>
        <pt x="-10" y="32" on="1"/>
        <pt x="-2" y="32" on="0"/>
        <pt x="21" y="46" on="0"/>
        <pt x="29" y="55" on="1"/>
        <pt x="50" y="79" on="0"/>
      </contour>
      <contour>
        <pt x="250" y="925" on="1"/>
        <pt x="250" y="889" on="1"/>
        <pt x="250" y="881" on="0"/>
        <pt x="95" y="809" on="0"/>
        <pt x="49" y="809" on="0"/>
        <pt x="-33" y="886" on="0"/>
        <pt x="-33" y="940" on="1"/>
        <pt x="-33" y="943" on="0"/>
        <pt x="28" y="969" on="0"/>
        <pt x="38" y="969" on="0"/>
        <pt x="56" y="941" on="0"/>
        <pt x="60" y="925" on="1"/>
        <pt x="78" y="855" on="1"/>
        <pt x="100" y="855" on="0"/>
        <pt x="140" y="874" on="0"/>
        <pt x="148" y="883" on="1"/>
        <pt x="157" y="892" on="1"/>
        <pt x="157" y="940" on="1"/>
        <pt x="157" y="943" on="0"/>
        <pt x="218" y="969" on="0"/>
        <pt x="229" y="969" on="0"/>
        <pt x="250" y="941" on="0"/>
      </contour>
    </TTGlyph>
    <TTGlyph name="Icircumflex" xMin="-56" yMin="0" xMax="280" yMax="985">
      <contour>
        <pt x="50" y="128" on="1"/>
        <pt x="50" y="585" on="1"/>
        <pt x="50" y="622" on="0"/>
        <pt x="34" y="654" on="0"/>
        <pt x="9" y="654" on="1"/>
        <pt x="9" y="685" on="1"/>
        <pt x="214" y="771" on="1"/>
        <pt x="230" y="739" on="1"/>
        <pt x="208" y="739" on="0"/>
        <pt x="188" y="713" on="1"/>
        <pt x="170" y="688" on="0"/>
        <pt x="170" y="637" on="1"/>
        <pt x="170" y="167" on="1"/>
        <pt x="170" y="140" on="0"/>
        <pt x="188" y="117" on="0"/>
        <pt x="210" y="117" on="1"/>
        <pt x="210" y="89" on="1"/>
        <pt x="7" y="0" on="0"/>
        <pt x="6" y="0" on="1"/>
        <pt x="-10" y="32" on="1"/>
        <pt x="-2" y="32" on="0"/>
        <pt x="21" y="46" on="0"/>
        <pt x="29" y="55" on="1"/>
        <pt x="50" y="79" on="0"/>
      </contour>
      <contour>
        <pt x="198" y="944" on="0"/>
        <pt x="280" y="862" on="0"/>
        <pt x="280" y="842" on="0"/>
        <pt x="277" y="832" on="1"/>
        <pt x="271" y="810" on="0"/>
        <pt x="264" y="810" on="1"/>
        <pt x="252" y="810" on="0"/>
        <pt x="159" y="871" on="0"/>
        <pt x="112" y="909" on="1"/>
        <pt x="65" y="871" on="0"/>
        <pt x="-28" y="810" on="0"/>
        <pt x="-40" y="810" on="1"/>
        <pt x="-47" y="810" on="0"/>
        <pt x="-56" y="842" on="0"/>
        <pt x="-56" y="857" on="0"/>
        <pt x="-39" y="877" on="0"/>
        <pt x="-11" y="906" on="0"/>
        <pt x="3" y="919" on="1"/>
        <pt x="45" y="958" on="0"/>
        <pt x="72" y="985" on="0"/>
        <pt x="147" y="985" on="0"/>
        <pt x="167" y="970" on="1"/>
      </contour>
    </TTGlyph>
    <TTGlyph name="Idieresis" xMin="-48" yMin="0" xMax="268" yMax="952">
      <contour>
        <pt x="50" y="128" on="1"/>
        <pt x="50" y="585" on="1"/>
        <pt x="50" y="622" on="0"/>
        <pt x="34" y="654" on="0"/>
        <pt x="9" y="654" on="1"/>
        <pt x="9" y="685" on="1"/>
        <pt x="214" y="771" on="1"/>
        <pt x="230" y="739" on="1"/>
        <pt x="208" y="739" on="0"/>
        <pt x="188" y="713" on="1"/>
        <pt x="170" y="688" on="0"/>
        <pt x="170" y="637" on="1"/>
        <pt x="170" y="167" on="1"/>
        <pt x="170" y="140" on="0"/>
        <pt x="188" y="117" on="0"/>
        <pt x="210" y="117" on="1"/>
        <pt x="210" y="89" on="1"/>
        <pt x="7" y="0" on="0"/>
        <pt x="6" y="0" on="1"/>
        <pt x="-10" y="32" on="1"/>
        <pt x="-2" y="32" on="0"/>
        <pt x="21" y="46" on="0"/>
        <pt x="29" y="55" on="1"/>
        <pt x="50" y="79" on="0"/>
      </contour>
      <contour>
        <pt x="-48" y="867" on="1"/>
        <pt x="-48" y="921" on="1"/>
        <pt x="-48" y="924" on="0"/>
        <pt x="27" y="952" on="0"/>
        <pt x="39" y="952" on="0"/>
        <pt x="61" y="922" on="0"/>
        <pt x="61" y="905" on="1"/>
        <pt x="61" y="840" on="1"/>
        <pt x="61" y="837" on="0"/>
        <pt x="-10" y="809" on="0"/>
        <pt x="-27" y="809" on="0"/>
        <pt x="-48" y="841" on="0"/>
      </contour>
      <contour>
        <pt x="159" y="867" on="1"/>
        <pt x="159" y="921" on="1"/>
        <pt x="159" y="924" on="0"/>
        <pt x="234" y="952" on="0"/>
        <pt x="246" y="952" on="0"/>
        <pt x="268" y="922" on="0"/>
        <pt x="268" y="905" on="1"/>
        <pt x="268" y="840" on="1"/>
        <pt x="268" y="837" on="0"/>
        <pt x="197" y="809" on="0"/>
        <pt x="180" y="809" on="0"/>
        <pt x="159" y="841" on="0"/>
      </contour>
    </TTGlyph>
    <TTGlyph name="Idotaccent" xMin="-10" yMin="0" xMax="230" yMax="969">
      <contour>
        <pt x="50" y="128" on="1"/>
        <pt x="50" y="585" on="1"/>
        <pt x="50" y="622" on="0"/>
        <pt x="34" y="654" on="0"/>
        <pt x="9" y="654" on="1"/>
        <pt x="9" y="685" on="1"/>
        <pt x="214" y="771" on="1"/>
        <pt x="230" y="739" on="1"/>
        <pt x="208" y="739" on="0"/>
        <pt x="188" y="713" on="1"/>
        <pt x="170" y="688" on="0"/>
        <pt x="170" y="637" on="1"/>
        <pt x="170" y="167" on="1"/>
        <pt x="170" y="140" on="0"/>
        <pt x="188" y="117" on="0"/>
        <pt x="210" y="117" on="1"/>
        <pt x="210" y="89" on="1"/>
        <pt x="7" y="0" on="0"/>
        <pt x="6" y="0" on="1"/>
        <pt x="-10" y="32" on="1"/>
        <pt x="-2" y="32" on="0"/>
        <pt x="21" y="46" on="0"/>
        <pt x="29" y="55" on="1"/>
        <pt x="50" y="79" on="0"/>
      </contour>
      <contour>
        <pt x="49" y="874" on="1"/>
        <pt x="49" y="935" on="1"/>
        <pt x="49" y="938" on="0"/>
        <pt x="132" y="969" on="0"/>
        <pt x="145" y="969" on="0"/>
        <pt x="170" y="935" on="0"/>
        <pt x="170" y="917" on="1"/>
        <pt x="170" y="844" on="1"/>
        <pt x="170" y="841" on="0"/>
        <pt x="90" y="810" on="0"/>
        <pt x="72" y="810" on="0"/>
        <pt x="49" y="845" on="0"/>
      </contour>
    </TTGlyph>
    <TTGlyph name="Igrave" xMin="-10" yMin="0" xMax="230" yMax="985">
      <contour>
        <pt x="50" y="128" on="1"/>
        <pt x="50" y="585" on="1"/>
        <pt x="50" y="622" on="0"/>
        <pt x="34" y="654" on="0"/>
        <pt x="9" y="654" on="1"/>
        <pt x="9" y="685" on="1"/>
        <pt x="214" y="771" on="1"/>
        <pt x="230" y="739" on="1"/>
        <pt x="208" y="739" on="0"/>
        <pt x="188" y="713" on="1"/>
        <pt x="170" y="688" on="0"/>
        <pt x="170" y="637" on="1"/>
        <pt x="170" y="167" on="1"/>
        <pt x="170" y="140" on="0"/>
        <pt x="188" y="117" on="0"/>
        <pt x="210" y="117" on="1"/>
        <pt x="210" y="89" on="1"/>
        <pt x="7" y="0" on="0"/>
        <pt x="6" y="0" on="1"/>
        <pt x="-10" y="32" on="1"/>
        <pt x="-2" y="32" on="0"/>
        <pt x="21" y="46" on="0"/>
        <pt x="29" y="55" on="1"/>
        <pt x="50" y="79" on="0"/>
      </contour>
      <contour>
        <pt x="146" y="948" on="0"/>
        <pt x="178" y="872" on="0"/>
        <pt x="178" y="842" on="0"/>
        <pt x="175" y="832" on="1"/>
        <pt x="169" y="810" on="0"/>
        <pt x="162" y="810" on="1"/>
        <pt x="137" y="810" on="0"/>
        <pt x="127" y="822" on="1"/>
        <pt x="37" y="938" on="0"/>
        <pt x="37" y="966" on="1"/>
        <pt x="37" y="985" on="0"/>
        <pt x="123" y="985" on="0"/>
        <pt x="129" y="975" on="1"/>
      </contour>
    </TTGlyph>
    <TTGlyph name="Imacron" xMin="-45" yMin="0" xMax="276" yMax="878">
      <contour>
        <pt x="50" y="128" on="1"/>
        <pt x="50" y="585" on="1"/>
        <pt x="50" y="622" on="0"/>
        <pt x="34" y="654" on="0"/>
        <pt x="9" y="654" on="1"/>
        <pt x="9" y="685" on="1"/>
        <pt x="214" y="771" on="1"/>
        <pt x="230" y="739" on="1"/>
        <pt x="208" y="739" on="0"/>
        <pt x="188" y="713" on="1"/>
        <pt x="170" y="688" on="0"/>
        <pt x="170" y="637" on="1"/>
        <pt x="170" y="167" on="1"/>
        <pt x="170" y="140" on="0"/>
        <pt x="188" y="117" on="0"/>
        <pt x="210" y="117" on="1"/>
        <pt x="210" y="89" on="1"/>
        <pt x="7" y="0" on="0"/>
        <pt x="6" y="0" on="1"/>
        <pt x="-10" y="32" on="1"/>
        <pt x="-2" y="32" on="0"/>
        <pt x="21" y="46" on="0"/>
        <pt x="29" y="55" on="1"/>
        <pt x="50" y="79" on="0"/>
      </contour>
      <contour>
        <pt x="276" y="878" on="1"/>
        <pt x="276" y="854" on="1"/>
        <pt x="226" y="809" on="1"/>
        <pt x="-45" y="809" on="1"/>
        <pt x="-45" y="831" on="1"/>
        <pt x="5" y="878" on="1"/>
      </contour>
    </TTGlyph>
    <TTGlyph name="Iogonek" xMin="-10" yMin="-150" xMax="250" yMax="771">
      <contour>
        <pt x="50" y="128" on="1"/>
        <pt x="50" y="585" on="1"/>
        <pt x="50" y="622" on="0"/>
        <pt x="34" y="654" on="0"/>
        <pt x="9" y="654" on="1"/>
        <pt x="9" y="685" on="1"/>
        <pt x="214" y="771" on="1"/>
        <pt x="230" y="739" on="1"/>
        <pt x="208" y="739" on="0"/>
        <pt x="188" y="713" on="1"/>
        <pt x="170" y="688" on="0"/>
        <pt x="170" y="637" on="1"/>
        <pt x="170" y="167" on="1"/>
        <pt x="170" y="140" on="0"/>
        <pt x="188" y="117" on="0"/>
        <pt x="210" y="117" on="1"/>
        <pt x="210" y="89" on="1"/>
        <pt x="7" y="0" on="0"/>
        <pt x="6" y="0" on="1"/>
        <pt x="-10" y="32" on="1"/>
        <pt x="-2" y="32" on="0"/>
        <pt x="21" y="46" on="0"/>
        <pt x="29" y="55" on="1"/>
        <pt x="50" y="79" on="0"/>
      </contour>
      <contour>
        <pt x="150" y="83" on="1"/>
        <pt x="131" y="30" on="0"/>
        <pt x="131" y="-26" on="0"/>
        <pt x="136" y="-48" on="0"/>
        <pt x="146" y="-64" on="1"/>
        <pt x="164" y="-94" on="0"/>
        <pt x="250" y="-94" on="1"/>
        <pt x="250" y="-112" on="1"/>
        <pt x="161" y="-150" on="0"/>
        <pt x="123" y="-150" on="0"/>
        <pt x="50" y="-103" on="0"/>
        <pt x="50" y="-59" on="1"/>
        <pt x="50" y="-16" on="0"/>
        <pt x="62" y="24" on="1"/>
        <pt x="66" y="38" on="1"/>
      </contour>
    </TTGlyph>
    <TTGlyph name="Itilde" xMin="-56" yMin="0" xMax="274" yMax="924">
      <contour>
        <pt x="50" y="128" on="1"/>
        <pt x="50" y="585" on="1"/>
        <pt x="50" y="622" on="0"/>
        <pt x="34" y="654" on="0"/>
        <pt x="9" y="654" on="1"/>
        <pt x="9" y="685" on="1"/>
        <pt x="214" y="771" on="1"/>
        <pt x="230" y="739" on="1"/>
        <pt x="208" y="739" on="0"/>
        <pt x="188" y="713" on="1"/>
        <pt x="170" y="688" on="0"/>
        <pt x="170" y="637" on="1"/>
        <pt x="170" y="167" on="1"/>
        <pt x="170" y="140" on="0"/>
        <pt x="188" y="117" on="0"/>
        <pt x="210" y="117" on="1"/>
        <pt x="210" y="89" on="1"/>
        <pt x="7" y="0" on="0"/>
        <pt x="6" y="0" on="1"/>
        <pt x="-10" y="32" on="1"/>
        <pt x="-2" y="32" on="0"/>
        <pt x="21" y="46" on="0"/>
        <pt x="29" y="55" on="1"/>
        <pt x="50" y="79" on="0"/>
      </contour>
      <contour>
        <pt x="206" y="809" on="1"/>
        <pt x="181" y="809" on="0"/>
        <pt x="90" y="838" on="0"/>
        <pt x="42" y="838" on="0"/>
        <pt x="8" y="822" on="0"/>
        <pt x="3" y="811" on="1"/>
        <pt x="-18" y="811" on="1"/>
        <pt x="-56" y="884" on="1"/>
        <pt x="-25" y="924" on="0"/>
        <pt x="39" y="924" on="0"/>
        <pt x="139" y="897" on="0"/>
        <pt x="155" y="897" on="1"/>
        <pt x="205" y="897" on="0"/>
        <pt x="215" y="922" on="1"/>
        <pt x="235" y="922" on="1"/>
        <pt x="274" y="849" on="1"/>
        <pt x="243" y="809" on="0"/>
      </contour>
    </TTGlyph>
    <TTGlyph name="J" xMin="-46" yMin="-180" xMax="210" yMax="770">
      <contour>
        <pt x="50" y="113" on="1"/>
        <pt x="50" y="574" on="1"/>
        <pt x="50" y="614" on="0"/>
        <pt x="-38" y="614" on="1"/>
        <pt x="-38" y="642" on="1"/>
        <pt x="92" y="710" on="0"/>
        <pt x="194" y="770" on="1"/>
        <pt x="210" y="738" on="1"/>
        <pt x="206" y="736" on="0"/>
        <pt x="192" y="725" on="0"/>
        <pt x="170" y="670" on="0"/>
        <pt x="170" y="630" on="1"/>
        <pt x="170" y="106" on="1"/>
        <pt x="170" y="28" on="0"/>
        <pt x="152" y="-107" on="0"/>
        <pt x="126" y="-180" on="0"/>
        <pt x="112" y="-180" on="1"/>
        <pt x="87" y="-180" on="0"/>
        <pt x="8" y="-150" on="0"/>
        <pt x="-19" y="-135" on="1"/>
        <pt x="-46" y="-120" on="1"/>
        <pt x="-46" y="-90" on="1"/>
        <pt x="-12" y="-90" on="1"/>
        <pt x="23" y="-90" on="0"/>
        <pt x="50" y="2" on="0"/>
      </contour>
    </TTGlyph>
    <TTGlyph name="Jcircumflex" xMin="-56" yMin="-180" xMax="280" yMax="985">
      <contour>
        <pt x="50" y="113" on="1"/>
        <pt x="50" y="574" on="1"/>
        <pt x="50" y="614" on="0"/>
        <pt x="-38" y="614" on="1"/>
        <pt x="-38" y="642" on="1"/>
        <pt x="92" y="710" on="0"/>
        <pt x="194" y="770" on="1"/>
        <pt x="210" y="738" on="1"/>
        <pt x="206" y="736" on="0"/>
        <pt x="192" y="725" on="0"/>
        <pt x="170" y="670" on="0"/>
        <pt x="170" y="630" on="1"/>
        <pt x="170" y="106" on="1"/>
        <pt x="170" y="28" on="0"/>
        <pt x="152" y="-107" on="0"/>
        <pt x="126" y="-180" on="0"/>
        <pt x="112" y="-180" on="1"/>
        <pt x="87" y="-180" on="0"/>
        <pt x="8" y="-150" on="0"/>
        <pt x="-19" y="-135" on="1"/>
        <pt x="-46" y="-120" on="1"/>
        <pt x="-46" y="-90" on="1"/>
        <pt x="-12" y="-90" on="1"/>
        <pt x="23" y="-90" on="0"/>
        <pt x="50" y="2" on="0"/>
      </contour>
      <contour>
        <pt x="198" y="944" on="0"/>
        <pt x="280" y="862" on="0"/>
        <pt x="280" y="842" on="0"/>
        <pt x="277" y="832" on="1"/>
        <pt x="271" y="810" on="0"/>
        <pt x="264" y="810" on="1"/>
        <pt x="252" y="810" on="0"/>
        <pt x="159" y="871" on="0"/>
        <pt x="112" y="909" on="1"/>
        <pt x="65" y="871" on="0"/>
        <pt x="-28" y="810" on="0"/>
        <pt x="-40" y="810" on="1"/>
        <pt x="-47" y="810" on="0"/>
        <pt x="-56" y="842" on="0"/>
        <pt x="-56" y="857" on="0"/>
        <pt x="-39" y="877" on="0"/>
        <pt x="-11" y="906" on="0"/>
        <pt x="3" y="919" on="1"/>
        <pt x="45" y="958" on="0"/>
        <pt x="72" y="985" on="0"/>
        <pt x="147" y="985" on="0"/>
        <pt x="167" y="970" on="1"/>
      </contour>
    </TTGlyph>
    <TTGlyph name="K" xMin="-10" yMin="-32" xMax="447" yMax="771">
      <contour>
        <pt x="380" y="444" on="1"/>
        <pt x="382" y="437" on="0"/>
        <pt x="272" y="393" on="1"/>
        <pt x="272" y="372" on="0"/>
        <pt x="300" y="275" on="0"/>
        <pt x="345" y="169" on="0"/>
        <pt x="413" y="89" on="0"/>
        <pt x="447" y="89" on="1"/>
        <pt x="447" y="59" on="1"/>
        <pt x="354" y="0" on="0"/>
        <pt x="329" y="0" on="1"/>
        <pt x="294" y="0" on="0"/>
        <pt x="175" y="306" on="0"/>
        <pt x="175" y="359" on="1"/>
        <pt x="170" y="357" on="1"/>
        <pt x="170" y="154" on="1"/>
        <pt x="170" y="117" on="0"/>
        <pt x="186" y="85" on="0"/>
        <pt x="211" y="85" on="1"/>
        <pt x="211" y="54" on="1"/>
        <pt x="6" y="-32" on="1"/>
        <pt x="-10" y="0" on="1"/>
        <pt x="12" y="0" on="0"/>
        <pt x="32" y="26" on="1"/>
        <pt x="50" y="51" on="0"/>
        <pt x="50" y="102" on="1"/>
        <pt x="50" y="620" on="1"/>
        <pt x="50" y="681" on="0"/>
        <pt x="9" y="689" on="1"/>
        <pt x="9" y="711" on="1"/>
        <pt x="110" y="768" on="1"/>
        <pt x="132" y="759" on="0"/>
        <pt x="170" y="718" on="0"/>
        <pt x="170" y="701" on="1"/>
        <pt x="170" y="404" on="1"/>
        <pt x="196" y="404" on="0"/>
        <pt x="260" y="437" on="0"/>
        <pt x="260" y="455" on="1"/>
        <pt x="260" y="585" on="1"/>
        <pt x="260" y="622" on="0"/>
        <pt x="244" y="654" on="0"/>
        <pt x="219" y="654" on="1"/>
        <pt x="219" y="685" on="1"/>
        <pt x="424" y="771" on="1"/>
        <pt x="440" y="739" on="1"/>
        <pt x="418" y="739" on="0"/>
        <pt x="398" y="713" on="1"/>
        <pt x="380" y="688" on="0"/>
        <pt x="380" y="637" on="1"/>
      </contour>
    </TTGlyph>
    <TTGlyph name="Kcommaaccent" xMin="-10" yMin="-259" xMax="447" yMax="771">
      <contour>
        <pt x="173" y="-85" on="1"/>
        <pt x="173" y="-44" on="1"/>
        <pt x="173" y="-41" on="0"/>
        <pt x="256" y="-10" on="0"/>
        <pt x="269" y="-10" on="0"/>
        <pt x="294" y="-44" on="0"/>
        <pt x="294" y="-62" on="1"/>
        <pt x="294" y="-115" on="1"/>
        <pt x="294" y="-140" on="0"/>
        <pt x="247" y="-235" on="0"/>
        <pt x="206" y="-259" on="1"/>
        <pt x="161" y="-217" on="1"/>
        <pt x="195" y="-203" on="0"/>
        <pt x="195" y="-153" on="1"/>
        <pt x="195" y="-149" on="0"/>
        <pt x="173" y="-111" on="0"/>
      </contour>
      <contour>
        <pt x="380" y="444" on="1"/>
        <pt x="382" y="437" on="0"/>
        <pt x="272" y="393" on="1"/>
        <pt x="272" y="372" on="0"/>
        <pt x="300" y="275" on="0"/>
        <pt x="345" y="169" on="0"/>
        <pt x="413" y="89" on="0"/>
        <pt x="447" y="89" on="1"/>
        <pt x="447" y="59" on="1"/>
        <pt x="354" y="0" on="0"/>
        <pt x="329" y="0" on="1"/>
        <pt x="294" y="0" on="0"/>
        <pt x="175" y="306" on="0"/>
        <pt x="175" y="359" on="1"/>
        <pt x="170" y="357" on="1"/>
        <pt x="170" y="154" on="1"/>
        <pt x="170" y="117" on="0"/>
        <pt x="186" y="85" on="0"/>
        <pt x="211" y="85" on="1"/>
        <pt x="211" y="54" on="1"/>
        <pt x="6" y="-32" on="1"/>
        <pt x="-10" y="0" on="1"/>
        <pt x="12" y="0" on="0"/>
        <pt x="32" y="26" on="1"/>
        <pt x="50" y="51" on="0"/>
        <pt x="50" y="102" on="1"/>
        <pt x="50" y="620" on="1"/>
        <pt x="50" y="681" on="0"/>
        <pt x="9" y="689" on="1"/>
        <pt x="9" y="711" on="1"/>
        <pt x="110" y="768" on="1"/>
        <pt x="132" y="759" on="0"/>
        <pt x="170" y="718" on="0"/>
        <pt x="170" y="701" on="1"/>
        <pt x="170" y="404" on="1"/>
        <pt x="196" y="404" on="0"/>
        <pt x="260" y="437" on="0"/>
        <pt x="260" y="455" on="1"/>
        <pt x="260" y="585" on="1"/>
        <pt x="260" y="622" on="0"/>
        <pt x="244" y="654" on="0"/>
        <pt x="219" y="654" on="1"/>
        <pt x="219" y="685" on="1"/>
        <pt x="424" y="771" on="1"/>
        <pt x="440" y="739" on="1"/>
        <pt x="418" y="739" on="0"/>
        <pt x="398" y="713" on="1"/>
        <pt x="380" y="688" on="0"/>
        <pt x="380" y="637" on="1"/>
      </contour>
    </TTGlyph>
    <TTGlyph name="L" xMin="9" yMin="0" xMax="348" yMax="771">
      <contour>
        <pt x="50" y="151" on="1"/>
        <pt x="50" y="585" on="1"/>
        <pt x="50" y="622" on="0"/>
        <pt x="34" y="654" on="0"/>
        <pt x="9" y="654" on="1"/>
        <pt x="9" y="685" on="1"/>
        <pt x="214" y="771" on="1"/>
        <pt x="230" y="739" on="1"/>
        <pt x="208" y="739" on="0"/>
        <pt x="188" y="713" on="1"/>
        <pt x="170" y="688" on="0"/>
        <pt x="170" y="637" on="1"/>
        <pt x="170" y="228" on="1"/>
        <pt x="170" y="148" on="0"/>
        <pt x="184" y="132" on="1"/>
        <pt x="208" y="102" on="0"/>
        <pt x="231" y="96" on="1"/>
        <pt x="284" y="84" on="0"/>
        <pt x="348" y="84" on="1"/>
        <pt x="348" y="56" on="1"/>
        <pt x="215" y="0" on="0"/>
        <pt x="178" y="0" on="0"/>
        <pt x="114" y="33" on="0"/>
        <pt x="50" y="107" on="0"/>
      </contour>
    </TTGlyph>
    <TTGlyph name="Lacute" xMin="9" yMin="0" xMax="348" yMax="985">
      <contour>
        <pt x="50" y="151" on="1"/>
        <pt x="50" y="585" on="1"/>
        <pt x="50" y="622" on="0"/>
        <pt x="34" y="654" on="0"/>
        <pt x="9" y="654" on="1"/>
        <pt x="9" y="685" on="1"/>
        <pt x="214" y="771" on="1"/>
        <pt x="230" y="739" on="1"/>
        <pt x="208" y="739" on="0"/>
        <pt x="188" y="713" on="1"/>
        <pt x="170" y="688" on="0"/>
        <pt x="170" y="637" on="1"/>
        <pt x="170" y="228" on="1"/>
        <pt x="170" y="148" on="0"/>
        <pt x="184" y="132" on="1"/>
        <pt x="208" y="102" on="0"/>
        <pt x="231" y="96" on="1"/>
        <pt x="284" y="84" on="0"/>
        <pt x="348" y="84" on="1"/>
        <pt x="348" y="56" on="1"/>
        <pt x="215" y="0" on="0"/>
        <pt x="178" y="0" on="0"/>
        <pt x="114" y="33" on="0"/>
        <pt x="50" y="107" on="0"/>
      </contour>
      <contour>
        <pt x="129" y="975" on="1"/>
        <pt x="135" y="985" on="0"/>
        <pt x="221" y="985" on="0"/>
        <pt x="221" y="966" on="1"/>
        <pt x="221" y="938" on="0"/>
        <pt x="131" y="822" on="1"/>
        <pt x="121" y="810" on="0"/>
        <pt x="96" y="810" on="1"/>
        <pt x="89" y="810" on="0"/>
        <pt x="80" y="842" on="0"/>
        <pt x="80" y="872" on="0"/>
        <pt x="112" y="948" on="0"/>
      </contour>
    </TTGlyph>
    <TTGlyph name="Lcaron" xMin="9" yMin="0" xMax="365" yMax="771">
      <contour>
        <pt x="50" y="151" on="1"/>
        <pt x="50" y="585" on="1"/>
        <pt x="50" y="622" on="0"/>
        <pt x="34" y="654" on="0"/>
        <pt x="9" y="654" on="1"/>
        <pt x="9" y="685" on="1"/>
        <pt x="214" y="771" on="1"/>
        <pt x="230" y="739" on="1"/>
        <pt x="208" y="739" on="0"/>
        <pt x="188" y="713" on="1"/>
        <pt x="170" y="688" on="0"/>
        <pt x="170" y="637" on="1"/>
        <pt x="170" y="228" on="1"/>
        <pt x="170" y="148" on="0"/>
        <pt x="184" y="132" on="1"/>
        <pt x="208" y="102" on="0"/>
        <pt x="231" y="96" on="1"/>
        <pt x="284" y="84" on="0"/>
        <pt x="348" y="84" on="1"/>
        <pt x="348" y="56" on="1"/>
        <pt x="215" y="0" on="0"/>
        <pt x="178" y="0" on="0"/>
        <pt x="114" y="33" on="0"/>
        <pt x="50" y="107" on="0"/>
      </contour>
      <contour>
        <pt x="356" y="615" on="1"/>
        <pt x="356" y="584" on="1"/>
        <pt x="356" y="582" on="0"/>
        <pt x="293" y="558" on="0"/>
        <pt x="282" y="558" on="0"/>
        <pt x="264" y="584" on="0"/>
        <pt x="264" y="598" on="1"/>
        <pt x="264" y="638" on="1"/>
        <pt x="264" y="660" on="0"/>
        <pt x="301" y="753" on="0"/>
        <pt x="331" y="770" on="1"/>
        <pt x="365" y="738" on="1"/>
        <pt x="352" y="733" on="0"/>
        <pt x="339" y="686" on="0"/>
        <pt x="339" y="667" on="1"/>
        <pt x="339" y="664" on="0"/>
        <pt x="356" y="635" on="0"/>
      </contour>
    </TTGlyph>
    <TTGlyph name="Lcommaaccent" xMin="9" yMin="-259" xMax="348" yMax="771">
      <contour>
        <pt x="148" y="-85" on="1"/>
        <pt x="148" y="-44" on="1"/>
        <pt x="148" y="-41" on="0"/>
        <pt x="231" y="-10" on="0"/>
        <pt x="244" y="-10" on="0"/>
        <pt x="269" y="-44" on="0"/>
        <pt x="269" y="-62" on="1"/>
        <pt x="269" y="-115" on="1"/>
        <pt x="269" y="-140" on="0"/>
        <pt x="222" y="-235" on="0"/>
        <pt x="181" y="-259" on="1"/>
        <pt x="136" y="-217" on="1"/>
        <pt x="170" y="-203" on="0"/>
        <pt x="170" y="-153" on="1"/>
        <pt x="170" y="-149" on="0"/>
        <pt x="148" y="-111" on="0"/>
      </contour>
      <contour>
        <pt x="50" y="151" on="1"/>
        <pt x="50" y="585" on="1"/>
        <pt x="50" y="622" on="0"/>
        <pt x="34" y="654" on="0"/>
        <pt x="9" y="654" on="1"/>
        <pt x="9" y="685" on="1"/>
        <pt x="214" y="771" on="1"/>
        <pt x="230" y="739" on="1"/>
        <pt x="208" y="739" on="0"/>
        <pt x="188" y="713" on="1"/>
        <pt x="170" y="688" on="0"/>
        <pt x="170" y="637" on="1"/>
        <pt x="170" y="228" on="1"/>
        <pt x="170" y="148" on="0"/>
        <pt x="184" y="132" on="1"/>
        <pt x="208" y="102" on="0"/>
        <pt x="231" y="96" on="1"/>
        <pt x="284" y="84" on="0"/>
        <pt x="348" y="84" on="1"/>
        <pt x="348" y="56" on="1"/>
        <pt x="215" y="0" on="0"/>
        <pt x="178" y="0" on="0"/>
        <pt x="114" y="33" on="0"/>
        <pt x="50" y="107" on="0"/>
      </contour>
    </TTGlyph>
    <TTGlyph name="Ldotaccent" xMin="9" yMin="0" xMax="348" yMax="771">
      <contour>
        <pt x="50" y="151" on="1"/>
        <pt x="50" y="585" on="1"/>
        <pt x="50" y="622" on="0"/>
        <pt x="34" y="654" on="0"/>
        <pt x="9" y="654" on="1"/>
        <pt x="9" y="685" on="1"/>
        <pt x="214" y="771" on="1"/>
        <pt x="230" y="739" on="1"/>
        <pt x="208" y="739" on="0"/>
        <pt x="188" y="713" on="1"/>
        <pt x="170" y="688" on="0"/>
        <pt x="170" y="637" on="1"/>
        <pt x="170" y="228" on="1"/>
        <pt x="170" y="148" on="0"/>
        <pt x="184" y="132" on="1"/>
        <pt x="208" y="102" on="0"/>
        <pt x="231" y="96" on="1"/>
        <pt x="284" y="84" on="0"/>
        <pt x="348" y="84" on="1"/>
        <pt x="348" y="56" on="1"/>
        <pt x="215" y="0" on="0"/>
        <pt x="178" y="0" on="0"/>
        <pt x="114" y="33" on="0"/>
        <pt x="50" y="107" on="0"/>
      </contour>
      <contour>
        <pt x="210" y="384" on="1"/>
        <pt x="210" y="445" on="1"/>
        <pt x="210" y="448" on="0"/>
        <pt x="293" y="479" on="0"/>
        <pt x="306" y="479" on="0"/>
        <pt x="331" y="445" on="0"/>
        <pt x="331" y="427" on="1"/>
        <pt x="331" y="354" on="1"/>
        <pt x="331" y="351" on="0"/>
        <pt x="251" y="320" on="0"/>
        <pt x="233" y="320" on="0"/>
        <pt x="210" y="355" on="0"/>
      </contour>
    </TTGlyph>
    <TTGlyph name="Lslash" xMin="-36" yMin="0" xMax="348" yMax="771">
      <contour>
        <pt x="50" y="151" on="1"/>
        <pt x="50" y="313" on="1"/>
        <pt x="-27" y="279" on="1"/>
        <pt x="-36" y="300" on="1"/>
        <pt x="-9" y="363" on="1"/>
        <pt x="50" y="389" on="1"/>
        <pt x="50" y="585" on="1"/>
        <pt x="50" y="622" on="0"/>
        <pt x="34" y="654" on="0"/>
        <pt x="9" y="654" on="1"/>
        <pt x="9" y="685" on="1"/>
        <pt x="214" y="771" on="1"/>
        <pt x="230" y="739" on="1"/>
        <pt x="208" y="739" on="0"/>
        <pt x="188" y="713" on="1"/>
        <pt x="170" y="688" on="0"/>
        <pt x="170" y="637" on="1"/>
        <pt x="170" y="441" on="1"/>
        <pt x="239" y="472" on="1"/>
        <pt x="249" y="450" on="1"/>
        <pt x="221" y="389" on="1"/>
        <pt x="170" y="366" on="1"/>
        <pt x="170" y="228" on="1"/>
        <pt x="170" y="148" on="0"/>
        <pt x="184" y="132" on="1"/>
        <pt x="208" y="102" on="0"/>
        <pt x="231" y="96" on="1"/>
        <pt x="284" y="84" on="0"/>
        <pt x="348" y="84" on="1"/>
        <pt x="348" y="56" on="1"/>
        <pt x="215" y="0" on="0"/>
        <pt x="178" y="0" on="0"/>
        <pt x="114" y="33" on="0"/>
        <pt x="50" y="107" on="0"/>
      </contour>
    </TTGlyph>
    <TTGlyph name="M" xMin="-10" yMin="-32" xMax="639" yMax="771">
      <contour>
        <pt x="50" y="102" on="1"/>
        <pt x="50" y="607" on="1"/>
        <pt x="50" y="640" on="0"/>
        <pt x="22" y="688" on="0"/>
        <pt x="1" y="688" on="1"/>
        <pt x="1" y="710" on="1"/>
        <pt x="8" y="711" on="0"/>
        <pt x="110" y="771" on="1"/>
        <pt x="117" y="769" on="0"/>
        <pt x="137" y="762" on="0"/>
        <pt x="170" y="730" on="0"/>
        <pt x="170" y="709" on="1"/>
        <pt x="176" y="712" on="0"/>
        <pt x="204" y="728" on="1"/>
        <pt x="278" y="770" on="0"/>
        <pt x="313" y="770" on="0"/>
        <pt x="356" y="734" on="0"/>
        <pt x="367" y="709" on="1"/>
        <pt x="369" y="710" on="0"/>
        <pt x="408" y="730" on="1"/>
        <pt x="486" y="770" on="0"/>
        <pt x="502" y="770" on="1"/>
        <pt x="534" y="770" on="0"/>
        <pt x="590" y="686" on="0"/>
        <pt x="590" y="651" on="1"/>
        <pt x="590" y="148" on="1"/>
        <pt x="590" y="93" on="0"/>
        <pt x="639" y="83" on="1"/>
        <pt x="639" y="61" on="1"/>
        <pt x="530" y="0" on="1"/>
        <pt x="508" y="9" on="0"/>
        <pt x="470" y="50" on="0"/>
        <pt x="470" y="68" on="1"/>
        <pt x="470" y="558" on="1"/>
        <pt x="470" y="618" on="0"/>
        <pt x="431" y="665" on="0"/>
        <pt x="380" y="667" on="1"/>
        <pt x="380" y="148" on="1"/>
        <pt x="380" y="93" on="0"/>
        <pt x="429" y="83" on="1"/>
        <pt x="429" y="61" on="1"/>
        <pt x="320" y="0" on="1"/>
        <pt x="298" y="9" on="0"/>
        <pt x="260" y="50" on="0"/>
        <pt x="260" y="68" on="1"/>
        <pt x="260" y="558" on="1"/>
        <pt x="260" y="621" on="0"/>
        <pt x="223" y="667" on="0"/>
        <pt x="170" y="667" on="1"/>
        <pt x="170" y="154" on="1"/>
        <pt x="170" y="117" on="0"/>
        <pt x="186" y="85" on="0"/>
        <pt x="211" y="85" on="1"/>
        <pt x="211" y="54" on="1"/>
        <pt x="6" y="-32" on="1"/>
        <pt x="-10" y="0" on="1"/>
        <pt x="12" y="0" on="0"/>
        <pt x="32" y="26" on="1"/>
        <pt x="50" y="51" on="0"/>
      </contour>
    </TTGlyph>
    <TTGlyph name="N" xMin="-10" yMin="-32" xMax="429" yMax="771">
      <contour>
        <pt x="50" y="114" on="1"/>
        <pt x="50" y="607" on="1"/>
        <pt x="50" y="640" on="0"/>
        <pt x="22" y="688" on="0"/>
        <pt x="1" y="688" on="1"/>
        <pt x="1" y="710" on="1"/>
        <pt x="8" y="711" on="0"/>
        <pt x="110" y="771" on="1"/>
        <pt x="117" y="769" on="0"/>
        <pt x="137" y="762" on="0"/>
        <pt x="170" y="730" on="0"/>
        <pt x="170" y="709" on="1"/>
        <pt x="176" y="712" on="0"/>
        <pt x="204" y="728" on="1"/>
        <pt x="278" y="770" on="0"/>
        <pt x="292" y="770" on="1"/>
        <pt x="324" y="770" on="0"/>
        <pt x="380" y="686" on="0"/>
        <pt x="380" y="651" on="1"/>
        <pt x="380" y="148" on="1"/>
        <pt x="380" y="93" on="0"/>
        <pt x="429" y="83" on="1"/>
        <pt x="429" y="61" on="1"/>
        <pt x="320" y="0" on="1"/>
        <pt x="298" y="9" on="0"/>
        <pt x="260" y="50" on="0"/>
        <pt x="260" y="68" on="1"/>
        <pt x="260" y="558" on="1"/>
        <pt x="260" y="621" on="0"/>
        <pt x="223" y="667" on="0"/>
        <pt x="170" y="667" on="1"/>
        <pt x="170" y="154" on="1"/>
        <pt x="170" y="114" on="0"/>
        <pt x="190" y="85" on="0"/>
        <pt x="211" y="85" on="1"/>
        <pt x="211" y="54" on="1"/>
        <pt x="6" y="-32" on="1"/>
        <pt x="-10" y="0" on="1"/>
        <pt x="10" y="0" on="0"/>
        <pt x="29" y="24" on="1"/>
        <pt x="50" y="52" on="0"/>
      </contour>
    </TTGlyph>
    <TTGlyph name="Nacute" xMin="-10" yMin="-32" xMax="429" yMax="985">
      <contour>
        <pt x="50" y="114" on="1"/>
        <pt x="50" y="607" on="1"/>
        <pt x="50" y="640" on="0"/>
        <pt x="22" y="688" on="0"/>
        <pt x="1" y="688" on="1"/>
        <pt x="1" y="710" on="1"/>
        <pt x="8" y="711" on="0"/>
        <pt x="110" y="771" on="1"/>
        <pt x="117" y="769" on="0"/>
        <pt x="137" y="762" on="0"/>
        <pt x="170" y="730" on="0"/>
        <pt x="170" y="709" on="1"/>
        <pt x="176" y="712" on="0"/>
        <pt x="204" y="728" on="1"/>
        <pt x="278" y="770" on="0"/>
        <pt x="292" y="770" on="1"/>
        <pt x="324" y="770" on="0"/>
        <pt x="380" y="686" on="0"/>
        <pt x="380" y="651" on="1"/>
        <pt x="380" y="148" on="1"/>
        <pt x="380" y="93" on="0"/>
        <pt x="429" y="83" on="1"/>
        <pt x="429" y="61" on="1"/>
        <pt x="320" y="0" on="1"/>
        <pt x="298" y="9" on="0"/>
        <pt x="260" y="50" on="0"/>
        <pt x="260" y="68" on="1"/>
        <pt x="260" y="558" on="1"/>
        <pt x="260" y="621" on="0"/>
        <pt x="223" y="667" on="0"/>
        <pt x="170" y="667" on="1"/>
        <pt x="170" y="154" on="1"/>
        <pt x="170" y="114" on="0"/>
        <pt x="190" y="85" on="0"/>
        <pt x="211" y="85" on="1"/>
        <pt x="211" y="54" on="1"/>
        <pt x="6" y="-32" on="1"/>
        <pt x="-10" y="0" on="1"/>
        <pt x="10" y="0" on="0"/>
        <pt x="29" y="24" on="1"/>
        <pt x="50" y="52" on="0"/>
      </contour>
      <contour>
        <pt x="222" y="975" on="1"/>
        <pt x="228" y="985" on="0"/>
        <pt x="314" y="985" on="0"/>
        <pt x="314" y="966" on="1"/>
        <pt x="314" y="938" on="0"/>
        <pt x="224" y="822" on="1"/>
        <pt x="214" y="810" on="0"/>
        <pt x="189" y="810" on="1"/>
        <pt x="182" y="810" on="0"/>
        <pt x="173" y="842" on="0"/>
        <pt x="173" y="872" on="0"/>
        <pt x="205" y="948" on="0"/>
      </contour>
    </TTGlyph>
    <TTGlyph name="Ncaron" xMin="-10" yMin="-32" xMax="429" yMax="984">
      <contour>
        <pt x="50" y="114" on="1"/>
        <pt x="50" y="607" on="1"/>
        <pt x="50" y="640" on="0"/>
        <pt x="22" y="688" on="0"/>
        <pt x="1" y="688" on="1"/>
        <pt x="1" y="710" on="1"/>
        <pt x="8" y="711" on="0"/>
        <pt x="110" y="771" on="1"/>
        <pt x="117" y="769" on="0"/>
        <pt x="137" y="762" on="0"/>
        <pt x="170" y="730" on="0"/>
        <pt x="170" y="709" on="1"/>
        <pt x="176" y="712" on="0"/>
        <pt x="204" y="728" on="1"/>
        <pt x="278" y="770" on="0"/>
        <pt x="292" y="770" on="1"/>
        <pt x="324" y="770" on="0"/>
        <pt x="380" y="686" on="0"/>
        <pt x="380" y="651" on="1"/>
        <pt x="380" y="148" on="1"/>
        <pt x="380" y="93" on="0"/>
        <pt x="429" y="83" on="1"/>
        <pt x="429" y="61" on="1"/>
        <pt x="320" y="0" on="1"/>
        <pt x="298" y="9" on="0"/>
        <pt x="260" y="50" on="0"/>
        <pt x="260" y="68" on="1"/>
        <pt x="260" y="558" on="1"/>
        <pt x="260" y="621" on="0"/>
        <pt x="223" y="667" on="0"/>
        <pt x="170" y="667" on="1"/>
        <pt x="170" y="154" on="1"/>
        <pt x="170" y="114" on="0"/>
        <pt x="190" y="85" on="0"/>
        <pt x="211" y="85" on="1"/>
        <pt x="211" y="54" on="1"/>
        <pt x="6" y="-32" on="1"/>
        <pt x="-10" y="0" on="1"/>
        <pt x="10" y="0" on="0"/>
        <pt x="29" y="24" on="1"/>
        <pt x="50" y="52" on="0"/>
      </contour>
      <contour>
        <pt x="269" y="824" on="1"/>
        <pt x="249" y="809" on="0"/>
        <pt x="174" y="809" on="0"/>
        <pt x="159" y="824" on="1"/>
        <pt x="147" y="836" on="0"/>
        <pt x="91" y="888" on="0"/>
        <pt x="77" y="902" on="1"/>
        <pt x="46" y="935" on="0"/>
        <pt x="46" y="952" on="0"/>
        <pt x="49" y="962" on="1"/>
        <pt x="55" y="984" on="0"/>
        <pt x="62" y="984" on="1"/>
        <pt x="74" y="984" on="0"/>
        <pt x="167" y="923" on="0"/>
        <pt x="214" y="885" on="1"/>
        <pt x="261" y="923" on="0"/>
        <pt x="354" y="984" on="0"/>
        <pt x="366" y="984" on="1"/>
        <pt x="373" y="984" on="0"/>
        <pt x="382" y="952" on="0"/>
        <pt x="382" y="932" on="0"/>
        <pt x="300" y="850" on="0"/>
      </contour>
    </TTGlyph>
    <TTGlyph name="Ncommaaccent" xMin="-10" yMin="-259" xMax="429" yMax="771">
      <contour>
        <pt x="159" y="-85" on="1"/>
        <pt x="159" y="-44" on="1"/>
        <pt x="159" y="-41" on="0"/>
        <pt x="242" y="-10" on="0"/>
        <pt x="255" y="-10" on="0"/>
        <pt x="280" y="-44" on="0"/>
        <pt x="280" y="-62" on="1"/>
        <pt x="280" y="-115" on="1"/>
        <pt x="280" y="-140" on="0"/>
        <pt x="233" y="-235" on="0"/>
        <pt x="192" y="-259" on="1"/>
        <pt x="147" y="-217" on="1"/>
        <pt x="181" y="-203" on="0"/>
        <pt x="181" y="-153" on="1"/>
        <pt x="181" y="-149" on="0"/>
        <pt x="159" y="-111" on="0"/>
      </contour>
      <contour>
        <pt x="50" y="114" on="1"/>
        <pt x="50" y="607" on="1"/>
        <pt x="50" y="640" on="0"/>
        <pt x="22" y="688" on="0"/>
        <pt x="1" y="688" on="1"/>
        <pt x="1" y="710" on="1"/>
        <pt x="8" y="711" on="0"/>
        <pt x="110" y="771" on="1"/>
        <pt x="117" y="769" on="0"/>
        <pt x="137" y="762" on="0"/>
        <pt x="170" y="730" on="0"/>
        <pt x="170" y="709" on="1"/>
        <pt x="176" y="712" on="0"/>
        <pt x="204" y="728" on="1"/>
        <pt x="278" y="770" on="0"/>
        <pt x="292" y="770" on="1"/>
        <pt x="324" y="770" on="0"/>
        <pt x="380" y="686" on="0"/>
        <pt x="380" y="651" on="1"/>
        <pt x="380" y="148" on="1"/>
        <pt x="380" y="93" on="0"/>
        <pt x="429" y="83" on="1"/>
        <pt x="429" y="61" on="1"/>
        <pt x="320" y="0" on="1"/>
        <pt x="298" y="9" on="0"/>
        <pt x="260" y="50" on="0"/>
        <pt x="260" y="68" on="1"/>
        <pt x="260" y="558" on="1"/>
        <pt x="260" y="621" on="0"/>
        <pt x="223" y="667" on="0"/>
        <pt x="170" y="667" on="1"/>
        <pt x="170" y="154" on="1"/>
        <pt x="170" y="114" on="0"/>
        <pt x="190" y="85" on="0"/>
        <pt x="211" y="85" on="1"/>
        <pt x="211" y="54" on="1"/>
        <pt x="6" y="-32" on="1"/>
        <pt x="-10" y="0" on="1"/>
        <pt x="10" y="0" on="0"/>
        <pt x="29" y="24" on="1"/>
        <pt x="50" y="52" on="0"/>
      </contour>
    </TTGlyph>
    <TTGlyph name="Ndotaccent" xMin="-10" yMin="-32" xMax="429" yMax="970">
      <contour>
        <pt x="50" y="114" on="1"/>
        <pt x="50" y="607" on="1"/>
        <pt x="50" y="640" on="0"/>
        <pt x="22" y="688" on="0"/>
        <pt x="1" y="688" on="1"/>
        <pt x="1" y="710" on="1"/>
        <pt x="8" y="711" on="0"/>
        <pt x="110" y="771" on="1"/>
        <pt x="117" y="769" on="0"/>
        <pt x="137" y="762" on="0"/>
        <pt x="170" y="730" on="0"/>
        <pt x="170" y="709" on="1"/>
        <pt x="176" y="712" on="0"/>
        <pt x="204" y="728" on="1"/>
        <pt x="278" y="770" on="0"/>
        <pt x="292" y="770" on="1"/>
        <pt x="324" y="770" on="0"/>
        <pt x="380" y="686" on="0"/>
        <pt x="380" y="651" on="1"/>
        <pt x="380" y="148" on="1"/>
        <pt x="380" y="93" on="0"/>
        <pt x="429" y="83" on="1"/>
        <pt x="429" y="61" on="1"/>
        <pt x="320" y="0" on="1"/>
        <pt x="298" y="9" on="0"/>
        <pt x="260" y="50" on="0"/>
        <pt x="260" y="68" on="1"/>
        <pt x="260" y="558" on="1"/>
        <pt x="260" y="621" on="0"/>
        <pt x="223" y="667" on="0"/>
        <pt x="170" y="667" on="1"/>
        <pt x="170" y="154" on="1"/>
        <pt x="170" y="114" on="0"/>
        <pt x="190" y="85" on="0"/>
        <pt x="211" y="85" on="1"/>
        <pt x="211" y="54" on="1"/>
        <pt x="6" y="-32" on="1"/>
        <pt x="-10" y="0" on="1"/>
        <pt x="10" y="0" on="0"/>
        <pt x="29" y="24" on="1"/>
        <pt x="50" y="52" on="0"/>
      </contour>
      <contour>
        <pt x="151" y="875" on="1"/>
        <pt x="151" y="936" on="1"/>
        <pt x="151" y="939" on="0"/>
        <pt x="234" y="970" on="0"/>
        <pt x="247" y="970" on="0"/>
        <pt x="272" y="936" on="0"/>
        <pt x="272" y="918" on="1"/>
        <pt x="272" y="845" on="1"/>
        <pt x="272" y="842" on="0"/>
        <pt x="192" y="811" on="0"/>
        <pt x="174" y="811" on="0"/>
        <pt x="151" y="846" on="0"/>
      </contour>
    </TTGlyph>
    <TTGlyph name="Ntilde" xMin="-10" yMin="-32" xMax="429" yMax="924">
      <contour>
        <pt x="50" y="114" on="1"/>
        <pt x="50" y="607" on="1"/>
        <pt x="50" y="640" on="0"/>
        <pt x="22" y="688" on="0"/>
        <pt x="1" y="688" on="1"/>
        <pt x="1" y="710" on="1"/>
        <pt x="8" y="711" on="0"/>
        <pt x="110" y="771" on="1"/>
        <pt x="117" y="769" on="0"/>
        <pt x="137" y="762" on="0"/>
        <pt x="170" y="730" on="0"/>
        <pt x="170" y="709" on="1"/>
        <pt x="176" y="712" on="0"/>
        <pt x="204" y="728" on="1"/>
        <pt x="278" y="770" on="0"/>
        <pt x="292" y="770" on="1"/>
        <pt x="324" y="770" on="0"/>
        <pt x="380" y="686" on="0"/>
        <pt x="380" y="651" on="1"/>
        <pt x="380" y="148" on="1"/>
        <pt x="380" y="93" on="0"/>
        <pt x="429" y="83" on="1"/>
        <pt x="429" y="61" on="1"/>
        <pt x="320" y="0" on="1"/>
        <pt x="298" y="9" on="0"/>
        <pt x="260" y="50" on="0"/>
        <pt x="260" y="68" on="1"/>
        <pt x="260" y="558" on="1"/>
        <pt x="260" y="621" on="0"/>
        <pt x="223" y="667" on="0"/>
        <pt x="170" y="667" on="1"/>
        <pt x="170" y="154" on="1"/>
        <pt x="170" y="114" on="0"/>
        <pt x="190" y="85" on="0"/>
        <pt x="211" y="85" on="1"/>
        <pt x="211" y="54" on="1"/>
        <pt x="6" y="-32" on="1"/>
        <pt x="-10" y="0" on="1"/>
        <pt x="10" y="0" on="0"/>
        <pt x="29" y="24" on="1"/>
        <pt x="50" y="52" on="0"/>
      </contour>
      <contour>
        <pt x="293" y="809" on="1"/>
        <pt x="268" y="809" on="0"/>
        <pt x="177" y="838" on="0"/>
        <pt x="129" y="838" on="0"/>
        <pt x="95" y="822" on="0"/>
        <pt x="90" y="811" on="1"/>
        <pt x="69" y="811" on="1"/>
        <pt x="31" y="884" on="1"/>
        <pt x="62" y="924" on="0"/>
        <pt x="126" y="924" on="0"/>
        <pt x="226" y="897" on="0"/>
        <pt x="242" y="897" on="1"/>
        <pt x="292" y="897" on="0"/>
        <pt x="302" y="922" on="1"/>
        <pt x="322" y="922" on="1"/>
        <pt x="361" y="849" on="1"/>
        <pt x="330" y="809" on="0"/>
      </contour>
    </TTGlyph>
    <TTGlyph name="O" xMin="50" yMin="0" xMax="381" yMax="770">
      <contour>
        <pt x="50" y="146" on="1"/>
        <pt x="50" y="678" on="1"/>
        <pt x="50" y="685" on="0"/>
        <pt x="278" y="770" on="0"/>
        <pt x="312" y="770" on="0"/>
        <pt x="381" y="688" on="0"/>
        <pt x="381" y="655" on="1"/>
        <pt x="381" y="93" on="1"/>
        <pt x="381" y="85" on="0"/>
        <pt x="162" y="0" on="0"/>
        <pt x="113" y="0" on="0"/>
        <pt x="50" y="86" on="0"/>
      </contour>
      <contour>
        <pt x="221" y="92" on="1"/>
        <pt x="240" y="92" on="0"/>
        <pt x="260" y="108" on="1"/>
        <pt x="260" y="603" on="1"/>
        <pt x="260" y="677" on="0"/>
        <pt x="209" y="677" on="1"/>
        <pt x="189" y="677" on="0"/>
        <pt x="170" y="662" on="1"/>
        <pt x="170" y="166" on="1"/>
        <pt x="170" y="92" on="0"/>
      </contour>
    </TTGlyph>
    <TTGlyph name="OE" xMin="50" yMin="0" xMax="605" yMax="770">
      <contour>
        <pt x="399" y="673" on="1"/>
        <pt x="389" y="673" on="0"/>
        <pt x="381" y="663" on="1"/>
        <pt x="381" y="399" on="1"/>
        <pt x="522" y="399" on="1"/>
        <pt x="522" y="375" on="1"/>
        <pt x="472" y="350" on="1"/>
        <pt x="381" y="350" on="1"/>
        <pt x="381" y="250" on="1"/>
        <pt x="381" y="139" on="0"/>
        <pt x="404" y="120" on="1"/>
        <pt x="436" y="92" on="0"/>
        <pt x="514" y="84" on="0"/>
        <pt x="559" y="84" on="1"/>
        <pt x="559" y="55" on="1"/>
        <pt x="554" y="55" on="0"/>
        <pt x="416" y="0" on="0"/>
        <pt x="387" y="0" on="0"/>
        <pt x="331" y="31" on="0"/>
        <pt x="307" y="56" on="1"/>
        <pt x="169" y="0" on="0"/>
        <pt x="113" y="0" on="0"/>
        <pt x="50" y="86" on="0"/>
        <pt x="50" y="146" on="1"/>
        <pt x="50" y="678" on="1"/>
        <pt x="50" y="685" on="0"/>
        <pt x="278" y="770" on="0"/>
        <pt x="290" y="770" on="1"/>
        <pt x="315" y="770" on="0"/>
        <pt x="354" y="719" on="1"/>
        <pt x="485" y="770" on="0"/>
        <pt x="507" y="770" on="1"/>
        <pt x="513" y="770" on="0"/>
        <pt x="529" y="712" on="0"/>
        <pt x="550" y="630" on="0"/>
        <pt x="573" y="591" on="0"/>
        <pt x="605" y="591" on="1"/>
        <pt x="605" y="571" on="1"/>
        <pt x="583" y="561" on="0"/>
        <pt x="478" y="510" on="0"/>
        <pt x="474" y="510" on="1"/>
        <pt x="459" y="510" on="0"/>
        <pt x="413" y="673" on="0"/>
      </contour>
      <contour>
        <pt x="221" y="92" on="1"/>
        <pt x="240" y="92" on="0"/>
        <pt x="260" y="108" on="1"/>
        <pt x="260" y="603" on="1"/>
        <pt x="260" y="677" on="0"/>
        <pt x="209" y="677" on="1"/>
        <pt x="189" y="677" on="0"/>
        <pt x="170" y="662" on="1"/>
        <pt x="170" y="166" on="1"/>
        <pt x="170" y="92" on="0"/>
      </contour>
    </TTGlyph>
    <TTGlyph name="Oacute" xMin="50" yMin="0" xMax="381" yMax="985">
      <contour>
        <pt x="50" y="146" on="1"/>
        <pt x="50" y="678" on="1"/>
        <pt x="50" y="685" on="0"/>
        <pt x="278" y="770" on="0"/>
        <pt x="312" y="770" on="0"/>
        <pt x="381" y="688" on="0"/>
        <pt x="381" y="655" on="1"/>
        <pt x="381" y="93" on="1"/>
        <pt x="381" y="85" on="0"/>
        <pt x="162" y="0" on="0"/>
        <pt x="113" y="0" on="0"/>
        <pt x="50" y="86" on="0"/>
      </contour>
      <contour>
        <pt x="221" y="92" on="1"/>
        <pt x="240" y="92" on="0"/>
        <pt x="260" y="108" on="1"/>
        <pt x="260" y="603" on="1"/>
        <pt x="260" y="677" on="0"/>
        <pt x="209" y="677" on="1"/>
        <pt x="189" y="677" on="0"/>
        <pt x="170" y="662" on="1"/>
        <pt x="170" y="166" on="1"/>
        <pt x="170" y="92" on="0"/>
      </contour>
      <contour>
        <pt x="195" y="975" on="1"/>
        <pt x="201" y="985" on="0"/>
        <pt x="287" y="985" on="0"/>
        <pt x="287" y="966" on="1"/>
        <pt x="287" y="938" on="0"/>
        <pt x="197" y="822" on="1"/>
        <pt x="187" y="810" on="0"/>
        <pt x="162" y="810" on="1"/>
        <pt x="155" y="810" on="0"/>
        <pt x="146" y="842" on="0"/>
        <pt x="146" y="872" on="0"/>
        <pt x="178" y="948" on="0"/>
      </contour>
    </TTGlyph>
    <TTGlyph name="Obreve" xMin="50" yMin="0" xMax="381" yMax="969">
      <contour>
        <pt x="50" y="146" on="1"/>
        <pt x="50" y="678" on="1"/>
        <pt x="50" y="685" on="0"/>
        <pt x="278" y="770" on="0"/>
        <pt x="312" y="770" on="0"/>
        <pt x="381" y="688" on="0"/>
        <pt x="381" y="655" on="1"/>
        <pt x="381" y="93" on="1"/>
        <pt x="381" y="85" on="0"/>
        <pt x="162" y="0" on="0"/>
        <pt x="113" y="0" on="0"/>
        <pt x="50" y="86" on="0"/>
      </contour>
      <contour>
        <pt x="221" y="92" on="1"/>
        <pt x="240" y="92" on="0"/>
        <pt x="260" y="108" on="1"/>
        <pt x="260" y="603" on="1"/>
        <pt x="260" y="677" on="0"/>
        <pt x="209" y="677" on="1"/>
        <pt x="189" y="677" on="0"/>
        <pt x="170" y="662" on="1"/>
        <pt x="170" y="166" on="1"/>
        <pt x="170" y="92" on="0"/>
      </contour>
      <contour>
        <pt x="356" y="925" on="1"/>
        <pt x="356" y="889" on="1"/>
        <pt x="356" y="881" on="0"/>
        <pt x="201" y="809" on="0"/>
        <pt x="155" y="809" on="0"/>
        <pt x="73" y="886" on="0"/>
        <pt x="73" y="940" on="1"/>
        <pt x="73" y="943" on="0"/>
        <pt x="134" y="969" on="0"/>
        <pt x="144" y="969" on="0"/>
        <pt x="162" y="941" on="0"/>
        <pt x="166" y="925" on="1"/>
        <pt x="184" y="855" on="1"/>
        <pt x="206" y="855" on="0"/>
        <pt x="246" y="874" on="0"/>
        <pt x="254" y="883" on="1"/>
        <pt x="263" y="892" on="1"/>
        <pt x="263" y="940" on="1"/>
        <pt x="263" y="943" on="0"/>
        <pt x="324" y="969" on="0"/>
        <pt x="335" y="969" on="0"/>
        <pt x="356" y="941" on="0"/>
      </contour>
    </TTGlyph>
    <TTGlyph name="Ocircumflex" xMin="50" yMin="0" xMax="386" yMax="985">
      <contour>
        <pt x="50" y="146" on="1"/>
        <pt x="50" y="678" on="1"/>
        <pt x="50" y="685" on="0"/>
        <pt x="278" y="770" on="0"/>
        <pt x="312" y="770" on="0"/>
        <pt x="381" y="688" on="0"/>
        <pt x="381" y="655" on="1"/>
        <pt x="381" y="93" on="1"/>
        <pt x="381" y="85" on="0"/>
        <pt x="162" y="0" on="0"/>
        <pt x="113" y="0" on="0"/>
        <pt x="50" y="86" on="0"/>
      </contour>
      <contour>
        <pt x="221" y="92" on="1"/>
        <pt x="240" y="92" on="0"/>
        <pt x="260" y="108" on="1"/>
        <pt x="260" y="603" on="1"/>
        <pt x="260" y="677" on="0"/>
        <pt x="209" y="677" on="1"/>
        <pt x="189" y="677" on="0"/>
        <pt x="170" y="662" on="1"/>
        <pt x="170" y="166" on="1"/>
        <pt x="170" y="92" on="0"/>
      </contour>
      <contour>
        <pt x="304" y="944" on="0"/>
        <pt x="386" y="862" on="0"/>
        <pt x="386" y="842" on="0"/>
        <pt x="383" y="832" on="1"/>
        <pt x="377" y="810" on="0"/>
        <pt x="370" y="810" on="1"/>
        <pt x="358" y="810" on="0"/>
        <pt x="265" y="871" on="0"/>
        <pt x="218" y="909" on="1"/>
        <pt x="171" y="871" on="0"/>
        <pt x="78" y="810" on="0"/>
        <pt x="66" y="810" on="1"/>
        <pt x="59" y="810" on="0"/>
        <pt x="50" y="842" on="0"/>
        <pt x="50" y="857" on="0"/>
        <pt x="67" y="877" on="0"/>
        <pt x="95" y="906" on="0"/>
        <pt x="109" y="919" on="1"/>
        <pt x="151" y="958" on="0"/>
        <pt x="178" y="985" on="0"/>
        <pt x="253" y="985" on="0"/>
        <pt x="273" y="970" on="1"/>
      </contour>
    </TTGlyph>
    <TTGlyph name="Odieresis" xMin="50" yMin="0" xMax="381" yMax="952">
      <contour>
        <pt x="50" y="146" on="1"/>
        <pt x="50" y="678" on="1"/>
        <pt x="50" y="685" on="0"/>
        <pt x="278" y="770" on="0"/>
        <pt x="312" y="770" on="0"/>
        <pt x="381" y="688" on="0"/>
        <pt x="381" y="655" on="1"/>
        <pt x="381" y="93" on="1"/>
        <pt x="381" y="85" on="0"/>
        <pt x="162" y="0" on="0"/>
        <pt x="113" y="0" on="0"/>
        <pt x="50" y="86" on="0"/>
      </contour>
      <contour>
        <pt x="221" y="92" on="1"/>
        <pt x="240" y="92" on="0"/>
        <pt x="260" y="108" on="1"/>
        <pt x="260" y="603" on="1"/>
        <pt x="260" y="677" on="0"/>
        <pt x="209" y="677" on="1"/>
        <pt x="189" y="677" on="0"/>
        <pt x="170" y="662" on="1"/>
        <pt x="170" y="166" on="1"/>
        <pt x="170" y="92" on="0"/>
      </contour>
      <contour>
        <pt x="58" y="867" on="1"/>
        <pt x="58" y="921" on="1"/>
        <pt x="58" y="924" on="0"/>
        <pt x="133" y="952" on="0"/>
        <pt x="145" y="952" on="0"/>
        <pt x="167" y="922" on="0"/>
        <pt x="167" y="905" on="1"/>
        <pt x="167" y="840" on="1"/>
        <pt x="167" y="837" on="0"/>
        <pt x="96" y="809" on="0"/>
        <pt x="79" y="809" on="0"/>
        <pt x="58" y="841" on="0"/>
      </contour>
      <contour>
        <pt x="265" y="867" on="1"/>
        <pt x="265" y="921" on="1"/>
        <pt x="265" y="924" on="0"/>
        <pt x="340" y="952" on="0"/>
        <pt x="352" y="952" on="0"/>
        <pt x="374" y="922" on="0"/>
        <pt x="374" y="905" on="1"/>
        <pt x="374" y="840" on="1"/>
        <pt x="374" y="837" on="0"/>
        <pt x="303" y="809" on="0"/>
        <pt x="286" y="809" on="0"/>
        <pt x="265" y="841" on="0"/>
      </contour>
    </TTGlyph>
    <TTGlyph name="Ograve" xMin="50" yMin="0" xMax="381" yMax="985">
      <contour>
        <pt x="50" y="146" on="1"/>
        <pt x="50" y="678" on="1"/>
        <pt x="50" y="685" on="0"/>
        <pt x="278" y="770" on="0"/>
        <pt x="312" y="770" on="0"/>
        <pt x="381" y="688" on="0"/>
        <pt x="381" y="655" on="1"/>
        <pt x="381" y="93" on="1"/>
        <pt x="381" y="85" on="0"/>
        <pt x="162" y="0" on="0"/>
        <pt x="113" y="0" on="0"/>
        <pt x="50" y="86" on="0"/>
      </contour>
      <contour>
        <pt x="221" y="92" on="1"/>
        <pt x="240" y="92" on="0"/>
        <pt x="260" y="108" on="1"/>
        <pt x="260" y="603" on="1"/>
        <pt x="260" y="677" on="0"/>
        <pt x="209" y="677" on="1"/>
        <pt x="189" y="677" on="0"/>
        <pt x="170" y="662" on="1"/>
        <pt x="170" y="166" on="1"/>
        <pt x="170" y="92" on="0"/>
      </contour>
      <contour>
        <pt x="209" y="948" on="0"/>
        <pt x="241" y="872" on="0"/>
        <pt x="241" y="842" on="0"/>
        <pt x="238" y="832" on="1"/>
        <pt x="232" y="810" on="0"/>
        <pt x="225" y="810" on="1"/>
        <pt x="200" y="810" on="0"/>
        <pt x="190" y="822" on="1"/>
        <pt x="100" y="938" on="0"/>
        <pt x="100" y="966" on="1"/>
        <pt x="100" y="985" on="0"/>
        <pt x="186" y="985" on="0"/>
        <pt x="192" y="975" on="1"/>
      </contour>
    </TTGlyph>
    <TTGlyph name="Ohungarumlaut" xMin="50" yMin="0" xMax="427" yMax="985">
      <contour>
        <pt x="50" y="146" on="1"/>
        <pt x="50" y="678" on="1"/>
        <pt x="50" y="685" on="0"/>
        <pt x="278" y="770" on="0"/>
        <pt x="312" y="770" on="0"/>
        <pt x="381" y="688" on="0"/>
        <pt x="381" y="655" on="1"/>
        <pt x="381" y="93" on="1"/>
        <pt x="381" y="85" on="0"/>
        <pt x="162" y="0" on="0"/>
        <pt x="113" y="0" on="0"/>
        <pt x="50" y="86" on="0"/>
      </contour>
      <contour>
        <pt x="221" y="92" on="1"/>
        <pt x="240" y="92" on="0"/>
        <pt x="260" y="108" on="1"/>
        <pt x="260" y="603" on="1"/>
        <pt x="260" y="677" on="0"/>
        <pt x="209" y="677" on="1"/>
        <pt x="189" y="677" on="0"/>
        <pt x="170" y="662" on="1"/>
        <pt x="170" y="166" on="1"/>
        <pt x="170" y="92" on="0"/>
      </contour>
      <contour>
        <pt x="154" y="975" on="1"/>
        <pt x="160" y="985" on="0"/>
        <pt x="246" y="985" on="0"/>
        <pt x="246" y="966" on="1"/>
        <pt x="246" y="938" on="0"/>
        <pt x="156" y="822" on="1"/>
        <pt x="146" y="810" on="0"/>
        <pt x="121" y="810" on="1"/>
        <pt x="114" y="810" on="0"/>
        <pt x="105" y="842" on="0"/>
        <pt x="105" y="872" on="0"/>
        <pt x="137" y="948" on="0"/>
      </contour>
      <contour>
        <pt x="335" y="975" on="1"/>
        <pt x="341" y="985" on="0"/>
        <pt x="427" y="985" on="0"/>
        <pt x="427" y="966" on="1"/>
        <pt x="427" y="938" on="0"/>
        <pt x="337" y="822" on="1"/>
        <pt x="327" y="810" on="0"/>
        <pt x="302" y="810" on="1"/>
        <pt x="295" y="810" on="0"/>
        <pt x="286" y="842" on="0"/>
        <pt x="286" y="872" on="0"/>
        <pt x="318" y="948" on="0"/>
      </contour>
    </TTGlyph>
    <TTGlyph name="Omacron" xMin="50" yMin="0" xMax="382" yMax="878">
      <contour>
        <pt x="50" y="146" on="1"/>
        <pt x="50" y="678" on="1"/>
        <pt x="50" y="685" on="0"/>
        <pt x="278" y="770" on="0"/>
        <pt x="312" y="770" on="0"/>
        <pt x="381" y="688" on="0"/>
        <pt x="381" y="655" on="1"/>
        <pt x="381" y="93" on="1"/>
        <pt x="381" y="85" on="0"/>
        <pt x="162" y="0" on="0"/>
        <pt x="113" y="0" on="0"/>
        <pt x="50" y="86" on="0"/>
      </contour>
      <contour>
        <pt x="221" y="92" on="1"/>
        <pt x="240" y="92" on="0"/>
        <pt x="260" y="108" on="1"/>
        <pt x="260" y="603" on="1"/>
        <pt x="260" y="677" on="0"/>
        <pt x="209" y="677" on="1"/>
        <pt x="189" y="677" on="0"/>
        <pt x="170" y="662" on="1"/>
        <pt x="170" y="166" on="1"/>
        <pt x="170" y="92" on="0"/>
      </contour>
      <contour>
        <pt x="382" y="878" on="1"/>
        <pt x="382" y="854" on="1"/>
        <pt x="332" y="809" on="1"/>
        <pt x="61" y="809" on="1"/>
        <pt x="61" y="831" on="1"/>
        <pt x="111" y="878" on="1"/>
      </contour>
    </TTGlyph>
    <TTGlyph name="Oogonek" xMin="50" yMin="-150" xMax="381" yMax="770">
      <contour>
        <pt x="50" y="146" on="1"/>
        <pt x="50" y="678" on="1"/>
        <pt x="50" y="685" on="0"/>
        <pt x="278" y="770" on="0"/>
        <pt x="312" y="770" on="0"/>
        <pt x="381" y="688" on="0"/>
        <pt x="381" y="655" on="1"/>
        <pt x="381" y="93" on="1"/>
        <pt x="381" y="85" on="0"/>
        <pt x="162" y="0" on="0"/>
        <pt x="113" y="0" on="0"/>
        <pt x="50" y="86" on="0"/>
      </contour>
      <contour>
        <pt x="221" y="92" on="1"/>
        <pt x="240" y="92" on="0"/>
        <pt x="260" y="108" on="1"/>
        <pt x="260" y="603" on="1"/>
        <pt x="260" y="677" on="0"/>
        <pt x="209" y="677" on="1"/>
        <pt x="189" y="677" on="0"/>
        <pt x="170" y="662" on="1"/>
        <pt x="170" y="166" on="1"/>
        <pt x="170" y="92" on="0"/>
      </contour>
      <contour>
        <pt x="260" y="83" on="1"/>
        <pt x="241" y="30" on="0"/>
        <pt x="241" y="-26" on="0"/>
        <pt x="246" y="-48" on="0"/>
        <pt x="256" y="-64" on="1"/>
        <pt x="274" y="-94" on="0"/>
        <pt x="360" y="-94" on="1"/>
        <pt x="360" y="-112" on="1"/>
        <pt x="271" y="-150" on="0"/>
        <pt x="233" y="-150" on="0"/>
        <pt x="160" y="-103" on="0"/>
        <pt x="160" y="-59" on="1"/>
        <pt x="160" y="-16" on="0"/>
        <pt x="172" y="24" on="1"/>
        <pt x="176" y="38" on="1"/>
      </contour>
    </TTGlyph>
    <TTGlyph name="Oslash" xMin="42" yMin="-38" xMax="415" yMax="799">
      <contour>
        <pt x="50" y="146" on="1"/>
        <pt x="50" y="678" on="1"/>
        <pt x="50" y="685" on="0"/>
        <pt x="278" y="770" on="0"/>
        <pt x="294" y="770" on="1"/>
        <pt x="297" y="770" on="0"/>
        <pt x="317" y="760" on="1"/>
        <pt x="390" y="799" on="1"/>
        <pt x="415" y="799" on="1"/>
        <pt x="375" y="683" on="1"/>
        <pt x="381" y="668" on="0"/>
        <pt x="381" y="655" on="1"/>
        <pt x="381" y="93" on="1"/>
        <pt x="381" y="85" on="0"/>
        <pt x="162" y="0" on="0"/>
        <pt x="140" y="0" on="1"/>
        <pt x="64" y="-38" on="1"/>
        <pt x="42" y="-38" on="1"/>
        <pt x="74" y="55" on="1"/>
        <pt x="50" y="96" on="0"/>
      </contour>
      <contour>
        <pt x="209" y="677" on="1"/>
        <pt x="189" y="677" on="0"/>
        <pt x="170" y="662" on="1"/>
        <pt x="170" y="333" on="1"/>
        <pt x="260" y="594" on="1"/>
        <pt x="260" y="603" on="1"/>
        <pt x="260" y="677" on="0"/>
      </contour>
      <contour>
        <pt x="179" y="116" on="1"/>
        <pt x="192" y="92" on="0"/>
        <pt x="240" y="92" on="0"/>
        <pt x="260" y="108" on="1"/>
        <pt x="260" y="350" on="1"/>
      </contour>
    </TTGlyph>
    <TTGlyph name="Oslashacute" xMin="42" yMin="-38" xMax="415" yMax="985">
      <contour>
        <pt x="223" y="975" on="1"/>
        <pt x="229" y="985" on="0"/>
        <pt x="315" y="985" on="0"/>
        <pt x="315" y="966" on="1"/>
        <pt x="315" y="938" on="0"/>
        <pt x="225" y="822" on="1"/>
        <pt x="215" y="810" on="0"/>
        <pt x="190" y="810" on="1"/>
        <pt x="183" y="810" on="0"/>
        <pt x="174" y="842" on="0"/>
        <pt x="174" y="872" on="0"/>
        <pt x="206" y="948" on="0"/>
      </contour>
      <contour>
        <pt x="50" y="146" on="1"/>
        <pt x="50" y="678" on="1"/>
        <pt x="50" y="685" on="0"/>
        <pt x="278" y="770" on="0"/>
        <pt x="294" y="770" on="1"/>
        <pt x="297" y="770" on="0"/>
        <pt x="317" y="760" on="1"/>
        <pt x="390" y="799" on="1"/>
        <pt x="415" y="799" on="1"/>
        <pt x="375" y="683" on="1"/>
        <pt x="381" y="668" on="0"/>
        <pt x="381" y="655" on="1"/>
        <pt x="381" y="93" on="1"/>
        <pt x="381" y="85" on="0"/>
        <pt x="162" y="0" on="0"/>
        <pt x="140" y="0" on="1"/>
        <pt x="64" y="-38" on="1"/>
        <pt x="42" y="-38" on="1"/>
        <pt x="74" y="55" on="1"/>
        <pt x="50" y="96" on="0"/>
      </contour>
      <contour>
        <pt x="209" y="677" on="1"/>
        <pt x="189" y="677" on="0"/>
        <pt x="170" y="662" on="1"/>
        <pt x="170" y="333" on="1"/>
        <pt x="260" y="594" on="1"/>
        <pt x="260" y="603" on="1"/>
        <pt x="260" y="677" on="0"/>
      </contour>
      <contour>
        <pt x="179" y="116" on="1"/>
        <pt x="192" y="92" on="0"/>
        <pt x="240" y="92" on="0"/>
        <pt x="260" y="108" on="1"/>
        <pt x="260" y="350" on="1"/>
      </contour>
    </TTGlyph>
    <TTGlyph name="Otilde" xMin="50" yMin="0" xMax="381" yMax="924">
      <contour>
        <pt x="50" y="146" on="1"/>
        <pt x="50" y="678" on="1"/>
        <pt x="50" y="685" on="0"/>
        <pt x="278" y="770" on="0"/>
        <pt x="312" y="770" on="0"/>
        <pt x="381" y="688" on="0"/>
        <pt x="381" y="655" on="1"/>
        <pt x="381" y="93" on="1"/>
        <pt x="381" y="85" on="0"/>
        <pt x="162" y="0" on="0"/>
        <pt x="113" y="0" on="0"/>
        <pt x="50" y="86" on="0"/>
      </contour>
      <contour>
        <pt x="221" y="92" on="1"/>
        <pt x="240" y="92" on="0"/>
        <pt x="260" y="108" on="1"/>
        <pt x="260" y="603" on="1"/>
        <pt x="260" y="677" on="0"/>
        <pt x="209" y="677" on="1"/>
        <pt x="189" y="677" on="0"/>
        <pt x="170" y="662" on="1"/>
        <pt x="170" y="166" on="1"/>
        <pt x="170" y="92" on="0"/>
      </contour>
      <contour>
        <pt x="312" y="809" on="1"/>
        <pt x="287" y="809" on="0"/>
        <pt x="196" y="838" on="0"/>
        <pt x="148" y="838" on="0"/>
        <pt x="114" y="822" on="0"/>
        <pt x="109" y="811" on="1"/>
        <pt x="88" y="811" on="1"/>
        <pt x="50" y="884" on="1"/>
        <pt x="81" y="924" on="0"/>
        <pt x="145" y="924" on="0"/>
        <pt x="245" y="897" on="0"/>
        <pt x="261" y="897" on="1"/>
        <pt x="311" y="897" on="0"/>
        <pt x="321" y="922" on="1"/>
        <pt x="341" y="922" on="1"/>
        <pt x="380" y="849" on="1"/>
        <pt x="349" y="809" on="0"/>
      </contour>
    </TTGlyph>
    <TTGlyph name="P" xMin="-10" yMin="-32" xMax="381" yMax="768">
      <contour>
        <pt x="170" y="701" on="1"/>
        <pt x="280" y="768" on="0"/>
        <pt x="312" y="768" on="0"/>
        <pt x="381" y="686" on="0"/>
        <pt x="381" y="653" on="1"/>
        <pt x="381" y="342" on="1"/>
        <pt x="381" y="335" on="0"/>
        <pt x="222" y="271" on="0"/>
        <pt x="170" y="255" on="1"/>
        <pt x="170" y="154" on="1"/>
        <pt x="170" y="117" on="0"/>
        <pt x="186" y="85" on="0"/>
        <pt x="211" y="85" on="1"/>
        <pt x="211" y="54" on="1"/>
        <pt x="6" y="-32" on="1"/>
        <pt x="-10" y="0" on="1"/>
        <pt x="12" y="0" on="0"/>
        <pt x="32" y="26" on="1"/>
        <pt x="50" y="51" on="0"/>
        <pt x="50" y="102" on="1"/>
        <pt x="50" y="620" on="1"/>
        <pt x="50" y="681" on="0"/>
        <pt x="9" y="689" on="1"/>
        <pt x="9" y="711" on="1"/>
        <pt x="110" y="768" on="1"/>
        <pt x="130" y="760" on="0"/>
        <pt x="170" y="718" on="0"/>
      </contour>
      <contour>
        <pt x="209" y="672" on="1"/>
        <pt x="191" y="672" on="0"/>
        <pt x="170" y="657" on="1"/>
        <pt x="170" y="302" on="1"/>
        <pt x="196" y="302" on="0"/>
        <pt x="260" y="335" on="0"/>
        <pt x="260" y="353" on="1"/>
        <pt x="260" y="598" on="1"/>
        <pt x="260" y="672" on="0"/>
      </contour>
    </TTGlyph>
    <TTGlyph name="Q" xMin="50" yMin="-170" xMax="437" yMax="770">
      <contour>
        <pt x="50" y="146" on="1"/>
        <pt x="50" y="678" on="1"/>
        <pt x="50" y="685" on="0"/>
        <pt x="278" y="770" on="0"/>
        <pt x="312" y="770" on="0"/>
        <pt x="381" y="688" on="0"/>
        <pt x="381" y="655" on="1"/>
        <pt x="381" y="93" on="1"/>
        <pt x="381" y="85" on="0"/>
        <pt x="300" y="53" on="1"/>
        <pt x="363" y="-81" on="0"/>
        <pt x="437" y="-81" on="1"/>
        <pt x="437" y="-110" on="1"/>
        <pt x="348" y="-170" on="0"/>
        <pt x="319" y="-170" on="1"/>
        <pt x="279" y="-170" on="0"/>
        <pt x="199" y="16" on="1"/>
        <pt x="154" y="0" on="0"/>
        <pt x="140" y="0" on="1"/>
        <pt x="113" y="0" on="0"/>
        <pt x="50" y="86" on="0"/>
      </contour>
      <contour>
        <pt x="221" y="92" on="1"/>
        <pt x="240" y="92" on="0"/>
        <pt x="260" y="108" on="1"/>
        <pt x="260" y="603" on="1"/>
        <pt x="260" y="677" on="0"/>
        <pt x="209" y="677" on="1"/>
        <pt x="189" y="677" on="0"/>
        <pt x="170" y="662" on="1"/>
        <pt x="170" y="166" on="1"/>
        <pt x="170" y="92" on="0"/>
      </contour>
    </TTGlyph>
    <TTGlyph name="R" xMin="-10" yMin="-32" xMax="437" yMax="768">
      <contour>
        <pt x="209" y="672" on="1"/>
        <pt x="191" y="672" on="0"/>
        <pt x="170" y="657" on="1"/>
        <pt x="170" y="332" on="1"/>
        <pt x="196" y="332" on="0"/>
        <pt x="260" y="365" on="0"/>
        <pt x="260" y="383" on="1"/>
        <pt x="260" y="598" on="1"/>
        <pt x="260" y="672" on="0"/>
      </contour>
      <contour>
        <pt x="50" y="102" on="1"/>
        <pt x="50" y="620" on="1"/>
        <pt x="50" y="681" on="0"/>
        <pt x="9" y="689" on="1"/>
        <pt x="9" y="711" on="1"/>
        <pt x="110" y="768" on="1"/>
        <pt x="130" y="760" on="0"/>
        <pt x="170" y="718" on="0"/>
        <pt x="170" y="701" on="1"/>
        <pt x="280" y="768" on="0"/>
        <pt x="312" y="768" on="0"/>
        <pt x="381" y="686" on="0"/>
        <pt x="381" y="653" on="1"/>
        <pt x="381" y="372" on="1"/>
        <pt x="381" y="364" on="0"/>
        <pt x="272" y="321" on="1"/>
        <pt x="318" y="166" on="0"/>
        <pt x="380" y="112" on="1"/>
        <pt x="408" y="89" on="0"/>
        <pt x="437" y="89" on="1"/>
        <pt x="437" y="59" on="1"/>
        <pt x="344" y="0" on="0"/>
        <pt x="319" y="0" on="1"/>
        <pt x="286" y="0" on="0"/>
        <pt x="185" y="248" on="0"/>
        <pt x="181" y="288" on="1"/>
        <pt x="170" y="285" on="1"/>
        <pt x="170" y="154" on="1"/>
        <pt x="170" y="117" on="0"/>
        <pt x="186" y="85" on="0"/>
        <pt x="211" y="85" on="1"/>
        <pt x="211" y="54" on="1"/>
        <pt x="6" y="-32" on="1"/>
        <pt x="-10" y="0" on="1"/>
        <pt x="12" y="0" on="0"/>
        <pt x="32" y="26" on="1"/>
        <pt x="50" y="51" on="0"/>
      </contour>
    </TTGlyph>
    <TTGlyph name="Racute" xMin="-10" yMin="-32" xMax="437" yMax="985">
      <contour>
        <pt x="209" y="672" on="1"/>
        <pt x="191" y="672" on="0"/>
        <pt x="170" y="657" on="1"/>
        <pt x="170" y="332" on="1"/>
        <pt x="196" y="332" on="0"/>
        <pt x="260" y="365" on="0"/>
        <pt x="260" y="383" on="1"/>
        <pt x="260" y="598" on="1"/>
        <pt x="260" y="672" on="0"/>
      </contour>
      <contour>
        <pt x="50" y="102" on="1"/>
        <pt x="50" y="620" on="1"/>
        <pt x="50" y="681" on="0"/>
        <pt x="9" y="689" on="1"/>
        <pt x="9" y="711" on="1"/>
        <pt x="110" y="768" on="1"/>
        <pt x="130" y="760" on="0"/>
        <pt x="170" y="718" on="0"/>
        <pt x="170" y="701" on="1"/>
        <pt x="280" y="768" on="0"/>
        <pt x="312" y="768" on="0"/>
        <pt x="381" y="686" on="0"/>
        <pt x="381" y="653" on="1"/>
        <pt x="381" y="372" on="1"/>
        <pt x="381" y="364" on="0"/>
        <pt x="272" y="321" on="1"/>
        <pt x="318" y="166" on="0"/>
        <pt x="380" y="112" on="1"/>
        <pt x="408" y="89" on="0"/>
        <pt x="437" y="89" on="1"/>
        <pt x="437" y="59" on="1"/>
        <pt x="344" y="0" on="0"/>
        <pt x="319" y="0" on="1"/>
        <pt x="286" y="0" on="0"/>
        <pt x="185" y="248" on="0"/>
        <pt x="181" y="288" on="1"/>
        <pt x="170" y="285" on="1"/>
        <pt x="170" y="154" on="1"/>
        <pt x="170" y="117" on="0"/>
        <pt x="186" y="85" on="0"/>
        <pt x="211" y="85" on="1"/>
        <pt x="211" y="54" on="1"/>
        <pt x="6" y="-32" on="1"/>
        <pt x="-10" y="0" on="1"/>
        <pt x="12" y="0" on="0"/>
        <pt x="32" y="26" on="1"/>
        <pt x="50" y="51" on="0"/>
      </contour>
      <contour>
        <pt x="188" y="975" on="1"/>
        <pt x="194" y="985" on="0"/>
        <pt x="280" y="985" on="0"/>
        <pt x="280" y="966" on="1"/>
        <pt x="280" y="938" on="0"/>
        <pt x="190" y="822" on="1"/>
        <pt x="180" y="810" on="0"/>
        <pt x="155" y="810" on="1"/>
        <pt x="148" y="810" on="0"/>
        <pt x="139" y="842" on="0"/>
        <pt x="139" y="872" on="0"/>
        <pt x="171" y="948" on="0"/>
      </contour>
    </TTGlyph>
    <TTGlyph name="Rcaron" xMin="-10" yMin="-32" xMax="437" yMax="984">
      <contour>
        <pt x="209" y="672" on="1"/>
        <pt x="191" y="672" on="0"/>
        <pt x="170" y="657" on="1"/>
        <pt x="170" y="332" on="1"/>
        <pt x="196" y="332" on="0"/>
        <pt x="260" y="365" on="0"/>
        <pt x="260" y="383" on="1"/>
        <pt x="260" y="598" on="1"/>
        <pt x="260" y="672" on="0"/>
      </contour>
      <contour>
        <pt x="50" y="102" on="1"/>
        <pt x="50" y="620" on="1"/>
        <pt x="50" y="681" on="0"/>
        <pt x="9" y="689" on="1"/>
        <pt x="9" y="711" on="1"/>
        <pt x="110" y="768" on="1"/>
        <pt x="130" y="760" on="0"/>
        <pt x="170" y="718" on="0"/>
        <pt x="170" y="701" on="1"/>
        <pt x="280" y="768" on="0"/>
        <pt x="312" y="768" on="0"/>
        <pt x="381" y="686" on="0"/>
        <pt x="381" y="653" on="1"/>
        <pt x="381" y="372" on="1"/>
        <pt x="381" y="364" on="0"/>
        <pt x="272" y="321" on="1"/>
        <pt x="318" y="166" on="0"/>
        <pt x="380" y="112" on="1"/>
        <pt x="408" y="89" on="0"/>
        <pt x="437" y="89" on="1"/>
        <pt x="437" y="59" on="1"/>
        <pt x="344" y="0" on="0"/>
        <pt x="319" y="0" on="1"/>
        <pt x="286" y="0" on="0"/>
        <pt x="185" y="248" on="0"/>
        <pt x="181" y="288" on="1"/>
        <pt x="170" y="285" on="1"/>
        <pt x="170" y="154" on="1"/>
        <pt x="170" y="117" on="0"/>
        <pt x="186" y="85" on="0"/>
        <pt x="211" y="85" on="1"/>
        <pt x="211" y="54" on="1"/>
        <pt x="6" y="-32" on="1"/>
        <pt x="-10" y="0" on="1"/>
        <pt x="12" y="0" on="0"/>
        <pt x="32" y="26" on="1"/>
        <pt x="50" y="51" on="0"/>
      </contour>
      <contour>
        <pt x="264" y="824" on="1"/>
        <pt x="244" y="809" on="0"/>
        <pt x="169" y="809" on="0"/>
        <pt x="154" y="824" on="1"/>
        <pt x="142" y="836" on="0"/>
        <pt x="86" y="888" on="0"/>
        <pt x="72" y="902" on="1"/>
        <pt x="41" y="935" on="0"/>
        <pt x="41" y="952" on="0"/>
        <pt x="44" y="962" on="1"/>
        <pt x="50" y="984" on="0"/>
        <pt x="57" y="984" on="1"/>
        <pt x="69" y="984" on="0"/>
        <pt x="162" y="923" on="0"/>
        <pt x="209" y="885" on="1"/>
        <pt x="256" y="923" on="0"/>
        <pt x="349" y="984" on="0"/>
        <pt x="361" y="984" on="1"/>
        <pt x="368" y="984" on="0"/>
        <pt x="377" y="952" on="0"/>
        <pt x="377" y="932" on="0"/>
        <pt x="295" y="850" on="0"/>
      </contour>
    </TTGlyph>
    <TTGlyph name="Rcommaaccent" xMin="-10" yMin="-259" xMax="437" yMax="768">
      <contour>
        <pt x="161" y="-85" on="1"/>
        <pt x="161" y="-44" on="1"/>
        <pt x="161" y="-41" on="0"/>
        <pt x="244" y="-10" on="0"/>
        <pt x="257" y="-10" on="0"/>
        <pt x="282" y="-44" on="0"/>
        <pt x="282" y="-62" on="1"/>
        <pt x="282" y="-115" on="1"/>
        <pt x="282" y="-140" on="0"/>
        <pt x="235" y="-235" on="0"/>
        <pt x="194" y="-259" on="1"/>
        <pt x="149" y="-217" on="1"/>
        <pt x="183" y="-203" on="0"/>
        <pt x="183" y="-153" on="1"/>
        <pt x="183" y="-149" on="0"/>
        <pt x="161" y="-111" on="0"/>
      </contour>
      <contour>
        <pt x="209" y="672" on="1"/>
        <pt x="191" y="672" on="0"/>
        <pt x="170" y="657" on="1"/>
        <pt x="170" y="332" on="1"/>
        <pt x="196" y="332" on="0"/>
        <pt x="260" y="365" on="0"/>
        <pt x="260" y="383" on="1"/>
        <pt x="260" y="598" on="1"/>
        <pt x="260" y="672" on="0"/>
      </contour>
      <contour>
        <pt x="50" y="102" on="1"/>
        <pt x="50" y="620" on="1"/>
        <pt x="50" y="681" on="0"/>
        <pt x="9" y="689" on="1"/>
        <pt x="9" y="711" on="1"/>
        <pt x="110" y="768" on="1"/>
        <pt x="130" y="760" on="0"/>
        <pt x="170" y="718" on="0"/>
        <pt x="170" y="701" on="1"/>
        <pt x="280" y="768" on="0"/>
        <pt x="312" y="768" on="0"/>
        <pt x="381" y="686" on="0"/>
        <pt x="381" y="653" on="1"/>
        <pt x="381" y="372" on="1"/>
        <pt x="381" y="364" on="0"/>
        <pt x="272" y="321" on="1"/>
        <pt x="318" y="166" on="0"/>
        <pt x="380" y="112" on="1"/>
        <pt x="408" y="89" on="0"/>
        <pt x="437" y="89" on="1"/>
        <pt x="437" y="59" on="1"/>
        <pt x="344" y="0" on="0"/>
        <pt x="319" y="0" on="1"/>
        <pt x="286" y="0" on="0"/>
        <pt x="185" y="248" on="0"/>
        <pt x="181" y="288" on="1"/>
        <pt x="170" y="285" on="1"/>
        <pt x="170" y="154" on="1"/>
        <pt x="170" y="117" on="0"/>
        <pt x="186" y="85" on="0"/>
        <pt x="211" y="85" on="1"/>
        <pt x="211" y="54" on="1"/>
        <pt x="6" y="-32" on="1"/>
        <pt x="-10" y="0" on="1"/>
        <pt x="12" y="0" on="0"/>
        <pt x="32" y="26" on="1"/>
        <pt x="50" y="51" on="0"/>
      </contour>
    </TTGlyph>
    <TTGlyph name="S" xMin="38" yMin="-10" xMax="381" yMax="770">
      <contour>
        <pt x="111" y="319" on="1"/>
        <pt x="86" y="319" on="0"/>
        <pt x="50" y="395" on="0"/>
        <pt x="50" y="450" on="1"/>
        <pt x="50" y="658" on="1"/>
        <pt x="50" y="677" on="0"/>
        <pt x="260" y="770" on="0"/>
        <pt x="276" y="770" on="1"/>
        <pt x="288" y="770" on="0"/>
        <pt x="310" y="730" on="1"/>
        <pt x="315" y="720" on="0"/>
        <pt x="334" y="686" on="0"/>
        <pt x="340" y="675" on="1"/>
        <pt x="353" y="651" on="0"/>
        <pt x="373" y="651" on="1"/>
        <pt x="373" y="631" on="1"/>
        <pt x="357" y="624" on="0"/>
        <pt x="330" y="610" on="1"/>
        <pt x="267" y="575" on="0"/>
        <pt x="262" y="575" on="1"/>
        <pt x="247" y="575" on="0"/>
        <pt x="202" y="693" on="0"/>
        <pt x="188" y="693" on="1"/>
        <pt x="170" y="693" on="0"/>
        <pt x="170" y="663" on="1"/>
        <pt x="170" y="440" on="1"/>
        <pt x="170" y="400" on="0"/>
        <pt x="188" y="400" on="1"/>
        <pt x="192" y="400" on="0"/>
        <pt x="308" y="452" on="0"/>
        <pt x="320" y="452" on="1"/>
        <pt x="344" y="452" on="0"/>
        <pt x="381" y="375" on="0"/>
        <pt x="381" y="315" on="1"/>
        <pt x="381" y="102" on="1"/>
        <pt x="381" y="83" on="0"/>
        <pt x="152" y="-10" on="0"/>
        <pt x="135" y="-10" on="1"/>
        <pt x="128" y="-10" on="0"/>
        <pt x="110" y="24" on="0"/>
        <pt x="81" y="87" on="0"/>
        <pt x="58" y="129" on="0"/>
        <pt x="38" y="129" on="1"/>
        <pt x="38" y="149" on="1"/>
        <pt x="54" y="156" on="0"/>
        <pt x="80" y="170" on="1"/>
        <pt x="144" y="205" on="0"/>
        <pt x="149" y="205" on="1"/>
        <pt x="164" y="205" on="0"/>
        <pt x="219" y="67" on="0"/>
        <pt x="233" y="67" on="1"/>
        <pt x="243" y="67" on="0"/>
        <pt x="261" y="83" on="0"/>
        <pt x="261" y="97" on="1"/>
        <pt x="261" y="322" on="1"/>
        <pt x="261" y="367" on="0"/>
        <pt x="236" y="367" on="1"/>
        <pt x="228" y="367" on="0"/>
        <pt x="118" y="319" on="0"/>
      </contour>
    </TTGlyph>
    <TTGlyph name="Sacute" xMin="38" yMin="-10" xMax="381" yMax="985">
      <contour>
        <pt x="111" y="319" on="1"/>
        <pt x="86" y="319" on="0"/>
        <pt x="50" y="395" on="0"/>
        <pt x="50" y="450" on="1"/>
        <pt x="50" y="658" on="1"/>
        <pt x="50" y="677" on="0"/>
        <pt x="260" y="770" on="0"/>
        <pt x="284" y="770" on="0"/>
        <pt x="298" y="750" on="1"/>
        <pt x="304" y="740" on="0"/>
        <pt x="315" y="720" on="0"/>
        <pt x="334" y="686" on="0"/>
        <pt x="340" y="675" on="1"/>
        <pt x="353" y="651" on="0"/>
        <pt x="373" y="651" on="1"/>
        <pt x="373" y="631" on="1"/>
        <pt x="357" y="624" on="0"/>
        <pt x="267" y="575" on="0"/>
        <pt x="262" y="575" on="1"/>
        <pt x="247" y="575" on="0"/>
        <pt x="202" y="693" on="0"/>
        <pt x="188" y="693" on="1"/>
        <pt x="170" y="693" on="0"/>
        <pt x="170" y="663" on="1"/>
        <pt x="170" y="440" on="1"/>
        <pt x="170" y="430" on="1"/>
        <pt x="171" y="420" on="0"/>
        <pt x="180" y="400" on="0"/>
        <pt x="192" y="400" on="0"/>
        <pt x="308" y="452" on="0"/>
        <pt x="320" y="452" on="1"/>
        <pt x="344" y="452" on="0"/>
        <pt x="381" y="375" on="0"/>
        <pt x="381" y="315" on="1"/>
        <pt x="381" y="102" on="1"/>
        <pt x="381" y="83" on="0"/>
        <pt x="152" y="-10" on="0"/>
        <pt x="135" y="-10" on="1"/>
        <pt x="128" y="-10" on="0"/>
        <pt x="110" y="24" on="0"/>
        <pt x="81" y="87" on="0"/>
        <pt x="58" y="129" on="0"/>
        <pt x="38" y="129" on="1"/>
        <pt x="38" y="149" on="1"/>
        <pt x="54" y="156" on="0"/>
        <pt x="144" y="205" on="0"/>
        <pt x="149" y="205" on="1"/>
        <pt x="164" y="205" on="0"/>
        <pt x="219" y="67" on="0"/>
        <pt x="233" y="67" on="1"/>
        <pt x="243" y="67" on="0"/>
        <pt x="261" y="83" on="0"/>
        <pt x="261" y="97" on="1"/>
        <pt x="261" y="322" on="1"/>
        <pt x="260" y="333" on="1"/>
        <pt x="260" y="344" on="0"/>
        <pt x="247" y="367" on="0"/>
        <pt x="228" y="367" on="0"/>
        <pt x="118" y="319" on="0"/>
      </contour>
      <contour>
        <pt x="176" y="975" on="1"/>
        <pt x="182" y="985" on="0"/>
        <pt x="268" y="985" on="0"/>
        <pt x="268" y="966" on="1"/>
        <pt x="268" y="938" on="0"/>
        <pt x="178" y="822" on="1"/>
        <pt x="168" y="810" on="0"/>
        <pt x="143" y="810" on="1"/>
        <pt x="136" y="810" on="0"/>
        <pt x="127" y="842" on="0"/>
        <pt x="127" y="872" on="0"/>
        <pt x="159" y="948" on="0"/>
      </contour>
    </TTGlyph>
    <TTGlyph name="Scaron" xMin="29" yMin="-10" xMax="381" yMax="984">
      <contour>
        <pt x="111" y="319" on="1"/>
        <pt x="86" y="319" on="0"/>
        <pt x="50" y="395" on="0"/>
        <pt x="50" y="450" on="1"/>
        <pt x="50" y="658" on="1"/>
        <pt x="50" y="677" on="0"/>
        <pt x="260" y="770" on="0"/>
        <pt x="276" y="770" on="1"/>
        <pt x="288" y="770" on="0"/>
        <pt x="310" y="730" on="1"/>
        <pt x="315" y="720" on="0"/>
        <pt x="334" y="686" on="0"/>
        <pt x="340" y="675" on="1"/>
        <pt x="353" y="651" on="0"/>
        <pt x="373" y="651" on="1"/>
        <pt x="373" y="631" on="1"/>
        <pt x="357" y="624" on="0"/>
        <pt x="330" y="610" on="1"/>
        <pt x="267" y="575" on="0"/>
        <pt x="262" y="575" on="1"/>
        <pt x="247" y="575" on="0"/>
        <pt x="202" y="693" on="0"/>
        <pt x="188" y="693" on="1"/>
        <pt x="170" y="693" on="0"/>
        <pt x="170" y="663" on="1"/>
        <pt x="170" y="440" on="1"/>
        <pt x="170" y="400" on="0"/>
        <pt x="188" y="400" on="1"/>
        <pt x="192" y="400" on="0"/>
        <pt x="308" y="452" on="0"/>
        <pt x="320" y="452" on="1"/>
        <pt x="344" y="452" on="0"/>
        <pt x="381" y="375" on="0"/>
        <pt x="381" y="315" on="1"/>
        <pt x="381" y="102" on="1"/>
        <pt x="381" y="83" on="0"/>
        <pt x="152" y="-10" on="0"/>
        <pt x="135" y="-10" on="1"/>
        <pt x="128" y="-10" on="0"/>
        <pt x="110" y="24" on="0"/>
        <pt x="81" y="87" on="0"/>
        <pt x="58" y="129" on="0"/>
        <pt x="38" y="129" on="1"/>
        <pt x="38" y="149" on="1"/>
        <pt x="54" y="156" on="0"/>
        <pt x="80" y="170" on="1"/>
        <pt x="144" y="205" on="0"/>
        <pt x="149" y="205" on="1"/>
        <pt x="164" y="205" on="0"/>
        <pt x="219" y="67" on="0"/>
        <pt x="233" y="67" on="1"/>
        <pt x="243" y="67" on="0"/>
        <pt x="261" y="83" on="0"/>
        <pt x="261" y="97" on="1"/>
        <pt x="261" y="322" on="1"/>
        <pt x="261" y="367" on="0"/>
        <pt x="236" y="367" on="1"/>
        <pt x="228" y="367" on="0"/>
        <pt x="118" y="319" on="0"/>
      </contour>
      <contour>
        <pt x="252" y="824" on="1"/>
        <pt x="232" y="809" on="0"/>
        <pt x="157" y="809" on="0"/>
        <pt x="142" y="824" on="1"/>
        <pt x="130" y="836" on="0"/>
        <pt x="74" y="888" on="0"/>
        <pt x="60" y="902" on="1"/>
        <pt x="29" y="935" on="0"/>
        <pt x="29" y="952" on="0"/>
        <pt x="32" y="962" on="1"/>
        <pt x="38" y="984" on="0"/>
        <pt x="45" y="984" on="1"/>
        <pt x="57" y="984" on="0"/>
        <pt x="150" y="923" on="0"/>
        <pt x="197" y="885" on="1"/>
        <pt x="244" y="923" on="0"/>
        <pt x="337" y="984" on="0"/>
        <pt x="349" y="984" on="1"/>
        <pt x="356" y="984" on="0"/>
        <pt x="365" y="952" on="0"/>
        <pt x="365" y="932" on="0"/>
        <pt x="283" y="850" on="0"/>
      </contour>
    </TTGlyph>
    <TTGlyph name="Scircumflex" xMin="31" yMin="-10" xMax="381" yMax="985">
      <contour>
        <pt x="111" y="319" on="1"/>
        <pt x="86" y="319" on="0"/>
        <pt x="50" y="395" on="0"/>
        <pt x="50" y="450" on="1"/>
        <pt x="50" y="658" on="1"/>
        <pt x="50" y="677" on="0"/>
        <pt x="260" y="770" on="0"/>
        <pt x="284" y="770" on="0"/>
        <pt x="298" y="750" on="1"/>
        <pt x="304" y="740" on="0"/>
        <pt x="315" y="720" on="0"/>
        <pt x="334" y="686" on="0"/>
        <pt x="340" y="675" on="1"/>
        <pt x="353" y="651" on="0"/>
        <pt x="373" y="651" on="1"/>
        <pt x="373" y="631" on="1"/>
        <pt x="357" y="624" on="0"/>
        <pt x="267" y="575" on="0"/>
        <pt x="262" y="575" on="1"/>
        <pt x="247" y="575" on="0"/>
        <pt x="202" y="693" on="0"/>
        <pt x="188" y="693" on="1"/>
        <pt x="170" y="693" on="0"/>
        <pt x="170" y="663" on="1"/>
        <pt x="170" y="440" on="1"/>
        <pt x="170" y="430" on="1"/>
        <pt x="171" y="420" on="0"/>
        <pt x="180" y="400" on="0"/>
        <pt x="192" y="400" on="0"/>
        <pt x="308" y="452" on="0"/>
        <pt x="320" y="452" on="1"/>
        <pt x="344" y="452" on="0"/>
        <pt x="381" y="375" on="0"/>
        <pt x="381" y="315" on="1"/>
        <pt x="381" y="102" on="1"/>
        <pt x="381" y="83" on="0"/>
        <pt x="152" y="-10" on="0"/>
        <pt x="135" y="-10" on="1"/>
        <pt x="128" y="-10" on="0"/>
        <pt x="110" y="24" on="0"/>
        <pt x="81" y="87" on="0"/>
        <pt x="58" y="129" on="0"/>
        <pt x="38" y="129" on="1"/>
        <pt x="38" y="149" on="1"/>
        <pt x="54" y="156" on="0"/>
        <pt x="144" y="205" on="0"/>
        <pt x="149" y="205" on="1"/>
        <pt x="164" y="205" on="0"/>
        <pt x="219" y="67" on="0"/>
        <pt x="233" y="67" on="1"/>
        <pt x="243" y="67" on="0"/>
        <pt x="261" y="83" on="0"/>
        <pt x="261" y="97" on="1"/>
        <pt x="261" y="322" on="1"/>
        <pt x="260" y="333" on="1"/>
        <pt x="260" y="344" on="0"/>
        <pt x="247" y="367" on="0"/>
        <pt x="228" y="367" on="0"/>
        <pt x="118" y="319" on="0"/>
      </contour>
      <contour>
        <pt x="285" y="944" on="0"/>
        <pt x="367" y="862" on="0"/>
        <pt x="367" y="842" on="0"/>
        <pt x="364" y="832" on="1"/>
        <pt x="358" y="810" on="0"/>
        <pt x="351" y="810" on="1"/>
        <pt x="339" y="810" on="0"/>
        <pt x="246" y="871" on="0"/>
        <pt x="199" y="909" on="1"/>
        <pt x="152" y="871" on="0"/>
        <pt x="59" y="810" on="0"/>
        <pt x="47" y="810" on="1"/>
        <pt x="40" y="810" on="0"/>
        <pt x="31" y="842" on="0"/>
        <pt x="31" y="857" on="0"/>
        <pt x="48" y="877" on="0"/>
        <pt x="76" y="906" on="0"/>
        <pt x="90" y="919" on="1"/>
        <pt x="132" y="958" on="0"/>
        <pt x="159" y="985" on="0"/>
        <pt x="234" y="985" on="0"/>
        <pt x="254" y="970" on="1"/>
      </contour>
    </TTGlyph>
    <TTGlyph name="T" xMin="-58" yMin="-32" xMax="422" yMax="793">
      <contour>
        <pt x="122" y="102" on="1"/>
        <pt x="122" y="632" on="1"/>
        <pt x="153" y="662" on="1"/>
        <pt x="90" y="662" on="1"/>
        <pt x="29" y="662" on="0"/>
        <pt x="21" y="629" on="1"/>
        <pt x="-1" y="629" on="1"/>
        <pt x="-58" y="711" on="1"/>
        <pt x="-46" y="730" on="0"/>
        <pt x="-8" y="760" on="0"/>
        <pt x="10" y="760" on="1"/>
        <pt x="274" y="760" on="1"/>
        <pt x="335" y="760" on="0"/>
        <pt x="343" y="793" on="1"/>
        <pt x="365" y="793" on="1"/>
        <pt x="422" y="711" on="1"/>
        <pt x="410" y="692" on="0"/>
        <pt x="372" y="662" on="0"/>
        <pt x="354" y="662" on="1"/>
        <pt x="242" y="662" on="1"/>
        <pt x="242" y="154" on="1"/>
        <pt x="242" y="117" on="0"/>
        <pt x="258" y="85" on="0"/>
        <pt x="283" y="85" on="1"/>
        <pt x="283" y="54" on="1"/>
        <pt x="78" y="-32" on="1"/>
        <pt x="62" y="0" on="1"/>
        <pt x="84" y="0" on="0"/>
        <pt x="104" y="26" on="1"/>
        <pt x="122" y="51" on="0"/>
      </contour>
    </TTGlyph>
    <TTGlyph name="Tbar" xMin="-58" yMin="-32" xMax="422" yMax="793">
      <contour>
        <pt x="122" y="102" on="1"/>
        <pt x="122" y="405" on="1"/>
        <pt x="-44" y="405" on="1"/>
        <pt x="-44" y="427" on="1"/>
        <pt x="6" y="474" on="1"/>
        <pt x="122" y="474" on="1"/>
        <pt x="122" y="632" on="1"/>
        <pt x="153" y="662" on="1"/>
        <pt x="90" y="662" on="1"/>
        <pt x="29" y="662" on="0"/>
        <pt x="21" y="629" on="1"/>
        <pt x="-1" y="629" on="1"/>
        <pt x="-58" y="711" on="1"/>
        <pt x="-46" y="730" on="0"/>
        <pt x="-8" y="760" on="0"/>
        <pt x="10" y="760" on="1"/>
        <pt x="274" y="760" on="1"/>
        <pt x="335" y="760" on="0"/>
        <pt x="343" y="793" on="1"/>
        <pt x="365" y="793" on="1"/>
        <pt x="422" y="711" on="1"/>
        <pt x="410" y="692" on="0"/>
        <pt x="372" y="662" on="0"/>
        <pt x="354" y="662" on="1"/>
        <pt x="242" y="662" on="1"/>
        <pt x="242" y="474" on="1"/>
        <pt x="394" y="474" on="1"/>
        <pt x="394" y="450" on="1"/>
        <pt x="344" y="405" on="1"/>
        <pt x="242" y="405" on="1"/>
        <pt x="242" y="154" on="1"/>
        <pt x="242" y="117" on="0"/>
        <pt x="258" y="85" on="0"/>
        <pt x="283" y="85" on="1"/>
        <pt x="283" y="54" on="1"/>
        <pt x="78" y="-32" on="1"/>
        <pt x="62" y="0" on="1"/>
        <pt x="84" y="0" on="0"/>
        <pt x="104" y="26" on="1"/>
        <pt x="122" y="51" on="0"/>
      </contour>
    </TTGlyph>
    <TTGlyph name="Tcaron" xMin="-58" yMin="-32" xMax="422" yMax="985">
      <contour>
        <pt x="122" y="102" on="1"/>
        <pt x="122" y="632" on="1"/>
        <pt x="153" y="662" on="1"/>
        <pt x="90" y="662" on="1"/>
        <pt x="29" y="662" on="0"/>
        <pt x="21" y="629" on="1"/>
        <pt x="-1" y="629" on="1"/>
        <pt x="-58" y="711" on="1"/>
        <pt x="-46" y="730" on="0"/>
        <pt x="-8" y="760" on="0"/>
        <pt x="10" y="760" on="1"/>
        <pt x="274" y="760" on="1"/>
        <pt x="335" y="760" on="0"/>
        <pt x="343" y="793" on="1"/>
        <pt x="365" y="793" on="1"/>
        <pt x="422" y="711" on="1"/>
        <pt x="410" y="692" on="0"/>
        <pt x="372" y="662" on="0"/>
        <pt x="354" y="662" on="1"/>
        <pt x="242" y="662" on="1"/>
        <pt x="242" y="154" on="1"/>
        <pt x="242" y="117" on="0"/>
        <pt x="258" y="85" on="0"/>
        <pt x="283" y="85" on="1"/>
        <pt x="283" y="54" on="1"/>
        <pt x="78" y="-32" on="1"/>
        <pt x="62" y="0" on="1"/>
        <pt x="84" y="0" on="0"/>
        <pt x="104" y="26" on="1"/>
        <pt x="122" y="51" on="0"/>
      </contour>
      <contour>
        <pt x="238" y="825" on="1"/>
        <pt x="218" y="810" on="0"/>
        <pt x="143" y="810" on="0"/>
        <pt x="128" y="825" on="1"/>
        <pt x="116" y="837" on="0"/>
        <pt x="60" y="889" on="0"/>
        <pt x="46" y="904" on="1"/>
        <pt x="15" y="936" on="0"/>
        <pt x="15" y="953" on="0"/>
        <pt x="18" y="964" on="1"/>
        <pt x="24" y="985" on="0"/>
        <pt x="31" y="985" on="1"/>
        <pt x="43" y="985" on="0"/>
        <pt x="136" y="924" on="0"/>
        <pt x="183" y="886" on="1"/>
        <pt x="230" y="924" on="0"/>
        <pt x="323" y="985" on="0"/>
        <pt x="335" y="985" on="1"/>
        <pt x="342" y="985" on="0"/>
        <pt x="351" y="953" on="0"/>
        <pt x="351" y="932" on="0"/>
        <pt x="269" y="851" on="0"/>
      </contour>
    </TTGlyph>
    <TTGlyph name="Thorn" xMin="-38" yMin="-32" xMax="381" yMax="770">
      <contour>
        <pt x="50" y="102" on="1"/>
        <pt x="50" y="574" on="1"/>
        <pt x="50" y="614" on="0"/>
        <pt x="-38" y="614" on="1"/>
        <pt x="-38" y="642" on="1"/>
        <pt x="92" y="710" on="0"/>
        <pt x="194" y="770" on="1"/>
        <pt x="210" y="738" on="1"/>
        <pt x="206" y="736" on="0"/>
        <pt x="192" y="725" on="0"/>
        <pt x="170" y="670" on="0"/>
        <pt x="170" y="630" on="1"/>
        <pt x="170" y="601" on="1"/>
        <pt x="280" y="668" on="0"/>
        <pt x="312" y="668" on="0"/>
        <pt x="381" y="586" on="0"/>
        <pt x="381" y="553" on="1"/>
        <pt x="381" y="262" on="1"/>
        <pt x="381" y="255" on="0"/>
        <pt x="222" y="191" on="0"/>
        <pt x="170" y="175" on="1"/>
        <pt x="170" y="154" on="1"/>
        <pt x="170" y="117" on="0"/>
        <pt x="186" y="85" on="0"/>
        <pt x="211" y="85" on="1"/>
        <pt x="211" y="54" on="1"/>
        <pt x="6" y="-32" on="1"/>
        <pt x="-10" y="0" on="1"/>
        <pt x="12" y="0" on="0"/>
        <pt x="32" y="26" on="1"/>
        <pt x="50" y="51" on="0"/>
      </contour>
      <contour>
        <pt x="209" y="572" on="1"/>
        <pt x="191" y="572" on="0"/>
        <pt x="170" y="557" on="1"/>
        <pt x="170" y="222" on="1"/>
        <pt x="196" y="222" on="0"/>
        <pt x="260" y="255" on="0"/>
        <pt x="260" y="273" on="1"/>
        <pt x="260" y="498" on="1"/>
        <pt x="260" y="572" on="0"/>
      </contour>
    </TTGlyph>
    <TTGlyph name="U" xMin="1" yMin="0" xMax="440" yMax="771">
      <contour>
        <pt x="260" y="104" on="1"/>
        <pt x="260" y="585" on="1"/>
        <pt x="260" y="622" on="0"/>
        <pt x="244" y="654" on="0"/>
        <pt x="219" y="654" on="1"/>
        <pt x="219" y="685" on="1"/>
        <pt x="424" y="771" on="1"/>
        <pt x="440" y="739" on="1"/>
        <pt x="418" y="739" on="0"/>
        <pt x="398" y="713" on="1"/>
        <pt x="380" y="688" on="0"/>
        <pt x="380" y="637" on="1"/>
        <pt x="380" y="164" on="1"/>
        <pt x="380" y="131" on="0"/>
        <pt x="408" y="83" on="0"/>
        <pt x="429" y="83" on="1"/>
        <pt x="429" y="61" on="1"/>
        <pt x="422" y="60" on="0"/>
        <pt x="320" y="0" on="1"/>
        <pt x="313" y="2" on="0"/>
        <pt x="293" y="9" on="0"/>
        <pt x="260" y="41" on="0"/>
        <pt x="260" y="62" on="1"/>
        <pt x="254" y="59" on="0"/>
        <pt x="226" y="43" on="1"/>
        <pt x="152" y="1" on="0"/>
        <pt x="138" y="1" on="1"/>
        <pt x="106" y="1" on="0"/>
        <pt x="50" y="84" on="0"/>
        <pt x="50" y="120" on="1"/>
        <pt x="50" y="623" on="1"/>
        <pt x="50" y="678" on="0"/>
        <pt x="1" y="688" on="1"/>
        <pt x="1" y="710" on="1"/>
        <pt x="110" y="771" on="1"/>
        <pt x="132" y="762" on="0"/>
        <pt x="170" y="721" on="0"/>
        <pt x="170" y="703" on="1"/>
        <pt x="170" y="213" on="1"/>
        <pt x="170" y="150" on="0"/>
        <pt x="207" y="104" on="0"/>
      </contour>
    </TTGlyph>
    <TTGlyph name="Uacute" xMin="1" yMin="0" xMax="440" yMax="985">
      <contour>
        <pt x="260" y="104" on="1"/>
        <pt x="260" y="585" on="1"/>
        <pt x="260" y="622" on="0"/>
        <pt x="244" y="654" on="0"/>
        <pt x="219" y="654" on="1"/>
        <pt x="219" y="685" on="1"/>
        <pt x="424" y="771" on="1"/>
        <pt x="440" y="739" on="1"/>
        <pt x="418" y="739" on="0"/>
        <pt x="398" y="713" on="1"/>
        <pt x="380" y="688" on="0"/>
        <pt x="380" y="637" on="1"/>
        <pt x="380" y="164" on="1"/>
        <pt x="380" y="131" on="0"/>
        <pt x="408" y="83" on="0"/>
        <pt x="429" y="83" on="1"/>
        <pt x="429" y="61" on="1"/>
        <pt x="422" y="60" on="0"/>
        <pt x="320" y="0" on="1"/>
        <pt x="313" y="2" on="0"/>
        <pt x="293" y="9" on="0"/>
        <pt x="260" y="41" on="0"/>
        <pt x="260" y="62" on="1"/>
        <pt x="254" y="59" on="0"/>
        <pt x="226" y="43" on="1"/>
        <pt x="152" y="1" on="0"/>
        <pt x="138" y="1" on="1"/>
        <pt x="106" y="1" on="0"/>
        <pt x="50" y="84" on="0"/>
        <pt x="50" y="120" on="1"/>
        <pt x="50" y="623" on="1"/>
        <pt x="50" y="678" on="0"/>
        <pt x="1" y="688" on="1"/>
        <pt x="1" y="710" on="1"/>
        <pt x="110" y="771" on="1"/>
        <pt x="132" y="762" on="0"/>
        <pt x="170" y="721" on="0"/>
        <pt x="170" y="703" on="1"/>
        <pt x="170" y="213" on="1"/>
        <pt x="170" y="150" on="0"/>
        <pt x="207" y="104" on="0"/>
      </contour>
      <contour>
        <pt x="243" y="975" on="1"/>
        <pt x="249" y="985" on="0"/>
        <pt x="335" y="985" on="0"/>
        <pt x="335" y="966" on="1"/>
        <pt x="335" y="938" on="0"/>
        <pt x="245" y="822" on="1"/>
        <pt x="235" y="810" on="0"/>
        <pt x="210" y="810" on="1"/>
        <pt x="203" y="810" on="0"/>
        <pt x="194" y="842" on="0"/>
        <pt x="194" y="872" on="0"/>
        <pt x="226" y="948" on="0"/>
      </contour>
    </TTGlyph>
    <TTGlyph name="Ubreve" xMin="1" yMin="0" xMax="440" yMax="969">
      <contour>
        <pt x="260" y="104" on="1"/>
        <pt x="260" y="585" on="1"/>
        <pt x="260" y="622" on="0"/>
        <pt x="244" y="654" on="0"/>
        <pt x="219" y="654" on="1"/>
        <pt x="219" y="685" on="1"/>
        <pt x="424" y="771" on="1"/>
        <pt x="440" y="739" on="1"/>
        <pt x="418" y="739" on="0"/>
        <pt x="398" y="713" on="1"/>
        <pt x="380" y="688" on="0"/>
        <pt x="380" y="637" on="1"/>
        <pt x="380" y="164" on="1"/>
        <pt x="380" y="131" on="0"/>
        <pt x="408" y="83" on="0"/>
        <pt x="429" y="83" on="1"/>
        <pt x="429" y="61" on="1"/>
        <pt x="422" y="60" on="0"/>
        <pt x="320" y="0" on="1"/>
        <pt x="313" y="2" on="0"/>
        <pt x="293" y="9" on="0"/>
        <pt x="260" y="41" on="0"/>
        <pt x="260" y="62" on="1"/>
        <pt x="254" y="59" on="0"/>
        <pt x="226" y="43" on="1"/>
        <pt x="152" y="1" on="0"/>
        <pt x="138" y="1" on="1"/>
        <pt x="106" y="1" on="0"/>
        <pt x="50" y="84" on="0"/>
        <pt x="50" y="120" on="1"/>
        <pt x="50" y="623" on="1"/>
        <pt x="50" y="678" on="0"/>
        <pt x="1" y="688" on="1"/>
        <pt x="1" y="710" on="1"/>
        <pt x="110" y="771" on="1"/>
        <pt x="132" y="762" on="0"/>
        <pt x="170" y="721" on="0"/>
        <pt x="170" y="703" on="1"/>
        <pt x="170" y="213" on="1"/>
        <pt x="170" y="150" on="0"/>
        <pt x="207" y="104" on="0"/>
      </contour>
      <contour>
        <pt x="354" y="925" on="1"/>
        <pt x="354" y="889" on="1"/>
        <pt x="354" y="881" on="0"/>
        <pt x="199" y="809" on="0"/>
        <pt x="153" y="809" on="0"/>
        <pt x="71" y="886" on="0"/>
        <pt x="71" y="940" on="1"/>
        <pt x="71" y="943" on="0"/>
        <pt x="132" y="969" on="0"/>
        <pt x="142" y="969" on="0"/>
        <pt x="160" y="941" on="0"/>
        <pt x="164" y="925" on="1"/>
        <pt x="182" y="855" on="1"/>
        <pt x="204" y="855" on="0"/>
        <pt x="244" y="874" on="0"/>
        <pt x="252" y="883" on="1"/>
        <pt x="261" y="892" on="1"/>
        <pt x="261" y="940" on="1"/>
        <pt x="261" y="943" on="0"/>
        <pt x="322" y="969" on="0"/>
        <pt x="333" y="969" on="0"/>
        <pt x="354" y="941" on="0"/>
      </contour>
    </TTGlyph>
    <TTGlyph name="Ucircumflex" xMin="1" yMin="0" xMax="440" yMax="985">
      <contour>
        <pt x="260" y="104" on="1"/>
        <pt x="260" y="585" on="1"/>
        <pt x="260" y="622" on="0"/>
        <pt x="244" y="654" on="0"/>
        <pt x="219" y="654" on="1"/>
        <pt x="219" y="685" on="1"/>
        <pt x="424" y="771" on="1"/>
        <pt x="440" y="739" on="1"/>
        <pt x="418" y="739" on="0"/>
        <pt x="398" y="713" on="1"/>
        <pt x="380" y="688" on="0"/>
        <pt x="380" y="637" on="1"/>
        <pt x="380" y="164" on="1"/>
        <pt x="380" y="131" on="0"/>
        <pt x="408" y="83" on="0"/>
        <pt x="429" y="83" on="1"/>
        <pt x="429" y="61" on="1"/>
        <pt x="422" y="60" on="0"/>
        <pt x="320" y="0" on="1"/>
        <pt x="313" y="2" on="0"/>
        <pt x="293" y="9" on="0"/>
        <pt x="260" y="41" on="0"/>
        <pt x="260" y="62" on="1"/>
        <pt x="254" y="59" on="0"/>
        <pt x="226" y="43" on="1"/>
        <pt x="152" y="1" on="0"/>
        <pt x="138" y="1" on="1"/>
        <pt x="106" y="1" on="0"/>
        <pt x="50" y="84" on="0"/>
        <pt x="50" y="120" on="1"/>
        <pt x="50" y="623" on="1"/>
        <pt x="50" y="678" on="0"/>
        <pt x="1" y="688" on="1"/>
        <pt x="1" y="710" on="1"/>
        <pt x="110" y="771" on="1"/>
        <pt x="132" y="762" on="0"/>
        <pt x="170" y="721" on="0"/>
        <pt x="170" y="703" on="1"/>
        <pt x="170" y="213" on="1"/>
        <pt x="170" y="150" on="0"/>
        <pt x="207" y="104" on="0"/>
      </contour>
      <contour>
        <pt x="302" y="944" on="0"/>
        <pt x="384" y="862" on="0"/>
        <pt x="384" y="842" on="0"/>
        <pt x="381" y="832" on="1"/>
        <pt x="375" y="810" on="0"/>
        <pt x="368" y="810" on="1"/>
        <pt x="356" y="810" on="0"/>
        <pt x="263" y="871" on="0"/>
        <pt x="216" y="909" on="1"/>
        <pt x="169" y="871" on="0"/>
        <pt x="76" y="810" on="0"/>
        <pt x="64" y="810" on="1"/>
        <pt x="57" y="810" on="0"/>
        <pt x="48" y="842" on="0"/>
        <pt x="48" y="857" on="0"/>
        <pt x="65" y="877" on="0"/>
        <pt x="93" y="906" on="0"/>
        <pt x="107" y="919" on="1"/>
        <pt x="149" y="958" on="0"/>
        <pt x="176" y="985" on="0"/>
        <pt x="251" y="985" on="0"/>
        <pt x="271" y="970" on="1"/>
      </contour>
    </TTGlyph>
</ttFont>
